<svg width="1200" height="200" viewBox="0 0 7372 1500" fill="none" xmlns="http://www.w3.org/2000/svg">
  <defs>
    <clipPath id="clip0_244_255">
      <rect width="7371.65" height="1500" fill="white"/>
    </clipPath>
  </defs>
  <g clip-path="url(#clip0_244_255)">
    <rect width="7371.65" height="1500" fill="white"/>
    
    <!-- Main artisan figures - cropped to show upper portions -->
    <g transform="translate(0, -2800)">
      <!-- Left artisan -->
      <path d="M5789.96 3405.83C5760.95 3412.65 5757.74 3448.42 5757.74 3448.42C5755.89 3463.86 5757 3478.92 5774.28 3498.05L5774.36 3498.19C5788.25 3521.9 5791.89 3528.13 5770.58 3568.54C5770.58 3568.54 5752.06 3598.05 5741.07 3625.83C5732.77 3646.82 5733.17 3669.03 5744.28 3687.43C5751.74 3699.78 5763 3708.07 5777 3704.59C5790.2 3701.3 5793.42 3673.85 5793.42 3673.85C5793.42 3665.65 5796.01 3651.38 5806.5 3640.52C5806.5 3640.52 5839.64 3611.41 5850.08 3587.56C5861.33 3561.84 5863.41 3543.09 5856.25 3515.95C5849.69 3491.06 5820.58 3460.52 5820.58 3460.52C5827.98 3446.2 5828.6 3429.29 5820.58 3419.91C5820.58 3419.91 5806.26 3402.01 5789.96 3405.83Z" fill="#4766C0"/>
      
      <!-- Center artisan -->
      <path fill-rule="evenodd" clip-rule="evenodd" d="M5014.43 2857.46C5037.59 2833.41 5072.69 2797.27 5108.18 2764.1C5133.11 2764.09 5162.8 2760.27 5193.01 2754.11C5241.64 2744.18 5292.54 2727.69 5330.96 2709.2C5336.75 2707.1 5343.48 2704.57 5350.8 2701.83C5369.35 2694.87 5391.64 2686.5 5411.83 2680.07C5419.67 2677.57 5427.19 2675.36 5434.05 2673.64C5445.55 2670.19 5462.85 2664.58 5481.08 2657.96C5481.66 2657.75 5482.23 2657.54 5482.81 2657.33C5508.64 2647.87 5536.02 2636.45 5551.2 2626.23C5565.03 2616.16 5563.42 2607.03 5560.59 2604.14C5539.65 2582.8 5442.44 2599.81 5389.73 2609.07C5358.52 2554.56 5292.12 2531.63 5262.82 2526.98C5145.69 2512.06 5059.78 2593.44 5031.47 2635.98C4979.32 2708.67 4988.51 2809.06 5014.43 2857.46Z" fill="#AFD1FA"/>
      
      <!-- Right artisan -->
      <path fill-rule="evenodd" clip-rule="evenodd" d="M5543.43 3225.96C5522.86 3211.35 5500.35 3198.27 5478 3186.92C5493.8 3232.88 5511.33 3330.28 5518.73 3432.5C5526.14 3534.72 5539.85 3573.23 5570.96 3648.91V3772.86L5682.06 3669.03C5683.53 3595.48 5686.13 3464.58 5687.61 3382.05C5687.72 3376.32 5687.81 3370.82 5687.91 3365.59C5643.26 3308.9 5573.55 3247.57 5543.43 3225.96Z" fill="#AFD1FA"/>
      
      <!-- Hair and facial features -->
      <path d="M5827.74 3190.29C5827.74 3190.29 5793.29 3190.29 5793.29 3214.73C5793.29 3239.54 5825.14 3239.54 5825.14 3239.54C5833.91 3239.54 5852.9 3237.44 5864.15 3235.47C5883.54 3232.01 5926.1 3227.17 5941.31 3235.47C5967.88 3214.83 5956 3195.72 5945.63 3188.43C5927.24 3177.2 5864.65 3186.71 5827.74 3190.29Z" fill="#B5602A"/>
      
      <!-- Additional details -->
      <path d="M5051.47 2935.97C5054.18 2970.42 5083.2 2992.64 5083.2 2992.64C5088.49 2996.91 5098.89 3002.05 5112.7 3003.42C5126.03 3004.73 5142.54 3002.53 5160.72 2992.64C5165.54 2990.02 5172.82 2991.65 5167.02 2999.18C5158.84 3008.83 5134.43 3013.91 5118.9 3015.82L5098.3 3097.7L5097.52 3100.66C5097.52 3100.66 5097.52 3145.1 5135.42 3184.72C5162.62 3213.15 5185.34 3225.16 5223.93 3232.88C5293.19 3246.73 5317.01 3225.35 5317.01 3225.35C5324.96 3219.37 5343.46 3206.19 5356.15 3165.97C5359.93 3153.99 5360.25 3152.73 5361.21 3146.46C5291.01 3135.94 5252.36 3095.32 5238.81 3071.61C5238.09 3070.35 5239.7 3069.11 5240.85 3069.99C5265.67 3088.97 5319.05 3106.77 5361.21 3107.08Z" fill="#B5602A"/>
    </g>
    
    <!-- Tools and work elements scattered across the banner -->
    <g opacity="0.7">
      <!-- Hammer -->
      <rect x="200" y="50" width="80" height="15" rx="7" fill="#8B4513" transform="rotate(25 240 57)"/>
      <rect x="270" y="35" width="25" height="40" rx="5" fill="#696969" transform="rotate(25 282 55)"/>
      
      <!-- Wrench -->
      <path d="M400 80 L450 60 L460 70 L470 65 L475 75 L465 80 L455 75 L410 95 Z" fill="#C0C0C0"/>
      
      <!-- Screwdriver -->
      <rect x="600" y="120" width="100" height="8" rx="4" fill="#FFD700" transform="rotate(-15 650 124)"/>
      <rect x="690" y="115" width="30" height="18" rx="2" fill="#8B4513" transform="rotate(-15 705 124)"/>
      
      <!-- Paintbrush -->
      <rect x="800" y="40" width="6" height="80" fill="#8B4513" transform="rotate(10 803 80)"/>
      <rect x="798" y="35" width="10" height="15" fill="#4169E1" transform="rotate(10 803 42)"/>
      
      <!-- Measuring tape -->
      <circle cx="950" cy="90" r="20" fill="#FFD700"/>
      <rect x="970" y="85" width="40" height="10" fill="#FFFF00"/>
      
      <!-- Additional tools -->
      <rect x="1100" y="60" width="60" height="12" rx="6" fill="#8B4513" transform="rotate(-20 1130 66)"/>
      <circle cx="1150" cy="55" r="8" fill="#696969" transform="rotate(-20 1150 55)"/>
    </g>
    
    <!-- Background pattern -->
    <defs>
      <pattern id="workPattern" x="0" y="0" width="100" height="100" patternUnits="userSpaceOnUse">
        <circle cx="20" cy="20" r="2" fill="#E6E6FA" opacity="0.3"/>
        <circle cx="80" cy="60" r="1.5" fill="#E6E6FA" opacity="0.4"/>
        <circle cx="50" cy="80" r="1" fill="#E6E6FA" opacity="0.5"/>
      </pattern>
    </defs>
    <rect width="100%" height="100%" fill="url(#workPattern)"/>
  </g>
</svg>