<svg width="1200" height="120" viewBox="0 0 1200 120" fill="none" xmlns="http://www.w3.org/2000/svg">
  <defs>
    <linearGradient id="bannerGradient" x1="0%" y1="0%" x2="100%" y2="0%">
      <stop offset="0%" style="stop-color:#8B5CF6;stop-opacity:1" />
      <stop offset="25%" style="stop-color:#A78BFA;stop-opacity:1" />
      <stop offset="50%" style="stop-color:#C4B5FD;stop-opacity:1" />
      <stop offset="75%" style="stop-color:#A78BFA;stop-opacity:1" />
      <stop offset="100%" style="stop-color:#8B5CF6;stop-opacity:1" />
    </linearGradient>
  </defs>
  
  <!-- Background -->
  <rect width="1200" height="120" fill="url(#bannerGradient)"/>
  
  <!-- Repeating Hand Pattern -->
  <g opacity="0.8">
    <!-- Hand 1 -->
    <g transform="translate(50, 20)">
      <path d="M20 30 Q15 25 10 30 Q8 35 12 40 L18 45 Q22 50 28 45 L35 40 Q38 35 35 30 Q30 25 25 30 L20 30 Z" fill="#DDD6FE"/>
      <circle cx="15" cy="35" r="2" fill="#C4B5FD"/>
      <circle cx="25" cy="35" r="2" fill="#C4B5FD"/>
      <path d="M12 40 Q20 42 28 40" stroke="#A78BFA" stroke-width="1" fill="none"/>
    </g>
    
    <!-- Hand 2 -->
    <g transform="translate(150, 15)">
      <path d="M20 30 Q15 25 10 30 Q8 35 12 40 L18 45 Q22 50 28 45 L35 40 Q38 35 35 30 Q30 25 25 30 L20 30 Z" fill="#DDD6FE"/>
      <circle cx="15" cy="35" r="2" fill="#C4B5FD"/>
      <circle cx="25" cy="35" r="2" fill="#C4B5FD"/>
      <path d="M12 40 Q20 42 28 40" stroke="#A78BFA" stroke-width="1" fill="none"/>
    </g>
    
    <!-- Hand 3 -->
    <g transform="translate(250, 25)">
      <path d="M20 30 Q15 25 10 30 Q8 35 12 40 L18 45 Q22 50 28 45 L35 40 Q38 35 35 30 Q30 25 25 30 L20 30 Z" fill="#DDD6FE"/>
      <circle cx="15" cy="35" r="2" fill="#C4B5FD"/>
      <circle cx="25" cy="35" r="2" fill="#C4B5FD"/>
      <path d="M12 40 Q20 42 28 40" stroke="#A78BFA" stroke-width="1" fill="none"/>
    </g>
    
    <!-- Hand 4 -->
    <g transform="translate(350, 10)">
      <path d="M20 30 Q15 25 10 30 Q8 35 12 40 L18 45 Q22 50 28 45 L35 40 Q38 35 35 30 Q30 25 25 30 L20 30 Z" fill="#DDD6FE"/>
      <circle cx="15" cy="35" r="2" fill="#C4B5FD"/>
      <circle cx="25" cy="35" r="2" fill="#C4B5FD"/>
      <path d="M12 40 Q20 42 28 40" stroke="#A78BFA" stroke-width="1" fill="none"/>
    </g>
    
    <!-- Hand 5 -->
    <g transform="translate(450, 20)">
      <path d="M20 30 Q15 25 10 30 Q8 35 12 40 L18 45 Q22 50 28 45 L35 40 Q38 35 35 30 Q30 25 25 30 L20 30 Z" fill="#DDD6FE"/>
      <circle cx="15" cy="35" r="2" fill="#C4B5FD"/>
      <circle cx="25" cy="35" r="2" fill="#C4B5FD"/>
      <path d="M12 40 Q20 42 28 40" stroke="#A78BFA" stroke-width="1" fill="none"/>
    </g>
    
    <!-- Hand 6 -->
    <g transform="translate(550, 15)">
      <path d="M20 30 Q15 25 10 30 Q8 35 12 40 L18 45 Q22 50 28 45 L35 40 Q38 35 35 30 Q30 25 25 30 L20 30 Z" fill="#DDD6FE"/>
      <circle cx="15" cy="35" r="2" fill="#C4B5FD"/>
      <circle cx="25" cy="35" r="2" fill="#C4B5FD"/>
      <path d="M12 40 Q20 42 28 40" stroke="#A78BFA" stroke-width="1" fill="none"/>
    </g>
    
    <!-- Hand 7 -->
    <g transform="translate(650, 25)">
      <path d="M20 30 Q15 25 10 30 Q8 35 12 40 L18 45 Q22 50 28 45 L35 40 Q38 35 35 30 Q30 25 25 30 L20 30 Z" fill="#DDD6FE"/>
      <circle cx="15" cy="35" r="2" fill="#C4B5FD"/>
      <circle cx="25" cy="35" r="2" fill="#C4B5FD"/>
      <path d="M12 40 Q20 42 28 40" stroke="#A78BFA" stroke-width="1" fill="none"/>
    </g>
    
    <!-- Hand 8 -->
    <g transform="translate(750, 10)">
      <path d="M20 30 Q15 25 10 30 Q8 35 12 40 L18 45 Q22 50 28 45 L35 40 Q38 35 35 30 Q30 25 25 30 L20 30 Z" fill="#DDD6FE"/>
      <circle cx="15" cy="35" r="2" fill="#C4B5FD"/>
      <circle cx="25" cy="35" r="2" fill="#C4B5FD"/>
      <path d="M12 40 Q20 42 28 40" stroke="#A78BFA" stroke-width="1" fill="none"/>
    </g>
    
    <!-- Hand 9 -->
    <g transform="translate(850, 20)">
      <path d="M20 30 Q15 25 10 30 Q8 35 12 40 L18 45 Q22 50 28 45 L35 40 Q38 35 35 30 Q30 25 25 30 L20 30 Z" fill="#DDD6FE"/>
      <circle cx="15" cy="35" r="2" fill="#C4B5FD"/>
      <circle cx="25" cy="35" r="2" fill="#C4B5FD"/>
      <path d="M12 40 Q20 42 28 40" stroke="#A78BFA" stroke-width="1" fill="none"/>
    </g>
    
    <!-- Hand 10 -->
    <g transform="translate(950, 15)">
      <path d="M20 30 Q15 25 10 30 Q8 35 12 40 L18 45 Q22 50 28 45 L35 40 Q38 35 35 30 Q30 25 25 30 L20 30 Z" fill="#DDD6FE"/>
      <circle cx="15" cy="35" r="2" fill="#C4B5FD"/>
      <circle cx="25" cy="35" r="2" fill="#C4B5FD"/>
      <path d="M12 40 Q20 42 28 40" stroke="#A78BFA" stroke-width="1" fill="none"/>
    </g>
    
    <!-- Hand 11 -->
    <g transform="translate(1050, 25)">
      <path d="M20 30 Q15 25 10 30 Q8 35 12 40 L18 45 Q22 50 28 45 L35 40 Q38 35 35 30 Q30 25 25 30 L20 30 Z" fill="#DDD6FE"/>
      <circle cx="15" cy="35" r="2" fill="#C4B5FD"/>
      <circle cx="25" cy="35" r="2" fill="#C4B5FD"/>
      <path d="M12 40 Q20 42 28 40" stroke="#A78BFA" stroke-width="1" fill="none"/>
    </g>
  </g>
  
  <!-- Decorative Elements -->
  <circle cx="100" cy="80" r="3" fill="#DDD6FE" opacity="0.6"/>
  <circle cx="300" cy="90" r="2" fill="#C4B5FD" opacity="0.7"/>
  <circle cx="500" cy="85" r="2.5" fill="#DDD6FE" opacity="0.5"/>
  <circle cx="700" cy="95" r="2" fill="#C4B5FD" opacity="0.6"/>
  <circle cx="900" cy="80" r="3" fill="#DDD6FE" opacity="0.7"/>
  <circle cx="1100" cy="90" r="2" fill="#C4B5FD" opacity="0.5"/>
</svg>