<svg width="193" height="144" viewBox="0 0 193 144" fill="none" xmlns="http://www.w3.org/2000/svg">
<path d="M115.215 18.2398C115.215 18.2398 110.467 18.2398 106.293 19.529C103.159 20.497 101.169 21.9598 98.6601 24.0728C95.3969 26.9447 89.866 33.5562 91.3721 39.2616C93.376 35.9303 98.992 29.2567 101.979 28.6167C106.293 27.6922 108.229 26.1788 109.101 25.145C109.101 25.145 109.116 27.2034 109.701 28.3231C110.634 30.1103 111.863 31.1417 113.874 31.2715C117.436 31.5013 117.853 31.2234 120.129 31.5936C121.341 31.6947 123.868 32.7521 123.868 37.3087C123.868 39.1978 124.392 41.0995 127.57 43.3842C128.297 43.9072 128.54 44.7891 128.54 45.2477C128.54 45.6006 128.392 45.994 128.19 46.3717C127.842 47.0208 127.598 47.7304 127.662 48.4638C127.78 49.829 128.005 52.1441 128.297 53.8121C128.997 57.7952 130.885 58.5288 132.234 58.5041C133.246 58.4855 134.11 57.8633 134.923 57.262C135.362 56.9378 135.916 56.5334 136.581 56.0585C137.874 55.1352 139.036 54.7926 140.563 55.2289C142.346 55.7382 143.448 58.7134 143.448 58.7134C144.534 61.427 142.746 65.8761 142.515 66.4294C142.499 66.4677 142.483 66.5057 142.467 66.5441C141.637 68.5594 139.064 70.1663 138.308 70.1368C138.38 70.366 138.475 70.848 138.52 71.0941C141.519 70.0219 143.229 67.3544 144.072 65.644C144.072 65.644 144.269 64.4536 144.46 62.5169C144.462 62.5039 144.463 62.4908 144.464 62.4777C144.955 57.4693 145.395 47.5412 142.312 40.2571C139.529 33.6839 136.342 28.6367 128.987 23.256C122.949 18.8397 115.215 18.2398 115.215 18.2398Z" fill="black"/>
<path d="M124.634 10.8242C123.488 12.7172 124.251 16.2998 124.251 16.2998C123.26 16.3519 121.781 16.4817 120.282 16.7088C120.282 16.7088 128.803 17.6264 133.556 20.0778C137.572 21.8179 144.635 24.928 148.387 37.3087C152.14 49.6895 147.2 60.3088 144.46 62.5169C144.269 64.4536 144.072 65.644 144.072 65.644C144.072 65.644 147.454 62.2169 148.987 59.6962C150.981 56.4182 152.14 50.3915 152.14 50.3915C152.14 50.3915 156.627 51.1573 160.028 45.6817C161.488 43.33 161.393 38.7255 161.393 38.7255C161.393 38.7255 166.043 37.4364 168.171 32.2416C169.465 29.082 169.364 26.6977 168.171 23.4985C167.084 20.5831 163.155 17.3081 163.155 17.3081C163.155 17.3081 163.155 10.6739 159.721 7.03337C157.523 4.70213 155.66 3.59775 152.484 3.16598C149.995 2.82747 146.115 4.0722 146.115 4.0722C146.115 4.0722 143.465 0.941225 140.716 0.485646C138.027 0.0399134 135.765 0.382607 133.556 1.97903C131.254 3.64212 129.523 8.029 129.523 8.029C129.523 8.029 126.327 8.029 124.634 10.8242Z" fill="black"/>
<path d="M111.437 226.811C112.994 225.156 116.159 221.743 116.363 221.335H134.934C136.875 221.335 140.188 220.636 140.116 217.48C142.989 217.371 148.225 216.95 154.361 216.041C159.934 215.215 166.249 213.986 172.207 212.222C170.767 208.741 169.792 206.874 169.792 206.874C156.288 211.162 144.319 212.013 137.141 212.222C136.842 213.358 136.55 214.233 136.381 214.737L136.377 214.749C135.279 218.399 120.116 217.229 113.058 216.319C111.735 217.747 109.307 218.276 105.983 218.299L111.437 226.811Z" fill="black"/>
<path d="M63.2133 153.088C59.9236 144.98 53.7391 140.303 51.2177 138.92V142.953C51.2177 142.953 56.1684 147.989 57.9569 151.99C59.9547 156.459 60.1395 165.725 60.1395 165.725L63.8514 163.362C63.1801 159.568 63.0343 156.148 63.2133 153.088Z" fill="black"/>
<path d="M108.526 89.027C104.817 89.9434 101.87 90.259 98.775 89.7573V92.3328V94.024V95.7152C103.136 95.4663 112.687 93.3667 120.92 83.2196C119.052 84.6992 115.276 87.3598 108.526 89.027Z" fill="black"/>
<path d="M149.932 165.456C150.206 167.779 150.894 167.6 153.927 167.498L153.403 164.728C155.871 162.158 163.078 157.096 174.119 155.143C178.088 154.624 183.786 153.644 186.512 154.441L187.495 158.742C189.646 157.333 194.161 152.353 191.439 150.694C191.243 150.574 191.01 150.47 190.737 150.382C173.123 146.821 156.05 158.997 149.932 165.456Z" fill="black"/>
<path d="M122.47 245.943C125.074 249.915 121.934 252.734 119.216 254.393C118.639 254.733 118.085 255.06 117.55 255.376C118.105 256.252 119.216 258.812 119.216 262.038H183.207C183.207 262.038 181.605 243.401 178.79 232.324C176.532 223.435 174.006 216.57 172.207 212.222C166.249 213.986 159.934 215.215 154.361 216.041C148.225 216.95 142.989 217.371 140.116 217.48C140.188 220.636 136.875 221.335 134.934 221.335H116.363C116.159 221.743 112.994 225.156 111.437 226.811L122.47 245.943Z" fill="#1E3A8A"/>
<path d="M73.0946 212.18C66.1512 226.08 53.9874 256.55 51.8942 262.038H92.2682C91.4679 261.1 90.8751 260.08 90.4404 259.217C87.6962 253.772 81.7636 241.782 79.9869 237.392C78.2102 233.001 80.4256 226.534 81.7554 223.849C79.8248 223.335 79.258 221.246 79.2084 219.969C79.2084 219.969 76.5779 218.505 75.6345 216.957C74.7942 215.578 74.9581 213.281 74.9581 213.281C74.9581 213.281 73.9935 212.883 73.0946 212.18Z" fill="#1E3A8D"/>
<path d="M161.955 101.306C161.955 101.306 156.897 99.9272 152.586 110.661C150.675 115.423 149.633 121.757 149.565 122.178C149.563 122.193 149.56 122.208 149.558 122.223L148.885 126.897C148.446 134.659 146.789 141.087 145.21 145.187C145.624 146.744 146.166 148.821 146.739 151.084C148.178 156.762 149.61 162.74 149.932 165.456C156.05 158.997 173.123 146.821 190.737 150.382C191.01 150.47 191.243 150.574 191.439 150.694L182.926 128.645C178.79 118.097 173.766 110.661 171.273 107.764C166.984 102.781 163.274 101.382 161.955 101.306Z" fill="#AFD1FA"/>
<path d="M78.1745 180.094C78.7542 180.146 79.3369 180.262 79.8848 180.478C80.574 180.749 81.0718 182.763 79.7827 183.592C87.0239 185.507 106.359 190.067 121.89 186.146C116.744 178.926 116.529 162.205 117.55 156.023C117.55 156.023 102.232 156.425 92.5846 155.002C81.2505 153.33 74.7794 149.705 74.7794 149.705C74.7794 149.705 72.766 156.342 73.503 164.345C74.24 172.348 78.1745 180.094 78.1745 180.094Z" fill="#4766C0"/>
<path d="M86.5092 99.8761C87.9515 97.9454 91.0735 94.0093 92.0231 93.7113C92.0231 93.7113 83.3693 94.2885 76.6939 97.5914C70.8755 100.47 68.1632 103.273 63.7899 108.07C59.4954 112.781 54.3703 121.655 54.3703 121.655V122.519C54.3703 122.519 54.5141 124.77 53.5407 126.067C52.7806 127.08 50.7071 127.931 50.7071 127.931C50.7443 128.193 50.7791 128.478 50.8118 128.781C51.1041 131.496 51.2177 135.694 51.2177 138.92C53.7391 140.303 59.9236 144.98 63.2133 153.088C63.6415 145.766 65.9287 140.504 67.3254 137.095C67.5477 136.5 67.7722 135.908 67.9987 135.321C74.0262 119.685 81.4533 106.876 86.5092 99.8761Z" fill="#AFD1FA"/>
<path d="M100.996 194.71C100.996 194.71 93.4909 191.251 87.977 190.153C84.9491 189.551 83.3179 189.447 80.1144 190.105C80.0388 190.121 79.9622 190.137 79.8848 190.153C78.0037 190.552 76.8153 190.947 75.4645 191.643C75.2436 191.757 75.0184 191.879 74.7851 192.01C74.7851 192.01 74.785 192.01 74.785 192.011C74.284 192.292 73.5899 192.705 73.018 193.063C69.7965 195.085 68.1503 196.688 66.0235 199.841C64.5772 201.985 61.2754 205.814 63.7899 208.533C64.9514 209.605 68.0402 208.962 71.3077 205.266C71.5366 205.041 71.7889 204.797 72.0607 204.54C72.4854 204.137 72.9579 203.7 73.4647 203.245C71.2285 205.968 71.0781 208.74 71.7161 210.473C71.9658 211.151 72.5166 211.729 73.0946 212.18C73.9935 212.883 74.9581 213.281 74.9581 213.281C74.9581 213.281 74.7942 215.578 75.6345 216.957C76.5779 218.505 79.2084 219.969 79.2084 219.969C79.258 221.246 79.8248 223.335 81.7554 223.849C82.1474 223.954 82.6085 223.923 83.1274 223.836C83.57 223.763 83.9978 223.618 84.3899 223.4C87.6713 221.576 92.1922 217.112 97.154 217.672C100.537 218.053 103.509 218.316 105.983 218.299C109.307 218.276 111.735 217.747 113.058 216.319C120.116 217.229 135.279 218.399 136.377 214.749L136.381 214.737C136.55 214.233 136.842 213.358 137.141 212.222C137.52 210.785 137.91 208.93 138.074 206.874C138.809 197.857 134.615 191.302 131.795 188.264C131.637 188.064 131.488 187.885 131.346 187.728C129.824 186.044 129.07 186.73 127.366 187.384L108.399 194.71C105.068 196.254 102.332 195.335 100.996 194.71Z" fill="#EFA800"/>
<path d="M139.721 152.654C136.679 153.273 133.25 148.046 133.25 148.046C133.113 147.816 132.978 147.592 132.845 147.375C132.845 147.375 131.002 154.958 131.742 160.414C132.445 165.601 133.857 169.339 136.273 173.982C138.08 177.456 141.8 181.995 142.058 182.308C145.564 180.674 149.314 179.007 152.306 177.875C153.65 177.366 155.156 176.84 156.638 176.343C155.689 174.312 154.368 169.463 153.927 167.498C150.894 167.6 150.206 167.779 149.932 165.456C149.61 162.74 148.178 156.762 146.739 151.084C146.739 151.084 145.4 151.859 144.456 151.875C143.463 151.892 142.039 151.084 142.039 151.084C141.411 151.813 140.619 152.471 139.721 152.654Z" fill="#AFD1FA"/>
<path d="M34.518 60.7173C36.1557 58.8421 37.3935 56.8816 38.3082 55.063C38.3082 55.063 33.3614 51.553 31.4596 55.063C30.2509 57.2936 34.3155 60.947 34.3155 60.947C34.3834 60.8706 34.451 60.794 34.518 60.7173Z" fill="#EFA800"/>
<path d="M115.215 18.2398C115.215 18.2398 122.949 18.8397 128.987 23.256C136.342 28.6367 139.529 33.6839 142.312 40.2571C145.395 47.5412 144.955 57.4693 144.464 62.4777L144.46 62.5169C147.2 60.3088 152.14 49.6895 148.387 37.3087C144.635 24.928 137.572 21.8179 133.556 20.0778C128.803 17.6264 120.282 16.7088 120.282 16.7088C118.227 17.02 116.136 17.5137 115.215 18.2398Z" fill="#AFD1FA"/>
<path d="M132.899 72.9576C132.138 72.4876 131.847 71.973 131.68 71.4259C131.68 71.4259 129.718 74.5872 129.523 76.8633C129.318 79.2485 129.669 81.1994 130.466 82.6089C130.473 82.6208 130.48 82.6327 130.486 82.6446C131.531 84.4619 133.324 85.3655 135.626 85.1213C139.136 84.749 141.061 81.295 140.884 77.7695C140.691 73.9021 138.483 72.3563 138.483 72.3563C138.354 73.0546 137.857 73.864 137.398 74.3312C137.398 74.3312 138.155 75.7911 138.155 77.9433C138.155 80.0836 137.368 81.9117 135.228 81.9432C133.064 81.9751 131.846 80.9268 131.846 77.5525C131.846 75.2295 133.175 73.5447 133.175 73.5447C133.066 73.3617 132.973 73.1651 132.899 72.9576Z" fill="#EFA800"/>
<path d="M135.981 67.9032C134.118 67.6276 132.789 69.5455 132.688 71.4259C132.659 71.9716 132.733 72.4921 132.899 72.9576C132.973 73.1651 133.066 73.3617 133.175 73.5447C133.673 74.378 134.527 74.9295 135.636 74.9487C136.433 74.9625 136.908 74.8297 137.398 74.3312C137.857 73.864 138.354 73.0546 138.483 72.3563C138.572 71.8731 138.612 71.6024 138.52 71.0941C138.475 70.848 138.38 70.366 138.308 70.1368C137.947 68.9826 137.227 68.0876 135.981 67.9032Z" fill="#EFA800"/>
<path d="M145.21 145.187C144.634 146.683 144.068 147.869 143.575 148.697C143.575 148.697 142.997 149.972 142.039 151.084C142.039 151.084 143.463 151.892 144.456 151.875C145.4 151.859 146.739 151.084 146.739 151.084C146.166 148.821 145.624 146.744 145.21 145.187Z" fill="black"/>
<path d="M88.4748 48.796C88.4748 48.796 85.256 56.6705 84.5819 62.0064C83.4046 71.3238 86.2794 78.982 86.2794 78.982C86.2794 78.982 88.4748 86.1169 93.4016 88.1591C95.3371 88.9614 97.0782 89.4822 98.775 89.7573C101.87 90.259 104.817 89.9434 108.526 89.027C115.276 87.3598 119.052 84.6992 120.92 83.2196C112.687 93.3667 103.136 95.4663 98.775 95.7152C98.775 95.7152 97.7193 103.722 100.09 107.139C102.592 110.745 105.133 111.785 109.522 111.785C116.252 111.785 120.371 108.961 125.192 104.633C129.893 100.413 133.578 91.8632 133.578 91.8632C130.174 90.0699 130.135 85.0892 130.486 82.6446C130.48 82.6327 130.473 82.6208 130.466 82.6089C129.669 81.1994 129.318 79.2485 129.523 76.8633C129.718 74.5872 131.68 71.4259 131.68 71.4259C131.847 71.973 132.138 72.4876 132.899 72.9576C132.733 72.4921 132.659 71.9716 132.688 71.4259C132.789 69.5455 134.118 67.6276 135.981 67.9032C137.227 68.0876 137.947 68.9826 138.308 70.1368C139.064 70.1663 141.637 68.5594 142.467 66.5441C142.483 66.5057 142.499 66.4677 142.515 66.4294C142.746 65.8761 144.534 61.427 143.448 58.7134C143.448 58.7134 142.346 55.7382 140.563 55.2289C139.036 54.7926 137.874 55.1352 136.581 56.0585C135.916 56.5334 135.362 56.9378 134.923 57.262C134.11 57.8633 133.246 58.4855 132.234 58.5041C130.885 58.5288 128.997 57.7952 128.297 53.8121C128.005 52.1441 127.78 49.829 127.662 48.4638C127.598 47.7304 127.842 47.0208 128.19 46.3717C128.392 45.994 128.54 45.6006 128.54 45.2477C128.54 44.7891 128.297 43.9072 127.57 43.3842C124.392 41.0995 123.868 39.1978 123.868 37.3087C123.868 32.7521 121.341 31.6947 120.129 31.5936C117.853 31.2234 117.436 31.5013 113.874 31.2715C111.863 31.1417 110.634 30.1103 109.701 28.3231C109.116 27.2034 109.101 25.145 109.101 25.145C108.229 26.1788 106.293 27.6922 101.979 28.6167C98.992 29.2567 93.376 35.9303 91.3721 39.2616C91.1896 39.6389 90.9921 40.0982 90.7885 40.6145C89.8668 42.9512 88.8197 46.4544 88.4748 48.796Z" fill="#B5602A"/>
<path d="M131.346 187.728C131.488 187.885 131.637 188.064 131.795 188.264C134.615 191.302 138.809 197.857 138.074 206.874C137.91 208.93 137.52 210.785 137.141 212.222C144.319 212.013 156.288 211.162 169.792 206.874C173.493 205.698 180.182 203.443 184.062 200.773C194.094 193.868 191.35 181.206 189.907 171.621L187.495 158.742L186.512 154.441C183.786 153.644 178.088 154.624 174.119 155.143C163.078 157.096 155.871 162.158 153.403 164.728L153.927 167.498C154.368 169.463 155.689 174.312 156.638 176.343C155.156 176.84 153.65 177.366 152.306 177.875C149.314 179.007 145.564 180.674 142.058 182.308C136.703 184.805 131.973 187.384 131.346 187.728Z" fill="#B5602A"/>
<path d="M100.09 107.139C97.7193 103.722 98.775 95.7152 98.775 95.7152V94.024C98.775 94.024 94.6086 99.0465 86.5092 114.759C82.5992 122.344 77.5363 134.683 77.5363 134.683C77.5363 134.683 83.6322 137.756 96.281 139.52C104.209 140.626 116.779 139.52 116.779 139.52C116.769 139.183 116.78 138.827 116.811 138.455C117.418 131.196 125.601 117.713 128.463 113.201C131.08 109.076 136.463 99.0422 138.827 94.5409C139.138 94.0304 139.472 93.574 139.856 93.199C139.875 93.1806 139.894 93.1625 139.913 93.1445L137.398 92.7157L134.347 92.1924C134.073 92.0998 133.817 91.9894 133.578 91.8632C133.578 91.8632 129.893 100.413 125.192 104.633C120.371 108.961 116.252 111.785 109.522 111.785C105.133 111.785 102.592 110.745 100.09 107.139Z" fill="#AFD1FA"/>
<path d="M27.0051 78.1652C25.333 78.7778 22.3208 82.0964 24.7204 86.1041C25.2954 87.0646 25.9712 88.1342 26.7694 89.0781C28.1502 90.7109 29.8974 91.9673 32.1233 91.6308C33.2848 91.4552 34.1987 89.7673 33.5145 87.5209C30.6547 83.928 29.1653 81.8917 27.0051 78.1652Z" fill="#EFA800"/>
<path d="M29.9407 72.9959C27.1837 74.017 26.8349 76.8675 27.0051 78.1652C29.1653 81.8917 30.6547 83.928 33.5145 87.5209C33.5145 87.5209 35.8383 89.5417 37.4585 89.0781C38.7936 88.696 39.6516 87.9339 39.9985 86.5892C40.2364 85.6665 39.9985 83.9854 39.9985 83.9854C36.1693 80.9349 31.1532 76.0592 29.9407 72.9959Z" fill="#EFA800"/>
<path d="M138.827 94.5409C136.463 99.0422 131.08 109.076 128.463 113.201C125.601 117.713 117.418 131.196 116.811 138.455C116.78 138.827 116.769 139.183 116.779 139.52C116.798 140.123 116.886 140.667 117.053 141.141C117.186 141.261 117.471 141.411 117.837 141.393C118.237 141.373 118.748 141.465 119.03 141.749C119.717 142.443 121.132 143.488 123.336 144.327C123.336 144.327 123.336 144.327 123.336 144.327C123.998 142.845 124.79 141.442 125.681 140.477C126.862 140.461 129.265 141.544 132.845 147.375C132.978 147.592 133.113 147.816 133.25 148.046C133.25 148.046 136.679 153.273 139.721 152.654C140.619 152.471 141.411 151.813 142.039 151.084C142.997 149.972 143.575 148.697 143.575 148.697C144.068 147.869 144.634 146.683 145.21 145.187C146.789 141.087 148.446 134.659 148.885 126.897L149.558 122.223C149.56 122.208 149.563 122.193 149.565 122.178C149.633 121.757 150.675 115.423 152.586 110.661C156.897 99.9272 161.955 101.306 161.955 101.306C163.274 101.382 166.984 102.781 171.273 107.764C173.654 110.531 178.344 117.439 182.364 127.243C182.649 126.303 183.321 124.165 184.687 123.374C186.07 122.572 190.201 119.749 187.444 114.452C186.137 112.165 180.492 108.811 177.833 107.419C172.613 103.731 166.767 98.5104 163.538 96.6852L163.371 96.6117C161.063 95.5911 157.498 94.0152 153.71 93.3922C151.394 93.0114 146.651 92.6872 143.422 92.1924C141.826 91.9479 140.75 92.355 139.913 93.1445C139.894 93.1625 139.875 93.1806 139.856 93.199C139.472 93.574 139.138 94.0304 138.827 94.5409Z" fill="#4766C0"/>
<path d="M98.775 92.3328C96.8903 92.5881 93.0952 93.2212 92.0231 93.7113C91.0735 94.0093 87.9515 97.9454 86.5092 99.8761C81.4533 106.876 74.0262 119.685 67.9987 135.321C67.7722 135.908 67.5477 136.5 67.3254 137.095C65.9287 140.504 63.6415 145.766 63.2133 153.088C63.0343 156.148 63.1801 159.568 63.8514 163.362C64.1718 165.174 64.6121 167.071 65.1939 169.055C66.4051 173.185 69.911 181.144 70.4981 182.19C71.7279 181.386 73.0905 180.712 74.473 180.402L74.4868 180.399C75.3069 180.241 76.7312 179.965 78.1745 180.094C78.1745 180.094 74.24 172.348 73.503 164.345C72.766 156.342 74.7794 149.705 74.7794 149.705C74.7794 149.705 81.2505 153.33 92.5846 155.002C102.232 156.425 117.55 156.023 117.55 156.023C116.529 162.205 116.744 178.926 121.89 186.146C106.359 190.067 87.0239 185.507 79.7827 183.592C79.1401 183.903 78.3505 184.355 77.4841 184.891L80.1144 190.105C83.3179 189.447 84.9491 189.551 87.977 190.153C93.4909 191.251 100.996 194.71 100.996 194.71C102.332 195.335 105.068 196.254 108.399 194.71L127.366 187.384C129.07 186.73 129.824 186.044 131.346 187.728C131.973 187.384 136.703 184.805 142.058 182.308C141.8 181.995 138.08 177.456 136.273 173.982C133.857 169.339 132.445 165.601 131.742 160.414C131.002 154.958 132.845 147.375 132.845 147.375C129.265 141.544 126.862 140.461 125.681 140.477C124.79 141.442 123.998 142.845 123.336 144.327L123.336 144.327C121.132 143.488 119.717 142.443 119.03 141.749C118.748 141.465 118.237 141.373 117.837 141.393C117.471 141.411 117.186 141.261 117.053 141.141C116.886 140.667 116.798 140.123 116.779 139.52C116.779 139.52 104.209 140.626 96.281 139.52C83.6322 137.756 77.5363 134.683 77.5363 134.683C77.5363 134.683 82.5992 122.344 86.5092 114.759C94.6086 99.0465 98.775 94.024 98.775 94.024V92.3328Z" fill="#1E3A8A"/>
<path fillRule="evenodd" clipRule="evenodd" d="M50.8118 128.781C51.1041 131.496 51.2177 135.694 51.2177 138.92V142.953C51.2177 142.953 56.1684 147.989 57.9569 151.99C59.9547 156.459 60.1395 165.725 60.1395 165.725L50.1073 172.11C45.1039 175.535 34.3824 181.959 25.1671 176.126C15.6837 168.698 18.5045 147.251 21.338 138.367C23.1795 139.034 25.2183 139.731 27.5411 140.49C32.0339 141.957 34.1407 137.314 35.3227 134.416C38.7389 133.902 47.108 132.152 50.8118 128.781Z" fill="#B5602A"/>
<path d="M50.7071 127.931C50.7071 127.931 52.7806 127.08 53.5407 126.067C54.5141 124.77 54.3703 122.519 54.3703 122.519V121.655V112.895C54.3235 108.692 54.5107 99.3605 55.6339 95.6641C57.0379 91.0437 60.3309 85.1724 57.5995 79.7096C56.9667 78.4191 55.6134 76.5306 53.1961 74.6795C52.5782 74.2064 51.8909 73.7357 51.1283 73.2781C50.3005 72.7813 49.3839 72.2999 48.3714 71.8474C47.7336 71.5624 47.0578 71.2889 46.342 71.0303C46.1443 70.9518 45.9441 70.8735 45.7421 70.7958C45.0208 70.5185 44.2756 70.2495 43.534 70.0105C42.7354 69.7531 41.941 69.5306 41.1854 69.3703C38.5876 68.819 36.4479 69.0026 36.1693 71.0303C35.9694 72.4853 36.805 74.9513 41.1854 77.2589C41.7877 77.5762 42.4619 77.8425 43.141 78.1058C43.1414 78.1059 43.1417 78.1061 43.1421 78.1062C43.187 78.1236 43.2319 78.141 43.2769 78.1584C44.5175 78.6388 45.76 79.1199 46.5972 79.8939C46.586 82.3452 47.0503 87.5818 48.8741 90.9671C48.1449 93.8304 46.5972 100.425 45.5762 105.479C44.5551 110.534 38.4541 126.741 35.3227 134.416C38.7389 133.902 47.108 132.152 50.8118 128.781C50.7791 128.478 50.7443 128.193 50.7071 127.931Z" fill="#EFA800"/>
<path d="M8.2425 120.54C7.17035 122.672 6.64705 124.533 9.19977 125.748L28.8941 133.776C31.651 134.757 32.4898 132.679 32.9657 131.441C36.0914 123.31 38.0767 117.76 40.0741 111.555C41.022 108.61 41.9725 105.518 43.049 101.931C44.1415 97.9999 43.1894 97.5474 42.0534 97.4383C35.2759 96.7873 27.4263 96.7235 22.9207 97.7446C19.4301 98.7182 17.9053 101.404 16.6102 103.685C16.5131 103.856 16.4172 104.025 16.3219 104.19L13.9063 109.079L8.2425 120.54Z" fill="#AFD1FA"/>
<path fillRule="evenodd" clipRule="evenodd" d="M84.3899 223.4C83.9978 223.618 83.57 223.763 83.1274 223.836C82.6085 223.923 82.1474 223.954 81.7554 223.849C80.4256 226.534 78.2102 233.001 79.9869 237.392C81.7636 241.782 87.6962 253.772 90.4404 259.217C90.8751 260.08 91.4679 261.1 92.2682 262.038C94.0846 264.168 96.9703 265.881 101.506 264.4C103.151 263.555 104.611 262.785 105.987 262.038C109.564 260.097 112.576 258.317 116.806 255.816C116.807 255.816 116.807 255.816 116.808 255.815L117.55 255.376C118.085 255.06 118.639 254.733 119.216 254.393C121.934 252.734 125.074 249.915 122.47 245.943L111.437 226.811L105.983 218.299C103.509 218.316 100.537 218.053 97.154 217.672C92.1922 217.112 87.6713 221.576 84.3899 223.4ZM100.09 224.679C95.3416 227.104 88.0638 231.248 85.3222 233.626C84.4395 234.392 84.0152 235.967 85.4753 239.051C87.7685 244.029 91.8827 252.175 93.9631 255.2C95.5939 257.571 96.1457 259.888 98.8899 258.286C100.166 257.54 110.39 251.942 115.342 249.236C117.972 247.666 116.938 246.173 116.044 244.743L104.723 226.223C103.048 223.167 102.179 223.611 100.164 224.641L100.09 224.679Z" fill="#4766C0"/>
<path d="M85.3222 233.626C88.0638 231.248 95.3416 227.104 100.09 224.679L100.164 224.641C102.179 223.611 103.048 223.167 104.723 226.223L116.044 244.743C116.938 246.173 117.972 247.666 115.342 249.236C110.39 251.942 100.166 257.54 98.8899 258.286C96.1457 259.888 95.5939 257.571 93.9631 255.2C91.8827 252.175 87.7685 244.029 85.4753 239.051C84.0152 235.967 84.4395 234.392 85.3222 233.626Z" fill="#AFD1FA"/>
<path d="M105.987 262.038H119.216C119.216 258.812 118.105 256.252 117.55 255.376L116.808 255.815L116.806 255.816C112.576 258.317 109.564 260.097 105.987 262.038Z" fill="black"/>
<path fillRule="evenodd" clipRule="evenodd" d="M72.7844 188.025L74.785 192.011C74.785 192.01 74.7851 192.01 74.7851 192.01C75.0184 191.879 75.2436 191.757 75.4645 191.643L73.3626 187.621C73.0612 187.831 73.0779 187.818 72.7844 188.025Z" fill="#1E3A8D"/>
<path fillRule="evenodd" clipRule="evenodd" d="M43.141 78.1058C43.1414 78.1059 43.1417 78.1061 43.1421 78.1062C43.5534 78.836 44.6576 81.0891 43.8148 82.9643C43.1994 84.3335 39.9985 83.9854 39.9985 83.9854C39.9985 83.9854 40.2364 85.6665 39.9985 86.5892C39.6516 87.9339 38.7936 88.696 37.4585 89.0781C35.8383 89.5417 33.5145 87.5209 33.5145 87.5209C34.1987 89.7673 33.2848 91.4552 32.1233 91.6308C29.8974 91.9673 28.1502 90.7109 26.7694 89.0781C25.5142 90.0364 24.0332 90.8705 22.4593 91.7569C18.4151 94.0345 13.7578 96.6574 10.7442 102.62L1.98737 123.283L1.95818 123.347C1.0642 125.299 -0.260781 128.193 4.15718 130.545C10.2013 133.764 14.3476 135.838 21.338 138.367C23.1795 139.034 25.2183 139.731 27.5411 140.49C32.0339 141.957 34.1407 137.314 35.3227 134.416C38.4541 126.741 44.5551 110.534 45.5762 105.479C46.5972 100.425 48.1449 93.8304 48.8741 90.9671C47.0503 87.5818 46.586 82.3452 46.5972 79.8939C45.76 79.1199 44.5175 78.6388 43.2769 78.1584C43.2316 78.1409 43.1863 78.1234 43.141 78.1058ZM8.2425 120.54C7.17035 122.672 6.64705 124.533 9.19977 125.748L28.8941 133.776C31.651 134.757 32.4898 132.679 32.9657 131.441C36.0914 123.31 38.0767 117.76 40.0741 111.555C41.022 108.61 41.9725 105.518 43.049 101.931C44.1415 97.9999 43.1894 97.5474 42.0534 97.4383C35.2759 96.7873 27.4263 96.7235 22.9207 97.7446C19.4301 98.7182 17.9053 101.404 16.6102 103.685C16.5131 103.856 16.4172 104.025 16.3219 104.19L13.9063 109.079L8.2425 120.54Z" fill="#4766C0"/>
<path d="M41.1854 77.2589C36.805 74.9513 35.9694 72.4853 36.1693 71.0303C36.4479 69.0026 38.5876 68.819 41.1854 69.3703L43.1801 65.2751C41.5565 64.2438 40.9472 62.2276 40.8536 61.3299C39.9346 64.5974 33.6039 67.6607 30.681 68.9115C29.5706 70.6601 29.7322 72.162 29.9407 72.9959C31.1532 76.0592 36.1693 80.9349 39.9985 83.9854C39.9985 83.9854 43.1994 84.3335 43.8148 82.9643C44.6576 81.0891 43.5534 78.836 43.1421 78.1062L43.141 78.1058C42.4619 77.8425 41.7877 77.5762 41.1854 77.2589Z" fill="#EFA800"/>
<path d="M45.2698 44.9159L42.0917 43.3764L38.671 49.2645C38.8986 49.4217 39.1245 49.5753 39.3483 49.7278C41.4653 51.1698 43.3848 52.5009 44.5847 55.6059C44.8502 56.2928 45.0804 57.0666 45.2698 57.9475C45.997 61.3299 45.2698 62.0362 44.6344 64.2966C47.0084 65.2624 51.7492 67.2502 54.6211 69.3306C54.6211 69.3306 56.3085 65.7194 58.0718 65.108C59.7038 64.542 62.4625 65.644 62.4625 65.644C63.2538 65.9121 65.2322 65.8253 65.2322 64.7506C65.2322 61.5597 63.6367 58.8155 63.6367 58.8155C60.5479 52.3571 57.4208 51.1956 54.4469 49.7278L45.2698 44.9159Z" fill="#4766C0"/>
<path d="M43.1801 65.2751L41.1854 69.3703C41.941 69.5306 42.7354 69.7531 43.534 70.0105C44.2756 70.2495 45.0208 70.5185 45.7421 70.7958C45.9441 70.8735 46.1443 70.9518 46.342 71.0303C47.0578 71.2889 47.7336 71.5624 48.3714 71.8474C49.3839 72.2999 50.3005 72.7813 51.1283 73.2781C51.8909 73.7357 52.5782 74.2064 53.1961 74.6795L55.0851 69.7284C53.1961 67.916 46.9461 65.1888 43.8148 63.972L43.1801 65.2751Z" fill="#AFD1FA"/>
<path d="M30.681 68.9115C33.6039 67.6607 39.9346 64.5974 40.8536 61.3299C41.0593 59.6029 42.0936 56.0403 44.5847 55.6059C43.3848 52.5009 41.4653 51.1698 39.3483 49.7278C39.6627 50.9855 39.1521 53.385 38.3082 55.063C37.3935 56.8816 36.1557 58.8421 34.518 60.7173C34.451 60.794 34.3834 60.8706 34.3155 60.947C32.1693 63.3603 29.5625 65.6155 27.5098 67.2226C27.2359 67.437 27.1265 67.8213 27.3568 68.0819C28.2105 69.0477 29.9695 69.019 30.681 68.9115Z" fill="#AFD1FA"/>
<path d="M36.6799 40.7549L33.5018 45.9242C34.9906 46.9862 36.8537 48.0096 38.671 49.2645L42.0917 43.3764L36.6799 40.7549Z" fill="#AFD1FA"/>
<path d="M40.8536 61.3299C40.9472 62.2276 41.5565 64.2438 43.1801 65.2751L43.8148 63.972C44.0688 64.0707 44.3433 64.1793 44.6344 64.2966C45.2698 62.0362 45.997 61.3299 45.2698 57.9475C45.0804 57.0666 44.8502 56.2928 44.5847 55.6059C42.0936 56.0403 41.0593 59.6029 40.8536 61.3299Z" fill="black"/>
<path d="M144.072 65.644C144.072 65.644 147.454 62.2169 148.987 59.6962C150.981 56.4182 152.14 50.3915 152.14 50.3915C152.14 50.3915 156.627 51.1573 160.028 45.6817C161.488 43.33 161.393 38.7255 161.393 38.7255C161.393 38.7255 166.043 37.4364 168.171 32.2416C169.465 29.082 169.364 26.6977 168.171 23.4985C167.084 20.5831 163.155 17.3081 163.155 17.3081C163.155 17.3081 163.155 10.6739 159.721 7.03337C157.523 4.70213 155.66 3.59775 152.484 3.16598C149.995 2.82747 146.115 4.0722 146.115 4.0722C146.115 4.0722 143.465 0.941225 140.716 0.485646C138.027 0.0399134 135.765 0.382607 133.556 1.97903C131.254 3.64212 129.523 8.02899 129.523 8.02899C129.523 8.02899 126.327 8.029 124.634 10.8242C123.488 12.7172 124.251 16.2998 124.251 16.2998C123.261 16.3519 121.781 16.4817 120.282 16.7088M144.072 65.644C143.229 67.3544 141.519 70.022 138.52 71.0941M144.072 65.644C144.072 65.644 144.269 64.4536 144.46 62.5169M144.072 65.644C144.072 65.644 144.272 64.4375 144.464 62.4777M115.215 18.2398C115.215 18.2398 110.467 18.2398 106.293 19.529C103.159 20.497 101.169 21.9598 98.6601 24.0728C95.3969 26.9447 89.866 33.5562 91.3721 39.2616M115.215 18.2398C115.215 18.2398 122.949 18.8397 128.987 23.256C136.342 28.6367 139.529 33.6839 142.312 40.2571C145.395 47.5412 144.955 57.4693 144.464 62.4777M115.215 18.2398C116.136 17.5137 118.227 17.02 120.282 16.7088M91.3721 39.2616C93.376 35.9303 98.992 29.2567 101.979 28.6167C106.293 27.6922 108.229 26.1788 109.101 25.145C109.101 25.145 109.116 27.2034 109.701 28.3231C110.634 30.1103 111.863 31.1417 113.874 31.2715C117.436 31.5013 117.853 31.2234 120.129 31.5936C121.341 31.6947 123.868 32.7521 123.868 37.3087C123.868 39.1978 124.392 41.0995 127.57 43.3842C128.297 43.9072 128.54 44.7891 128.54 45.2477C128.54 45.6006 128.392 45.994 128.19 46.3717C127.842 47.0208 127.598 47.7304 127.662 48.4638C127.78 49.829 128.005 52.1441 128.297 53.8121C128.997 57.7952 130.885 58.5288 132.234 58.5041C133.246 58.4855 134.11 57.8633 134.923 57.262C135.362 56.9378 135.916 56.5334 136.581 56.0585C137.874 55.1352 139.036 54.7926 140.563 55.2289C142.346 55.7382 143.448 58.7134 143.448 58.7134C144.534 61.427 142.746 65.8761 142.515 66.4294C142.499 66.4677 142.483 66.5057 142.467 66.5441C141.637 68.5594 139.064 70.1663 138.308 70.1368M91.3721 39.2616C91.1896 39.6389 90.9921 40.0982 90.7885 40.6145C89.8668 42.9512 88.8198 46.4544 88.4748 48.796C88.4748 48.796 85.256 56.6705 84.5819 62.0064C83.4046 71.3238 86.2794 78.982 86.2794 78.982C86.2794 78.982 88.4748 86.1169 93.4015 88.1591C95.3371 88.9614 97.0782 89.4822 98.775 89.7573M120.282 16.7088C120.282 16.7088 128.803 17.6264 133.556 20.0778C137.572 21.8179 144.635 24.928 148.387 37.3087C152.14 49.6895 147.2 60.3088 144.46 62.5169M144.46 62.5169C144.462 62.5039 144.463 62.4908 144.464 62.4777M144.46 62.5169L144.464 62.4777M122.452 81.7741C122.452 81.7741 122.012 82.3544 120.92 83.2196M98.775 89.7573C101.87 90.259 104.817 89.9434 108.526 89.027C115.276 87.3598 119.052 84.6992 120.92 83.2196M98.775 89.7573V92.3328M98.775 95.7152C98.775 95.7152 97.7193 103.722 100.09 107.139C102.592 110.745 105.133 111.785 109.522 111.785C116.252 111.785 120.371 108.961 125.192 104.633C129.893 100.413 133.578 91.8632 133.578 91.8632M98.775 95.7152C103.136 95.4663 112.687 93.3667 120.92 83.2196M98.775 95.7152V94.024M133.578 91.8632C130.174 90.0699 130.135 85.0892 130.486 82.6446M133.578 91.8632C133.817 91.9894 134.073 92.0998 134.347 92.1924M138.52 71.0941C138.612 71.6024 138.572 71.8731 138.483 72.3563M138.52 71.0941C138.475 70.848 138.38 70.366 138.308 70.1368M130.486 82.6446C130.111 85.2612 130.181 90.7833 134.347 92.1924M130.486 82.6446C131.531 84.4619 133.324 85.3655 135.626 85.1213M130.486 82.6446C130.48 82.6327 130.473 82.6208 130.466 82.6089M134.347 92.1924L137.398 92.7157L139.913 93.1445M139.913 93.1445C140.75 92.355 141.826 91.9479 143.422 92.1924M139.913 93.1445C139.894 93.1625 139.875 93.1806 139.856 93.199M131.437 70.4049C131.524 70.7552 131.579 71.0964 131.68 71.426M132.899 72.9576C132.733 72.4921 132.659 71.9716 132.688 71.426C132.789 69.5455 134.118 67.6276 135.981 67.9032C137.227 68.0876 137.947 68.9826 138.308 70.1368M132.899 72.9576C132.138 72.4876 131.847 71.973 131.68 71.426M132.899 72.9576C132.973 73.1651 133.066 73.3617 133.175 73.5447M131.68 71.426C131.68 71.426 129.718 74.5872 129.523 76.8633C129.318 79.2485 129.669 81.1994 130.466 82.6089M135.626 85.1213C139.136 84.749 141.061 81.295 140.884 77.7695C140.691 73.9021 138.483 72.3563 138.483 72.3563M135.626 85.1213C133.309 85.3671 131.507 84.45 130.466 82.6089M138.483 72.3563C138.354 73.0546 137.857 73.864 137.398 74.3312M133.175 73.5447C133.673 74.378 134.527 74.9295 135.636 74.9487C136.433 74.9625 136.908 74.8297 137.398 74.3312M133.175 73.5447C133.175 73.5447 131.846 75.2295 131.846 77.5525C131.846 80.9268 133.064 81.9751 135.228 81.9432C137.368 81.9117 138.155 80.0836 138.155 77.9433C138.155 75.7911 137.398 74.3312 137.398 74.3312M98.775 92.3328C96.8903 92.5881 93.0952 93.2212 92.0231 93.7113M98.775 92.3328V94.024M92.0231 93.7113C91.0735 94.0093 87.9515 97.9454 86.5092 99.8761C81.4533 106.876 74.0262 119.685 67.9987 135.321M92.0231 93.7113C92.0231 93.7113 83.3693 94.2885 76.6939 97.5914C70.8755 100.47 68.1632 103.273 63.7899 108.07C59.4954 112.781 54.3703 121.655 54.3703 121.655M98.775 94.024C98.775 94.024 94.6086 99.0465 86.5092 114.759C82.5992 122.344 77.5363 134.683 77.5363 134.683C77.5363 134.683 83.6322 137.756 96.281 139.52C104.209 140.626 116.779 139.52 116.779 139.52M116.779 139.52C116.769 139.183 116.78 138.827 116.811 138.455M116.779 139.52C116.798 140.123 116.886 140.667 117.053 141.141M117.053 141.141C117.186 141.261 117.471 141.411 117.837 141.393C118.237 141.373 118.748 141.465 119.03 141.749C119.717 142.443 121.132 143.488 123.336 144.327M117.053 141.141C116.793 140.402 116.725 139.492 116.811 138.455M143.422 92.1924C146.651 92.6872 151.394 93.0114 153.71 93.3922C157.498 94.0152 161.063 95.5911 163.371 96.6117M143.422 92.1924C141.79 91.9423 140.701 92.3739 139.856 93.199M163.538 96.6852C166.767 98.5104 172.613 103.731 177.833 107.419C180.492 108.811 186.137 112.165 187.444 114.452C190.201 119.749 186.07 122.572 184.687 123.374C183.321 124.165 182.649 126.303 182.364 127.243C178.344 117.439 173.654 110.531 171.273 107.764M163.538 96.6852L163.371 96.6117M163.538 96.6852C163.483 96.661 163.428 96.6365 163.371 96.6117M123.336 144.327C123.336 144.327 123.336 144.327 123.336 144.327M123.336 144.327L123.336 144.327M74.473 180.402C70.8277 181.219 67.3211 184.571 66.0235 186.146C64.8211 187.604 64.501 190.768 67.2394 191.034C68.2286 191.13 69.1564 190.626 69.9614 190.043C70.8164 189.424 71.8395 188.69 72.7844 188.025M74.473 180.402C73.0905 180.712 71.7278 181.386 70.4981 182.19C69.911 181.144 66.4051 173.185 65.1939 169.055C64.6121 167.071 64.1718 165.174 63.8514 163.362M74.473 180.402L74.4869 180.399M74.473 180.402C74.4776 180.401 74.4822 180.4 74.4869 180.399M79.7827 183.592C81.0718 182.763 80.574 180.749 79.8848 180.478M79.7827 183.592C78.1895 184.363 75.6927 186.003 73.3626 187.621M79.7827 183.592C87.0239 185.507 106.359 190.067 121.89 186.146C116.744 178.926 116.529 162.205 117.55 156.023C117.55 156.023 102.232 156.425 92.5846 155.002C81.2505 153.33 74.7794 149.705 74.7794 149.705C74.7794 149.705 72.766 156.342 73.503 164.345C74.24 172.348 78.1745 180.094 78.1745 180.094M79.7827 183.592C79.1401 183.903 78.3505 184.355 77.4841 184.891L80.1144 190.105M79.8848 180.478C79.3369 180.262 78.7542 180.146 78.1745 180.094M79.8848 180.478C77.9729 179.725 75.6363 180.177 74.4869 180.399M72.7844 188.025L74.785 192.011M72.7844 188.025C73.0779 187.818 73.0612 187.831 73.3626 187.621M74.785 192.011C74.284 192.292 73.5898 192.705 73.018 193.063M74.785 192.011C74.785 192.01 74.7851 192.01 74.7852 192.01M73.3626 187.621L75.4645 191.643M75.4677 191.649L75.4645 191.643M80.1146 190.106L80.1144 190.105M78.1745 180.094C76.7312 179.965 75.3069 180.241 74.4869 180.399M54.3703 121.655V122.519M54.3703 121.655V112.895M121.328 150.305C121.642 148.943 122.344 146.547 123.336 144.327M51.2177 138.92C53.7391 140.303 59.9236 144.98 63.2133 153.088M51.2177 138.92V142.953M51.2177 138.92C51.2177 135.694 51.1041 131.496 50.8118 128.781M63.2133 153.088C63.6415 145.766 65.9287 140.504 67.3254 137.095C67.5477 136.5 67.7722 135.908 67.9987 135.321M63.2133 153.088C63.0343 156.148 63.1801 159.568 63.8514 163.362M54.3703 122.519C54.3703 122.519 54.5141 124.77 53.5407 126.067C52.7806 127.08 50.7071 127.931 50.7071 127.931C50.7443 128.193 50.7791 128.478 50.8118 128.781M54.3703 122.519V112.895M54.3703 112.895C54.3235 108.692 54.5107 99.3605 55.6339 95.6641C57.0379 91.0437 60.3309 85.1724 57.5995 79.7096C56.9667 78.4191 55.6134 76.5306 53.1961 74.6795M47.0312 80.3733C46.9034 80.2013 46.7577 80.0422 46.5972 79.8939M46.5972 79.8939C46.586 82.3452 47.0503 87.5818 48.8741 90.9671M46.5972 79.8939C45.76 79.1199 44.5175 78.6388 43.2769 78.1584M49.6733 92.2052C49.3816 91.8322 49.1159 91.4159 48.8741 90.9671M35.3227 134.416C38.4541 126.741 44.5551 110.534 45.5762 105.479C46.5972 100.425 48.1449 93.8304 48.8741 90.9671M35.3227 134.416C34.1407 137.314 32.0339 141.957 27.5411 140.49C25.2183 139.731 23.1795 139.034 21.338 138.367M35.3227 134.416C38.7389 133.902 47.108 132.152 50.8118 128.781M50.8264 128.768C50.8216 128.772 50.8167 128.776 50.8118 128.781M51.2177 142.953C51.2177 142.953 56.1684 147.989 57.9569 151.99C59.9547 156.459 60.1395 165.725 60.1395 165.725M51.2177 142.953C51.256 146.093 51.1335 151.753 49.9796 155.857M60.1395 165.725L63.8514 163.362M60.1395 165.725L50.1073 172.11M63.8514 163.362L50.1073 172.11M50.1073 172.11C45.1039 175.535 34.3824 181.959 25.1671 176.126C15.6837 168.698 18.5045 147.251 21.338 138.367M26.7694 89.0781C25.9712 88.1342 25.2954 87.0646 24.7204 86.1041M26.7694 89.0781C28.1502 90.7109 29.8974 91.9673 32.1233 91.6308M26.7694 89.0781C25.5142 90.0364 24.0332 90.8705 22.4593 91.7569C18.4151 94.0345 13.7578 96.6574 10.7442 102.62L1.98737 123.283M1.98737 123.283L1.95818 123.347M1.98737 123.283C1.9777 123.304 1.96796 123.325 1.95818 123.347M21.338 138.367C14.3476 135.838 10.2013 133.764 4.15718 130.545C-0.260781 128.193 1.0642 125.299 1.95818 123.347M73.0946 212.18C66.1512 226.08 53.9874 256.55 51.8942 262.038H92.2682M73.0946 212.18C73.9935 212.883 74.9581 213.281 74.9581 213.281M73.0946 212.18C72.5166 211.729 71.9658 211.151 71.7161 210.473M27.0051 78.1652C25.333 78.7778 22.3208 82.0964 24.7204 86.1041M27.0051 78.1652C26.8349 76.8675 27.1837 74.017 29.9407 72.9959M27.0051 78.1652C29.1653 81.8917 30.6547 83.928 33.5145 87.5209M24.7204 86.1041C26.2903 88.7263 28.6107 92.1618 32.1233 91.6308M32.1233 91.6308C33.2848 91.4552 34.1986 89.7673 33.5145 87.5209M33.5145 87.5209C33.5145 87.5209 35.8383 89.5417 37.4585 89.0781C38.7936 88.696 39.6516 87.9339 39.9984 86.5892C40.2364 85.6665 39.9984 83.9854 39.9984 83.9854M29.9407 72.9959C29.7322 72.162 29.5706 70.6601 30.681 68.9115M29.9407 72.9959C31.1532 76.0592 36.1693 80.9349 39.9984 83.9854M30.681 68.9115C33.6039 67.6607 39.9346 64.5974 40.8536 61.3299M30.681 68.9115C29.9695 69.019 28.2105 69.0477 27.3568 68.0819C27.1265 67.8213 27.2359 67.437 27.5098 67.2226C29.5625 65.6155 32.1693 63.3603 34.3155 60.947M39.9984 83.9854C39.9984 83.9854 43.1994 84.3335 43.8148 82.9643C44.6576 81.0891 43.5534 78.836 43.1421 78.1062M43.2769 78.3559C43.2769 78.3559 43.055 77.9518 43.1421 78.1062M40.8536 61.3299C40.9472 62.2276 41.5565 64.2438 43.1801 65.2751M40.8536 61.3299C41.0593 59.6029 42.0936 56.0403 44.5847 55.6059M68.2189 116.66C66.8723 122.289 65.1428 135.321 67.9987 135.321M43.1801 65.2751L41.1854 69.3703M43.1801 65.2751L43.8148 63.972M39.3483 49.7278C39.6627 50.9855 39.1521 53.385 38.3082 55.063M39.3483 49.7278C41.4653 51.1698 43.3848 52.5009 44.5847 55.6059M39.3483 49.7278C39.1246 49.5753 38.8986 49.4217 38.671 49.2645M38.3082 55.063C37.3935 56.8816 36.1557 58.8421 34.518 60.7173C34.451 60.794 34.3834 60.8706 34.3155 60.947M38.3082 55.063C38.3082 55.063 33.3614 51.553 31.4596 55.063C30.2509 57.2936 34.3155 60.947 34.3155 60.947M38.671 49.2645C36.8537 48.0096 34.9906 46.9862 33.5018 45.9242L36.6799 40.7549L42.0917 43.3764M38.671 49.2645L42.0917 43.3764M38.671 49.2645C41.0515 50.9083 43.2579 52.1727 44.5847 55.6059M42.0917 43.3764L45.2698 44.9159L54.4469 49.7278C57.4208 51.1956 60.5479 52.3571 63.6367 58.8155C63.6367 58.8155 65.2322 61.5597 65.2322 64.7506C65.2322 65.8253 63.2538 65.9121 62.4625 65.644C62.4625 65.644 59.7038 64.542 58.0718 65.108C56.3085 65.7194 54.6211 69.3306 54.6211 69.3306C51.7492 67.2502 47.0084 65.2624 44.6344 64.2966M44.6344 64.2966C45.2698 62.0362 45.997 61.3299 45.2698 57.9475C45.0804 57.0666 44.8502 56.2928 44.5847 55.6059M44.6344 64.2966C44.3433 64.1793 44.0688 64.0707 43.8148 63.972M132.845 147.375C129.265 141.544 126.862 140.461 125.681 140.477C124.79 141.442 123.998 142.845 123.336 144.327M132.845 147.375C132.978 147.592 133.113 147.816 133.25 148.046C133.25 148.046 136.679 153.273 139.721 152.654C140.619 152.471 141.411 151.813 142.039 151.084M132.845 147.375C132.845 147.375 131.002 154.958 131.742 160.414C132.445 165.601 133.857 169.339 136.273 173.982M136.273 173.982C138.08 177.456 141.8 181.995 142.058 182.308M136.273 173.982C138.08 177.456 141.8 181.995 142.058 182.308M142.072 182.325C142.072 182.325 142.067 182.319 142.058 182.308M79.8848 190.153C79.9622 190.137 80.0388 190.121 80.1144 190.105M79.8848 190.153C78.0037 190.552 76.8153 190.947 75.4645 191.643M79.8848 190.153C77.7718 190.601 76.373 191.134 74.7852 192.01M73.018 193.063C69.7965 195.085 68.1503 196.688 66.0235 199.841C64.5772 201.985 61.2754 205.814 63.7899 208.533C64.9514 209.605 68.0402 208.962 71.3077 205.266C71.5366 205.041 71.7889 204.797 72.0607 204.54C72.4854 204.137 72.9579 203.7 73.4647 203.245M73.018 193.063C73.6555 192.663 74.2318 192.316 74.7852 192.01M145.21 145.187C144.634 146.683 144.068 147.869 143.575 148.697C143.575 148.697 142.997 149.972 142.039 151.084M145.21 145.187C146.789 141.087 148.446 134.659 148.885 126.897L149.558 122.223C149.56 122.208 149.563 122.193 149.565 122.178C149.633 121.757 150.675 115.423 152.586 110.661C156.897 99.9272 161.955 101.306 161.955 101.306C163.274 101.382 166.984 102.781 171.273 107.764M145.21 145.187C145.624 146.744 146.166 148.821 146.739 151.084M149.932 165.456C149.61 162.74 148.178 156.762 146.739 151.084M149.932 165.456C150.206 167.779 150.894 167.6 153.927 167.498M149.932 165.456C156.05 158.997 173.123 146.821 190.737 150.382C191.01 150.47 191.243 150.574 191.439 150.694M142.039 151.084C142.039 151.084 143.463 151.892 144.456 151.875C145.4 151.859 146.739 151.084 146.739 151.084M41.1854 69.3703C38.5876 68.819 36.4479 69.0026 36.1693 71.0303C35.9694 72.4853 36.805 74.9513 41.1854 77.2589C41.7877 77.5762 42.4619 77.8425 43.141 78.1058M41.1854 69.3703L43.8148 63.972M41.1854 69.3703C41.941 69.5306 42.7354 69.7531 43.534 70.0105M43.8148 63.972C46.9461 65.1888 53.1961 67.916 55.0851 69.7284L53.1961 74.6795M53.1961 74.6795C52.5782 74.2064 51.8909 73.7357 51.1283 73.2781M153.927 167.498L153.403 164.728C155.871 162.158 163.078 157.096 174.119 155.143C178.088 154.624 183.786 153.644 186.512 154.441L187.495 158.742M153.927 167.498C154.368 169.463 155.689 174.313 156.638 176.343M156.645 176.359C156.643 176.354 156.641 176.349 156.638 176.343M164.406 173.892C164.406 173.892 160.612 175.012 156.638 176.343M131.276 187.767C131.276 187.767 131.3 187.754 131.346 187.728M44.8231 66.7162L43.534 70.0105M43.534 70.0105C44.2756 70.2495 45.0208 70.5186 45.7421 70.7958M46.8653 67.6224L45.7421 70.7958M45.7421 70.7958C45.9441 70.8735 46.1443 70.9518 46.342 71.0303C47.0578 71.2889 47.7336 71.5624 48.3714 71.8474M49.4308 68.8094L48.3714 71.8474M48.3714 71.8474C49.3839 72.2999 50.3005 72.7813 51.1283 73.2781M52.1239 70.341L51.1283 73.2781M83.765 196.446C81.3049 196.689 76.6912 200.344 73.4647 203.245M71.7161 210.473C72.3541 212.206 74.9581 213.281 74.9581 213.281M71.7161 210.473C71.0781 208.74 71.2285 205.968 73.4647 203.245M74.9581 213.281C74.9581 213.281 74.7942 215.578 75.6345 216.957C76.5779 218.505 79.2084 219.969 79.2084 219.969M74.9581 213.281C75.8303 211.486 79.4381 206.889 86.8921 202.866M79.2084 219.969C79.604 218.493 80.74 215.821 85.3221 213.23L91.8827 209.873M79.2084 219.969C79.258 221.246 79.8248 223.335 81.7554 223.849M81.7554 223.849C82.1474 223.954 82.6085 223.923 83.1274 223.836C83.57 223.763 83.9978 223.618 84.3899 223.4C87.6713 221.576 92.1922 217.112 97.154 217.672C100.537 218.053 103.509 218.316 105.983 218.299M81.7554 223.849C80.4256 226.534 78.2102 233.001 79.9869 237.392C81.7636 241.782 87.6962 253.772 90.4404 259.217C90.8751 260.08 91.4679 261.1 92.2682 262.038M111.437 226.811L122.47 245.943C125.074 249.915 121.934 252.734 119.216 254.393C118.639 254.733 118.085 255.06 117.55 255.376M111.437 226.811C112.994 225.156 116.159 221.743 116.363 221.335H134.934C136.875 221.335 140.188 220.636 140.116 217.48C142.989 217.371 148.225 216.95 154.361 216.041M111.437 226.811L105.983 218.299M187.495 158.742C189.646 157.333 194.161 152.353 191.439 150.694M187.495 158.742L189.907 171.621C191.35 181.206 194.094 193.868 184.062 200.773C180.182 203.443 173.493 205.698 169.792 206.874M171.273 107.764C173.766 110.661 178.79 118.097 182.926 128.645L191.439 150.694M136.377 214.749C135.279 218.399 120.116 217.229 113.058 216.319C111.735 217.747 109.307 218.276 105.983 218.299M136.377 214.749L136.381 214.737M136.377 214.749C136.378 214.745 136.379 214.741 136.381 214.737M169.792 206.874C169.792 206.874 170.767 208.741 172.207 212.222M169.792 206.874C156.288 211.162 144.319 212.013 137.141 212.222M172.207 212.222C174.006 216.57 176.532 223.435 178.79 232.324C181.605 243.401 183.207 262.038 183.207 262.038H119.216M172.207 212.222C166.249 213.986 159.934 215.215 154.361 216.041M100.09 224.679C95.3416 227.104 88.0638 231.248 85.3221 233.626C84.4395 234.392 84.0152 235.967 85.4753 239.051C87.7685 244.029 91.8827 252.175 93.9631 255.2C95.5939 257.571 96.1457 259.888 98.8899 258.286C100.166 257.54 110.39 251.942 115.342 249.236C117.972 247.666 116.938 246.173 116.044 244.743L104.723 226.223C103.048 223.167 102.179 223.611 100.164 224.641M100.09 224.679L100.164 224.641M100.09 224.679C100.115 224.666 100.14 224.654 100.164 224.641M92.2682 262.038C94.0846 264.168 96.9703 265.881 101.506 264.4C103.151 263.555 104.611 262.785 105.987 262.038M105.987 262.038H119.216M105.987 262.038C109.564 260.097 112.576 258.317 116.806 255.816M154.361 216.041C154.361 216.041 156.958 223.206 160.066 226.811C167.482 235.413 172.207 236.83 172.207 236.83M117.55 255.376C118.105 256.252 119.216 258.812 119.216 262.038M117.55 255.376L116.808 255.815M117.55 255.376C117.299 255.525 117.051 255.671 116.808 255.815M137.141 212.222C137.52 210.785 137.91 208.93 138.074 206.874C138.809 197.858 134.615 191.302 131.795 188.264C131.637 188.064 131.488 187.885 131.346 187.728M137.141 212.222C136.842 213.358 136.55 214.233 136.381 214.737M80.1144 190.105C83.3179 189.447 84.9491 189.551 87.977 190.153C93.4909 191.251 100.996 194.71 100.996 194.71C102.332 195.335 105.068 196.254 108.399 194.71L127.366 187.384C129.07 186.73 129.824 186.044 131.346 187.728M142.058 182.308C145.564 180.674 149.314 179.007 152.306 177.875C153.65 177.366 155.156 176.84 156.638 176.343M142.058 182.308C136.703 184.805 131.974 187.384 131.346 187.728M116.811 138.455C117.418 131.196 125.601 117.713 128.463 113.201C131.08 109.076 136.463 99.0422 138.827 94.5409C139.138 94.0304 139.472 93.574 139.856 93.199M116.808 255.815L116.806 255.816M116.808 255.815C116.807 255.816 116.807 255.816 116.806 255.816M74.7852 192.01C75.0184 191.879 75.2436 191.757 75.4645 191.643M43.141 78.1058C43.1414 78.106 43.1417 78.1061 43.1421 78.1062M43.141 78.1058C43.1863 78.1234 43.2316 78.1409 43.2769 78.1584M43.141 78.1058L43.1421 78.1062M43.1421 78.1062C43.187 78.1236 43.2319 78.141 43.2769 78.1584M16.3219 104.19L13.9063 109.079L8.2425 120.54C7.17035 122.672 6.64705 124.533 9.19977 125.748L28.8941 133.776C31.651 134.757 32.4898 132.679 32.9657 131.441C36.0914 123.31 38.0767 117.76 40.0741 111.555C41.022 108.61 41.9725 105.518 43.049 101.931C44.1415 97.9999 43.1894 97.5474 42.0534 97.4383C35.2759 96.7873 27.4263 96.7235 22.9207 97.7446C19.4301 98.7182 17.9053 101.404 16.6102 103.685C16.5131 103.856 16.4172 104.025 16.3219 104.19Z" stroke="black" strokeWidth="0.424025" stroke-linecap="round"/>
<path d="M93.6568 48.209C92.3564 47.8031 91.273 49.1982 91.0658 50.5447C90.8674 51.8343 91.3628 53.3518 92.6613 53.4803C93.9182 53.6047 94.638 52.3397 94.8438 51.0935C95.0424 49.8917 94.8197 48.5719 93.6568 48.209Z" fill="black"/>
<path d="M110.773 52.1402C109.422 51.5762 108.13 52.9261 107.735 54.3355C107.36 55.6737 107.622 57.3998 108.986 57.6668C110.195 57.9036 110.992 56.8606 111.475 55.7267C112.034 54.4137 112.09 52.6901 110.773 52.1402Z" fill="black"/>
<path d="M93.6568 48.209C92.3564 47.8031 91.273 49.1982 91.0658 50.5447C90.8674 51.8343 91.3628 53.3518 92.6613 53.4803C93.9182 53.6047 94.638 52.3397 94.8438 51.0935C95.0424 49.8917 94.8197 48.5719 93.6568 48.209Z" stroke="black" strokeWidth="0.636037" stroke-linecap="round"/>
<path d="M110.773 52.1402C109.422 51.5762 108.13 52.9261 107.735 54.3355C107.36 55.6737 107.622 57.3998 108.986 57.6668C110.195 57.9036 110.992 56.8606 111.475 55.7267C112.034 54.4137 112.09 52.6901 110.773 52.1402Z" stroke="black" strokeWidth="0.636037" stroke-linecap="round"/>
<path d="M135.305 62.4277C135.305 62.4277 136.096 61.1412 137.028 60.3413M140.487 59.2495C140.487 59.2495 138.603 59.3694 137.589 59.9387C137.4 60.045 137.211 60.1837 137.028 60.3413M137.028 60.3413C137.028 60.3413 138.589 61.7532 138.827 62.9765C139.274 65.274 137.589 66.2185 137.589 66.2185" stroke="black" strokeWidth="0.636037" stroke-linecap="round"/>
<path d="M101.048 45.2861C100.821 47.905 100.915 50.2746 99.2488 52.8635C97.6213 55.3928 93.4187 55.4016 92.2433 58.1701C92.061 58.5994 91.9717 59.1513 91.9983 59.875C92.0067 61.4109 93.2079 64.2631 97.9458 63.385M89.9937 72.0898C89.9937 72.0898 93.6534 73.7447 96.1592 74.1575C98.7115 74.578 102.783 74.1575 102.783 74.1575M93.7848 75.9189C94.4145 76.4635 96.1282 77.4607 97.9458 77.0931" stroke="black" strokeWidth="0.636037" stroke-linecap="round"/>
<path d="M105.177 46.858C105.177 46.858 108.149 44.8099 111.573 45.438C115.553 46.1682 118.216 48.7647 118.216 48.7647" stroke="black" strokeWidth="2.33214" stroke-linecap="round"/>
<path d="M91.3607 40.9673C96.6006 40.0141 98.2517 44.7754 98.2517 44.7754" stroke="black" strokeWidth="2.33214" stroke-linecap="round"/>
</svg>
