<svg width="192" height="142" viewBox="0 0 192 142" fill="none" xmlns="http://www.w3.org/2000/svg">
<path fillRule="evenodd" clipRule="evenodd" d="M80.9949 33.1043C81.4744 33.5037 82.1608 33.8397 83.1082 34.0666C82.8872 35.317 83.2465 38.3784 86.7978 40.8093C86.8161 40.6642 86.8375 40.5233 86.8615 40.3867C87.3723 37.4754 89.0853 36.4798 89.0853 36.4798C90.4358 35.5503 92.9867 34.5041 95.7127 37.6803L95.3748 50.0097L95.3501 50.9101C95.2292 54.5531 96.1129 61.9271 101.752 66.2406C106.131 69.5896 114.417 74.1148 126.686 69.7257C126.786 69.69 126.886 69.6537 126.987 69.6169C127.799 69.2395 128.563 68.814 129.275 68.3354C133.184 65.7058 135.502 61.4705 135.502 54.774C135.637 52.3931 135 48.5884 134.664 46.9836C134.469 45.7752 134.252 43.9253 134.054 41.9735C134.054 47.4647 133.038 49.4648 132.296 50.0263C132.118 50.1607 131.894 50.0404 131.812 49.8334C131.167 48.2051 130.645 47.8478 130.213 47.7089C127.162 46.7286 121.072 46.8836 116.945 46.8836C112.894 47.0737 111.856 48.6718 110.593 50.1723C108.242 52.4731 105.779 51.6096 103.878 50.3974C100.647 48.3366 100.819 39.8644 101.265 36.0797C103.109 34.4218 102.365 32.91 101.569 32.1638C101.425 32.0292 101.414 31.7905 101.558 31.6558C102.136 31.115 103.366 29.8074 103.366 28.4769C103.366 26.738 101.265 25.1762 101.265 25.1762C95.4404 26.2066 90.2324 27.5138 86.8845 28.8272C82.9831 30.3577 81.3325 32.3163 80.9949 33.1043ZM127.587 51.2227C124.676 52.5432 119.617 51.7729 117.421 51.2227C115.224 50.6725 112.569 51.1977 112.919 55.8994C113.032 57.4125 114.574 60.4818 119.736 59.7598C120.082 59.7115 120.405 59.5694 120.693 59.3719C121.397 58.8891 122.167 58.483 123.176 59.1087C123.668 59.4139 124.197 59.713 124.773 59.6556C127.905 59.3432 129.08 56.5185 129.275 55.0241C129.625 51.4103 128.387 50.8597 127.587 51.2227Z" fill="black"/>
<path d="M110.618 19.8114C93.4919 22.0222 85.384 26.2137 81.7201 28.202C80.4787 28.8756 79.0689 31.5005 80.9949 33.1043C81.3325 32.3163 82.9831 30.3577 86.8845 28.8272C90.2324 27.5138 95.4404 26.2066 101.265 25.1762C106.861 24.1861 113.027 23.4515 118.659 23.2125C122.523 23.0485 126.296 23.1301 129.638 23.2125C134.894 23.3422 138.915 23.716 140.701 25.0554C142.489 21.5666 138.228 20.3241 131.476 19.5488C131.476 19.5488 125.588 19.0291 118.659 19.2216C116.04 19.2943 113.273 19.4688 110.618 19.8114Z" fill="#FEBC23"/>
<path d="M131.476 19.5488C131.476 19.5488 129.516 13.5891 127.287 10.5954C120.884 0.69179 109.318 -0.134687 103.378 1.17947C102.897 1.28585 102.426 1.4011 101.965 1.525C105.612 1.45157 113.279 3.69057 117.171 13.6842C117.629 14.6873 118.321 16.9479 118.659 19.2216C125.588 19.0291 131.476 19.5488 131.476 19.5488Z" fill="#FEBC23"/>
<path d="M85.5965 14.6773C82.181 20.5795 81.7201 28.202 81.7201 28.202C85.384 26.2137 93.4919 22.0222 110.618 19.8114C113.273 19.4688 116.04 19.2943 118.659 19.2216C118.321 16.9479 117.629 14.6873 117.171 13.6842C113.279 3.69057 105.612 1.45157 101.965 1.525C94.5276 3.52254 89.5728 7.80618 85.5965 14.6773Z" fill="#FEBC23"/>
<path d="M140.701 25.0554C138.915 23.716 134.894 23.3422 129.638 23.2125C130.47 24.5188 131.491 25.8925 132.325 28.7067C134.742 28.1039 139.801 26.5297 140.701 25.0554Z" fill="black"/>
<path d="M95.1375 82.5841C88.265 76.772 88.6852 68.4289 89.6105 64.8776C88.9075 64.8776 88.2318 64.8739 87.5723 64.8719C86.72 64.8692 85.8945 64.8694 85.0714 64.8839C82.7455 74.031 79.4443 89.324 78.0938 102.066L120.861 104.68C124.943 93.0273 131.572 77.1103 137.866 70.7953C134.565 69.7105 131.568 68.8864 129.275 68.3354C128.563 68.814 127.799 69.2395 126.987 69.6169C126.886 69.6537 126.786 69.69 126.686 69.7257C127.324 70.4897 127.979 72.9631 125.499 76.7445C123.668 79.6655 120.609 82.2715 118.383 83.672C106.342 90.0243 98.4762 85.4076 95.1375 82.5841Z" fill="#AFD1FA"/>
<path d="M177.793 104.68C173.028 95.7639 167.051 88.3217 161.499 83.0968C157.493 79.3262 151.654 76.1894 145.806 73.7424C141.535 81.0697 135.422 95.2922 132.063 105.13C133.589 105.417 136.196 107.608 135.79 114.183C135.227 123.299 136.202 134.59 141.042 141.593C142.042 143.191 144.668 147.009 147.169 149.493C149.139 148.369 151.583 147.086 154.319 146.037L151.988 139.405C149.357 139.025 148.542 138.129 148.032 137.354C147.967 137.256 147.903 137.156 147.839 137.054C148.196 136.411 148.957 135.462 150.22 134.358C151.529 133.213 153.377 131.9 155.872 130.589C161.099 127.842 167.114 124.912 176.229 122.849C177.91 122.439 180.818 121.813 183.232 121.495C184.698 121.302 185.981 121.222 186.696 121.373L177.793 104.68Z" fill="#AFD1FA"/>
<path d="M118.659 23.2125C113.027 23.4515 106.861 24.1861 101.265 25.1762C101.265 25.1762 103.366 26.738 103.366 28.4769C103.366 29.8074 102.136 31.115 101.558 31.6558C101.414 31.7905 101.425 32.0292 101.569 32.1638C102.365 32.91 103.109 34.4218 101.265 36.0797C100.819 39.8644 100.647 48.3366 103.878 50.3974C105.779 51.6096 108.242 52.4731 110.593 50.1723C111.856 48.6718 112.894 47.0737 116.945 46.8836C121.072 46.8836 127.162 46.7286 130.213 47.7089C130.645 47.8478 131.167 48.2051 131.812 49.8334C131.894 50.0404 132.118 50.1607 132.296 50.0263C133.038 49.4648 134.054 47.4647 134.054 41.9735C133.788 39.3366 133.557 36.5139 133.464 34.8361C133.181 32.2132 132.781 30.2448 132.325 28.7067C131.491 25.8925 130.47 24.5188 129.638 23.2125C126.296 23.1301 122.523 23.0485 118.659 23.2125Z" fill="#B5602A"/>
<path d="M117.421 51.2227C119.617 51.7729 124.676 52.5432 127.587 51.2227C128.387 50.8597 129.625 51.4103 129.275 55.0241C129.08 56.5185 127.905 59.3432 124.773 59.6556C124.197 59.713 123.668 59.4139 123.176 59.1087C122.167 58.483 121.397 58.8891 120.693 59.3719C120.405 59.5694 120.082 59.7115 119.736 59.7598C114.574 60.4818 113.032 57.4125 112.919 55.8994C112.569 51.1977 115.224 50.6725 117.421 51.2227Z" fill="#B5602A"/>
<path d="M101.752 66.2406C96.1129 61.9271 95.2292 54.5531 95.3501 50.9101L95.3748 50.0097C94.4414 50.1109 93.5209 49.9457 92.7867 49.7186C92.7252 50.5588 92.6208 51.6484 92.4705 52.8733C92.3443 53.9009 92.1859 55.0238 91.9936 56.1745C91.8697 56.915 91.7319 57.6671 91.5794 58.4128C91.3218 59.6732 91.0227 60.9153 90.6799 62.0522C90.6784 62.0573 90.6769 62.0624 90.6753 62.0675C90.3583 63.1171 90.0039 64.0766 89.6105 64.8776C88.6852 68.4289 88.265 76.772 95.1375 82.5841C98.4762 85.4076 106.342 90.0243 118.383 83.672C120.609 82.2715 123.668 79.6655 125.499 76.7445C127.979 72.9631 127.324 70.4897 126.686 69.7257C114.417 74.1148 106.131 69.5896 101.752 66.2406Z" fill="#B5602A"/>
<path d="M89.0853 36.4798C89.0853 36.4798 87.3723 37.4754 86.8615 40.3867C86.8375 40.5233 86.8161 40.6642 86.7978 40.8093C86.7258 41.378 86.699 42.0128 86.7357 42.7196C86.8166 44.2805 87.5247 45.5878 88.3709 46.6085C89.7482 48.2699 91.4915 49.1719 91.4915 49.1719C91.7553 49.3271 92.2144 49.5416 92.7867 49.7186C93.5209 49.9457 94.4414 50.1109 95.3748 50.0097L95.7127 37.6803C92.9867 34.5041 90.4358 35.5503 89.0853 36.4798Z" fill="#B5602A"/>
<path d="M60.5625 41.0536C66.0895 42.2326 69.285 43.2028 70.8287 46.9836C71.4679 48.2937 72.5797 51.8446 72.4657 56.4246C73.0871 57.104 74.5043 57.7636 75.9084 56.9123C76.3311 56.656 76.641 56.4097 76.8684 56.1802C77.1008 55.9456 77.2469 55.7286 77.3387 55.5368C77.4937 55.2125 77.4937 54.9601 77.4937 54.8155V54.8138C77.1936 46.3822 74.5431 42.7707 73.1142 41.584C71.8416 40.5271 71.1395 40.3192 70.1159 40.0161C65.5673 38.668 61.166 40.0452 59.212 40.8056C59.653 40.8735 60.1051 40.9561 60.5625 41.0536Z" fill="#EFA800"/>
<path d="M37.0539 68.9416C39.3464 64.2858 44.9218 54.9715 51.7843 51.6603C53.9458 50.6174 55.7463 50.8154 57.2014 51.6979C58.3563 52.3982 59.2937 53.5296 60.0214 54.8138C60.4015 55.4848 60.7245 56.1975 60.9913 56.9123C61.3048 57.752 61.5408 58.5946 61.7012 59.3756C61.7185 59.4598 61.7349 59.5431 61.7504 59.6257C61.997 60.9387 65.5668 61.9616 66.5771 56.7497C67.3965 58.6866 69.4628 61.5532 71.6738 59.0868C72.1903 58.5106 72.4115 57.7372 72.4467 56.9641C72.4549 56.7828 72.4612 56.6029 72.4657 56.4246C72.5797 51.8446 71.4679 48.2937 70.8287 46.9836C69.285 43.2028 66.0895 42.2326 60.5625 41.0536C60.1051 40.9561 59.653 40.8735 59.212 40.8056C57.6875 40.5712 56.2937 40.5126 55.2605 40.6188C50.4188 41.5892 44.5983 46.3334 42.2933 48.5842C38.4669 52.3207 37.7667 53.2609 36.3536 54.1112L24.4868 60.8762C22.4861 62.0016 23.3823 63.7898 23.9867 64.2399L25.3495 63.2319C25.8437 62.8664 26.4119 62.5917 27.026 62.5643C31.2817 62.375 35.3437 66.5823 37.0539 68.9416Z" fill="#EFA800"/>
<path d="M37.0539 68.9416C35.3437 66.5823 31.2817 62.375 27.026 62.5643C26.4119 62.5917 25.8437 62.8664 25.3495 63.2319L23.9867 64.2399C19.2391 67.9954 11.2738 75.7441 5.83008 85.5852C0.690721 94.876 -5.26395 113.94 10.1817 123.074C13.2953 124.749 21.3232 127.188 29.9263 127.188C29.351 123.386 28.7634 119.46 28.2882 113.358C26.4626 95.0886 33.0525 77.2155 37.0539 68.9416Z" fill="#B5602A"/>
<path d="M123.485 113.508C118.015 111.753 120.372 106.093 120.372 106.093C120.53 105.629 120.694 105.158 120.861 104.68L78.0938 102.066C77.3013 109.544 74.6676 110.054 72.2917 109.932C67.8401 109.701 68.1005 105.742 68.3153 103.029C68.3511 102.576 68.3925 102.109 68.439 101.628C67.0098 102.112 62.8911 104.347 61.0876 113.358C60.909 114.25 60.7347 115.092 60.5676 115.894C60.5437 116.008 60.52 116.122 60.4965 116.235C60.1203 118.041 59.7842 119.654 59.5238 121.223C59.2191 123.06 59.018 124.838 58.9774 126.795C58.9681 127.246 58.9673 127.707 58.9757 128.18C59.0543 132.602 59.9387 138.116 62.1974 147.112L61.0294 148.763L60.307 149.783C59.9808 150.311 59.6678 150.828 59.3675 151.335C58.1303 153.422 57.1102 155.329 56.2788 157.023C55.6595 158.285 55.1448 159.428 54.7231 160.439C54.3107 161.428 53.9871 162.29 53.7414 163.013C53.4446 163.887 53.2614 164.557 53.1723 165.001C51.478 169.789 49.5977 182.058 47.8126 197.061C49.0979 196.725 50.4814 196.269 51.9718 195.675C57.6989 193.392 60.4874 189.473 69.3782 178.669C72.9545 174.005 73.7422 171.954 77.6436 165.314C80.5973 160.287 83.6861 154.767 87.2966 150.559C85.7655 150.559 81.7989 150.042 80.007 149.783C73.0295 148.521 71.3414 141.881 71.804 138.142L73.167 115.121L120.861 118.735L118.321 138.955C117.971 141.03 117.683 143.944 116.47 145.121C121.835 146.035 129.295 150.432 133.139 152.822C134.379 152.132 138.924 150.725 141.042 150.109C142.871 149.601 144.032 149.461 144.535 149.836C144.594 149.88 144.638 149.939 144.677 150.001C144.751 150.119 144.89 150.344 145.073 150.658C145.082 150.673 145.091 150.689 145.101 150.705C145.712 150.34 146.405 149.928 147.169 149.493C144.668 147.009 142.042 143.191 141.042 141.593C136.202 134.59 135.227 123.299 135.79 114.183C136.196 107.608 133.589 105.417 132.063 105.13C131.588 106.521 131.168 107.825 130.816 109.009C130.814 109.015 130.813 109.017 130.812 109.024C130.754 109.227 129.003 115.278 123.485 113.508Z" fill="#1E3A8A"/>
<path d="M148.009 180.695C147.394 181.495 145.912 181.007 145.106 180.695C141.713 179.607 134.507 177.406 133.426 177.356C131.269 178.729 125.495 180.586 118.13 175.546C117.663 175.227 117.116 175.039 116.551 175.045C116.18 175.048 115.771 175.056 115.345 175.072C115.141 179.13 114.437 185.234 112.756 192.411C111.076 199.589 107.867 209.455 109.468 218.696C109.949 221.472 109.993 223.96 114.057 228.8C114.595 229.587 115.149 229.888 114.057 231.363C112.776 233.094 111.581 232.084 111.143 231.363C108.38 227.862 108.264 227.037 107.242 224.936C102.6 215.392 106.328 201.315 108.605 193.924C109.794 190.065 110.942 183.329 111.507 178.669C111.491 178.664 111.475 178.659 111.457 178.653C110.804 178.443 109.338 177.942 108.192 177.331C104.291 175.25 104.599 172.563 105.241 171.479C105.241 171.479 102.067 170.648 101.39 168.99C100.603 167.065 102.028 164.901 102.028 164.901C97.4759 162.888 98.0427 159.383 98.8889 157.611C97.6484 156.931 96.8465 155.802 96.6005 155.323C95.1733 152.528 97.6996 150.595 99.3191 149.355L99.364 149.321C100.656 148.331 102.098 147.541 103.578 146.916C103.578 146.916 101.571 146.337 100.252 146.332C97.3504 146.322 93.9548 149.077 92.4384 150.456C92.3995 150.491 92.3619 150.525 92.3255 150.559C91.889 150.96 91.6362 151.221 91.6362 151.221C88.7477 154.531 83.2457 162.05 80.007 168.44C69.1906 187.71 59.7872 195.888 53.1723 198.889C51.1013 199.754 49.1747 200.352 47.3845 200.727C44.7275 223.89 42.3368 252.37 41.1679 270.052H90.6609C91.3811 267.391 98.0936 237.065 101.36 222.235C103.519 235.086 107.926 257.417 111.744 270.052H162.637L162.149 256.447V230.507C162.149 230.281 162.209 230.06 162.319 229.863C171.565 213.28 166.344 188.354 163.112 179.243C157.308 179.833 151.944 179.737 148.647 179.416C148.456 179.858 148.244 180.285 148.009 180.695Z" fill="#1E3A8A"/>
<path fillRule="evenodd" clipRule="evenodd" d="M145.806 73.7424C143.101 72.6106 140.394 71.6264 137.866 70.7953C131.572 77.1103 124.943 93.0273 120.861 104.68C120.694 105.158 120.53 105.629 120.372 106.093C120.372 106.093 118.015 111.753 123.485 113.508C129.003 115.278 130.754 109.227 130.812 109.024C130.813 109.017 130.814 109.015 130.816 109.009C131.168 107.825 131.588 106.521 132.063 105.13C135.422 95.2922 141.535 81.0697 145.806 73.7424ZM122.597 106.705C123.044 105.164 124.626 104.256 126.174 104.68C127.931 105.16 128.825 107.457 127.887 109.019C127.12 110.295 125.649 110.799 124.273 110.232C122.864 109.65 122.173 108.17 122.597 106.705Z" fill="#1E3A8A"/>
<path d="M145.073 150.658C144.89 150.344 144.751 150.119 144.677 150.001C144.638 149.939 144.594 149.88 144.535 149.836C144.032 149.461 142.871 149.601 141.042 150.109C138.924 150.725 134.379 152.132 133.139 152.822C129.295 150.432 121.835 146.035 116.47 145.121C115.747 144.998 114.477 144.791 113.907 144.844C112.438 144.815 110.346 144.99 108.067 145.498C106.609 145.824 105.074 146.285 103.578 146.916C102.098 147.541 100.656 148.331 99.364 149.321L99.3191 149.355C97.6996 150.595 95.1733 152.528 96.6005 155.323C96.8465 155.802 97.6484 156.931 98.8889 157.611C98.0427 159.383 97.4759 162.888 102.028 164.901C102.028 164.901 100.603 167.065 101.39 168.99C102.067 170.648 105.241 171.479 105.241 171.479C104.599 172.563 104.291 175.25 108.192 177.331C109.338 177.942 110.804 178.443 111.457 178.653C111.607 177.413 111.718 176.312 111.783 175.442C111.851 175.428 111.92 175.414 111.99 175.401C113.027 175.202 114.247 175.111 115.345 175.072C115.771 175.056 116.18 175.048 116.551 175.045C117.116 175.039 117.663 175.227 118.13 175.546C125.495 180.586 131.269 178.729 133.426 177.356C134.507 177.406 141.713 179.607 145.106 180.695C145.912 181.007 147.394 181.495 148.009 180.695C148.244 180.285 148.456 179.858 148.647 179.416C151.606 172.559 149.483 162.098 148.009 157.212C147.182 154.47 145.821 151.942 145.101 150.705L145.101 150.705C145.091 150.689 145.082 150.673 145.073 150.658Z" fill="#EFA800"/>
<path d="M115.345 175.072C114.247 175.111 113.027 175.202 111.99 175.401C111.92 175.414 111.851 175.428 111.783 175.442C111.718 176.312 111.607 177.413 111.457 178.653L111.507 178.669C110.942 183.329 109.794 190.065 108.605 193.924C106.328 201.315 102.6 215.392 107.242 224.936C108.264 227.037 108.38 227.862 111.143 231.363C111.581 232.084 112.776 233.094 114.057 231.363C115.149 229.888 114.595 229.587 114.057 228.8C109.993 223.96 109.949 221.472 109.468 218.696C107.867 209.455 111.076 199.589 112.756 192.411C114.437 185.234 115.141 179.13 115.345 175.072Z" fill="black"/>
<path d="M47.8126 197.061C47.7964 197.197 47.7802 197.334 47.764 197.47C47.637 198.543 47.5104 199.629 47.3845 200.727C49.1747 200.352 51.1013 199.754 53.1723 198.889C59.7872 195.888 69.1906 187.71 80.007 168.44C83.2457 162.05 88.7477 154.531 91.6362 151.221C91.6362 151.221 91.889 150.96 92.3255 150.559C92.3619 150.525 92.3995 150.491 92.4384 150.456C93.9548 149.077 97.3504 146.322 100.252 146.332C101.571 146.337 103.578 146.916 103.578 146.916C105.074 146.285 106.609 145.824 108.067 145.498C108.067 145.498 104.804 142.318 99.7767 142.643C94.1136 143.01 88.6666 149.047 88.4305 149.312C88.423 149.32 88.4186 149.325 88.4107 149.333C88.0313 149.726 87.6603 150.135 87.2966 150.559C83.6861 154.767 80.5973 160.287 77.6436 165.314C73.7422 171.954 72.9545 174.005 69.3782 178.669C60.4874 189.473 57.6989 193.392 51.9718 195.675C50.4814 196.269 49.0979 196.725 47.8126 197.061Z" fill="black"/>
<path d="M47.3845 200.727C47.5104 199.629 47.637 198.543 47.764 197.47C47.7802 197.334 47.7964 197.197 47.8126 197.061C38.2899 199.553 34.1552 195.485 31.8145 192.499C27.4129 186.884 28.3257 176.206 31.2018 167.94C33.5026 161.328 35.8588 151.672 36.7492 147.67C35.665 145.667 34.7275 143.64 33.9207 141.643C33.5521 145.882 32.2022 154.648 29.126 163.013C26.312 170.666 22.111 185.759 28.926 194.425C31.8935 198.198 37.6046 202.777 47.3845 200.727Z" fill="black"/>
<path d="M186.696 121.373C185.981 121.222 184.698 121.302 183.232 121.495C183.757 122.489 184.337 123.71 184.941 125.133C187.022 123.106 187.052 121.974 186.696 121.373Z" fill="black"/>
<path fillRule="evenodd" clipRule="evenodd" d="M150.22 134.358L154.319 146.037C151.583 147.086 149.139 148.369 147.169 149.493C146.405 149.928 145.712 150.34 145.101 150.705L145.101 150.705C145.821 151.942 147.182 154.47 148.009 157.212C149.483 162.098 151.606 172.559 148.647 179.416C151.944 179.737 157.308 179.833 163.112 179.243C170.24 178.519 178.092 176.733 183.807 172.967C193.186 167.202 191.748 153.747 190.86 145.845C189.379 137.258 187.013 130.011 184.941 125.133C184.337 123.71 183.757 122.489 183.232 121.495C180.818 121.813 177.91 122.439 176.229 122.849C167.114 124.912 161.099 127.842 155.872 130.589C153.377 131.9 151.529 133.213 150.22 134.358Z" fill="#B5602A"/>
<path d="M148.032 137.354C148.542 138.129 149.357 139.025 151.988 139.405L154.319 146.037L150.22 134.358C148.957 135.462 148.196 136.411 147.839 137.054C147.903 137.156 147.967 137.256 148.032 137.354Z" fill="black"/>
<path d="M120.861 118.735L73.167 115.121L71.804 138.142C71.3414 141.881 73.0295 148.521 80.007 149.783C81.7989 150.042 85.7655 150.559 87.2966 150.559C87.6603 150.135 88.0313 149.726 88.4107 149.333C88.4186 149.325 88.423 149.32 88.4305 149.312C88.6666 149.047 94.1136 143.01 99.7767 142.643C104.804 142.318 108.067 145.498 108.067 145.498C110.346 144.99 112.438 144.815 113.907 144.844C114.477 144.791 115.747 144.998 116.47 145.121C117.683 143.944 117.971 141.03 118.321 138.955L120.861 118.735Z" fill="#4766C0"/>
<path d="M73.5672 70.7298C77.4947 68.4938 77.6937 66.6575 77.2685 65.6779C76.8434 64.6984 75.1928 63.092 71.9916 64.5025C70.5494 66.2709 67.3149 70.6197 65.9144 73.8684C66.7647 73.6308 69.3281 73.1431 73.5672 70.7298Z" fill="#EFA800"/>
<path fillRule="evenodd" clipRule="evenodd" d="M85.0714 64.8839C82.6561 64.9267 80.261 65.0935 77.2685 65.6779C77.6623 66.5852 77.5206 68.2274 74.377 70.2414C72.4124 77.2545 69.3655 92.0658 68.439 101.628C68.3925 102.109 68.3511 102.576 68.3153 103.029C68.1005 105.742 67.8401 109.701 72.2917 109.932C74.6676 110.054 77.3013 109.544 78.0938 102.066C79.4443 89.324 82.7455 74.031 85.0714 64.8839ZM69.9284 103.029C70.2064 101.604 71.315 100.635 72.7669 100.628C74.4252 100.62 75.7412 102.072 75.6679 103.729C75.5979 105.313 74.3519 106.566 72.7669 106.568C70.9953 106.57 69.5891 104.768 69.9284 103.029Z" fill="#1E3A8A"/>
<path d="M68.439 101.628C69.3655 92.0658 72.4124 77.2545 74.377 70.2414C74.1266 70.4019 73.857 70.5648 73.5672 70.7298C69.3281 73.1431 66.7647 73.6308 65.9144 73.8684C59.2188 88.1433 58.0846 107.88 59.5238 121.223C59.7842 119.654 60.1203 118.041 60.4965 116.235L60.5676 115.894C60.7347 115.092 60.909 114.25 61.0876 113.358C62.8911 104.347 67.0098 102.112 68.439 101.628Z" fill="#AFD1FA"/>
<path d="M57.5577 86.4691C54.6534 97.0376 52.7459 111.737 55.1047 125.253L57.5577 124.244C55.0628 114.768 55.1273 97.4834 57.5577 86.4691Z" fill="#AFD1FA"/>
<path d="M51.7843 51.6603C44.9218 54.9715 39.3464 64.2858 37.0539 68.9416C33.0525 77.2155 26.4626 95.0886 28.2882 113.358C28.7634 119.46 29.351 123.386 29.9263 127.188C30.5156 131.081 31.7418 136.251 33.9207 141.643C34.7275 143.64 35.665 145.667 36.7492 147.67C40.379 154.378 45.6528 160.826 53.1723 165.001C53.2614 164.557 53.4446 163.887 53.7414 163.013C48.8676 159.467 44.0827 154.377 39.6549 146.357C30.3141 129.439 31.802 105.642 31.802 105.642C32.1806 91.2917 37.7906 60.4116 57.2014 51.6979C55.7463 50.8154 53.9458 50.6174 51.7843 51.6603Z" fill="black"/>
<path d="M31.802 105.642C31.802 105.642 30.3141 129.439 39.6549 146.357C44.0827 154.377 48.8676 159.467 53.7414 163.013C53.9871 162.29 54.3107 161.428 54.7231 160.439C52.4881 158.223 50.502 155.907 48.738 153.527C36.3381 136.797 34.9179 116.895 35.2157 106.093C36.1892 70.7953 52.1321 57.4705 60.0214 54.8138C59.2937 53.5296 58.3563 52.3982 57.2014 51.6979C37.7906 60.4116 32.1806 91.2917 31.802 105.642Z" fill="#494847"/>
<path d="M60.0214 54.8138C52.1321 57.4705 36.1892 70.7953 35.2157 106.093C34.9179 116.895 36.3381 136.797 48.738 153.527C50.502 155.907 52.4881 158.223 54.7231 160.439C55.1448 159.428 55.6595 158.285 56.2788 157.023C41.3813 142.653 38.7617 121.714 40.08 106.093C42.3183 79.5705 49.7134 62.0641 60.9913 56.9123C60.7245 56.1975 60.4015 55.4848 60.0214 54.8138Z" fill="black"/>
<path d="M60.9913 56.9123C49.7134 62.0641 42.3183 79.5705 40.08 106.093C38.7617 121.714 41.3813 142.653 56.2788 157.023C56.6853 156.195 57.137 155.316 57.637 154.389C46.3263 142.741 42.5791 120.17 43.7063 106.568C46.9644 67.2535 58.8618 62.6768 61.7012 59.3756C61.5408 58.5946 61.3048 57.752 60.9913 56.9123Z" fill="#494847"/>
<path d="M77.2685 65.6779C80.261 65.0935 82.6561 64.9267 85.0714 64.8839C85.8945 64.8694 86.72 64.8692 87.5723 64.8719C80.9949 60.9262 65.9144 58.8075 57.2014 77.0321C53.4172 84.9474 47.7828 102.021 50.7339 120.648C51.9119 128.083 55.1258 140.821 61.0294 148.763L62.1974 147.112C61.6507 145.448 60.4691 141.824 59.9071 140.004L55.9858 129.439C55.6432 128.06 55.3507 126.663 55.1047 125.253C52.7459 111.737 54.6534 97.0376 57.5577 86.4691C58.1378 83.8403 58.8526 81.5686 59.6996 79.8456C58.9592 81.7868 58.2316 84.0167 57.5577 86.4691C55.1273 97.4834 55.0628 114.768 57.5577 124.244C57.9626 125.782 58.435 127.114 58.9757 128.18C58.9673 127.707 58.9681 127.246 58.9774 126.795C59.018 124.838 59.2191 123.06 59.5238 121.223C58.0846 107.88 59.2188 88.1433 65.9144 73.8684C67.3149 70.6197 70.5494 66.2709 71.9916 64.5025C75.1928 63.092 76.8434 64.6984 77.2685 65.6779Z" fill="black"/>
<path d="M92.4705 52.8733C89.0263 49.8422 83.6984 48.3341 81.465 47.959C81.5332 48.9293 81.5361 50.1084 81.4183 51.4478C84.1455 52.0188 90.0786 53.7636 91.9936 56.1745C92.1859 55.0238 92.3443 53.9009 92.4705 52.8733Z" fill="#494847"/>
<path d="M81.4183 51.4478C81.411 51.5305 81.4032 51.6139 81.395 51.6979C81.2319 52.589 80.9789 53.2896 80.6734 53.8361C83.5354 54.3947 89.7234 56.092 91.5794 58.4128C91.7319 57.6671 91.8697 56.915 91.9936 56.1745C90.0786 53.7636 84.1455 52.0188 81.4183 51.4478Z" fill="black"/>
<path d="M92.7867 49.7186C92.2144 49.5416 91.7553 49.3271 91.4915 49.1719C91.4915 49.1719 89.7482 48.2699 88.3709 46.6085C86.8542 45.8833 83.5588 44.6547 80.6734 44.6547C80.7793 44.8601 80.8783 45.0736 80.9699 45.2955C81.1632 45.7265 81.3732 46.6538 81.465 47.959C83.6984 48.3341 89.0263 49.8422 92.4705 52.8733C92.6208 51.6484 92.7252 50.5588 92.7867 49.7186Z" fill="black"/>
<path d="M80.6734 53.8361C79.6862 55.6027 78.1516 55.7596 77.3387 55.5368C77.2469 55.7286 77.1008 55.9456 76.8684 56.1802C80.3739 56.4649 86.7593 57.7622 90.6799 62.0522C91.0227 60.9153 91.3218 59.6732 91.5794 58.4128C89.7234 56.092 83.5354 54.3947 80.6734 53.8361Z" fill="#494847"/>
<path d="M66.5771 56.7497C65.5668 61.9616 61.997 60.9387 61.7504 59.6257C61.7349 59.5431 61.7185 59.4598 61.7012 59.3756C58.8618 62.6768 46.9644 67.2535 43.7063 106.568C42.5791 120.17 46.3263 142.741 57.637 154.389C58.1597 153.421 58.7352 152.401 59.3675 151.335C52.1335 142.739 46.5449 127.87 46.5449 107.193C48.433 73.8684 62.6132 62.2309 69.6658 60.476C70.1826 60.5969 71.5205 60.6561 72.1407 59.6857C76.7799 58.4728 84.1571 59.1308 89.7596 64.5625C90.0939 63.8296 90.3988 62.9828 90.6753 62.0675C90.6769 62.0624 90.6784 62.0573 90.6799 62.0522C86.7593 57.7622 80.3739 56.4649 76.8684 56.1802C76.641 56.4097 76.3311 56.656 75.9084 56.9123C74.5043 57.7636 73.0871 57.104 72.4657 56.4246C72.4612 56.6029 72.4549 56.7828 72.4467 56.9641C72.4115 57.7372 72.1903 58.5106 71.6738 59.0868C69.4628 61.5532 67.3965 58.6866 66.5771 56.7497Z" fill="black"/>
<path d="M89.7596 64.5625C84.1571 59.1308 76.7799 58.4728 72.1407 59.6857C71.5205 60.6561 70.1826 60.5969 69.6658 60.476C62.6132 62.2309 48.433 73.8684 46.5449 107.193C46.5449 127.87 52.1335 142.739 59.3675 151.335C59.6678 150.828 59.9808 150.311 60.307 149.783L61.0294 148.763C55.1258 140.821 51.9119 128.083 50.7339 120.648C47.7828 102.021 53.4172 84.9474 57.2014 77.0321C65.9144 58.8075 80.9949 60.9262 87.5723 64.8719C88.2318 64.8739 88.9075 64.8776 89.6105 64.8776C89.6608 64.7751 89.7105 64.6701 89.7596 64.5625Z" fill="#494847"/>
<path d="M73.1142 41.584C74.5431 42.7707 77.1936 46.3822 77.4937 54.8138V54.8155C77.4937 54.9601 77.4937 55.2125 77.3387 55.5368C78.1516 55.7596 79.6862 55.6027 80.6734 53.8361C80.9789 53.2896 81.2319 52.589 81.395 51.6979C81.4032 51.6139 81.411 51.5305 81.4183 51.4478C81.5361 50.1084 81.5332 48.9293 81.465 47.959C81.3732 46.6538 81.1632 45.7265 80.9699 45.2955C80.8783 45.0736 80.7793 44.8601 80.6734 44.6547C78.4509 40.3472 73.1807 39.6485 70.1159 40.0161C71.1395 40.3192 71.8416 40.5271 73.1142 41.584Z" fill="#EFA800"/>
<path d="M126.174 104.68C124.626 104.256 123.044 105.164 122.597 106.705C122.173 108.17 122.864 109.65 124.273 110.232C125.649 110.799 127.12 110.295 127.887 109.019C128.825 107.457 127.931 105.16 126.174 104.68Z" fill="#979595"/>
<path d="M72.7669 100.628C71.315 100.635 70.2064 101.604 69.9284 103.029C69.5891 104.768 70.9953 106.57 72.7669 106.568C74.3519 106.566 75.5979 105.313 75.6679 103.729C75.7412 102.072 74.4252 100.62 72.7669 100.628Z" fill="#979595"/>
<path d="M81.7201 28.202C81.7201 28.202 82.181 20.5795 85.5966 14.6773C89.5728 7.80618 94.5276 3.52254 101.965 1.525M81.7201 28.202C85.384 26.2137 93.4919 22.0222 110.618 19.8114C113.273 19.4688 116.04 19.2943 118.659 19.2216M81.7201 28.202C80.4787 28.8756 79.0689 31.5005 80.9949 33.1043M131.476 19.5488C131.476 19.5488 129.516 13.5891 127.287 10.5954C120.884 0.69179 109.318 -0.134687 103.378 1.17947C102.897 1.28585 102.426 1.4011 101.965 1.525M131.476 19.5488C138.228 20.3241 142.489 21.5666 140.701 25.0554M131.476 19.5488C131.476 19.5488 125.588 19.0291 118.659 19.2216M140.701 25.0554C138.915 23.716 134.894 23.3422 129.638 23.2125M140.701 25.0554C139.801 26.5297 134.742 28.1039 132.325 28.7067M80.9949 33.1043C81.4744 33.5037 82.1608 33.8397 83.1082 34.0666C82.8872 35.317 83.2465 38.3784 86.7978 40.8093M80.9949 33.1043C81.3325 32.3163 82.9831 30.3577 86.8845 28.8272C90.2324 27.5138 95.4404 26.2066 101.265 25.1762M101.965 1.525C105.612 1.45157 113.279 3.69057 117.17 13.6842C117.629 14.6873 118.321 16.9479 118.659 19.2216M86.7978 40.8093C86.8161 40.6642 86.8375 40.5233 86.8614 40.3867M86.7978 40.8093C86.7258 41.378 86.699 42.0128 86.7357 42.7196M101.265 25.1762C106.861 24.1861 113.027 23.4515 118.659 23.2125C122.523 23.0485 126.296 23.1301 129.638 23.2125M101.265 25.1762C101.265 25.1762 103.365 26.738 103.365 28.4769C103.365 29.8074 102.136 31.115 101.558 31.6558C101.414 31.7905 101.425 32.0292 101.569 32.1638C102.365 32.91 103.109 34.4218 101.265 36.0797C100.819 39.8644 100.647 48.3366 103.878 50.3974C105.779 51.6096 108.242 52.4731 110.593 50.1723C111.856 48.6718 112.894 47.0737 116.945 46.8836C121.072 46.8836 127.162 46.7286 130.213 47.7089C130.645 47.8478 131.167 48.2051 131.812 49.8334C131.894 50.0404 132.118 50.1607 132.296 50.0263C133.038 49.4648 134.054 47.4647 134.054 41.9736M86.7357 42.7196C86.8166 44.2805 87.5247 45.5878 88.3709 46.6085M86.7357 42.7196C86.6897 41.8324 86.7436 41.0585 86.8614 40.3867M95.3748 50.0097L95.7127 37.6803C92.9867 34.5041 90.4358 35.5503 89.0853 36.4798C89.0853 36.4798 87.3723 37.4754 86.8614 40.3867M95.3748 50.0097L95.3501 50.9101C95.2292 54.5531 96.1129 61.9271 101.752 66.2406C106.131 69.5896 114.417 74.1148 126.686 69.7257M95.3748 50.0097C94.4414 50.1109 93.5209 49.9457 92.7867 49.7186M129.638 23.2125C130.47 24.5188 131.491 25.8925 132.325 28.7067M133.464 34.8361C133.626 37.7557 134.204 44.1426 134.664 46.9836M133.464 34.8361C133.181 32.2132 132.781 30.2448 132.325 28.7067M133.464 34.8361C133.557 36.5139 133.788 39.3366 134.054 41.9736M134.664 46.9836C135 48.5884 135.637 52.3931 135.502 54.774C135.502 61.4705 133.184 65.7058 129.275 68.3354M134.664 46.9836C134.469 45.7752 134.252 43.9253 134.054 41.9736M92.7867 49.7186C92.2144 49.5416 91.7553 49.3271 91.4915 49.1719C91.4915 49.1719 89.7482 48.2699 88.3709 46.6085M92.7867 49.7186C92.7252 50.5588 92.6208 51.6484 92.4705 52.8733M89.6105 64.8776C88.6852 68.4289 88.265 76.772 95.1375 82.5841C98.4762 85.4076 106.342 90.0243 118.383 83.672C120.609 82.2715 123.668 79.6655 125.499 76.7445C127.979 72.9631 127.324 70.4897 126.686 69.7257M89.6105 64.8776C88.9075 64.8776 88.2319 64.8739 87.5723 64.8719M89.6105 64.8776C90.0039 64.0766 90.3583 63.1171 90.6753 62.0675M89.6105 64.8776C89.6608 64.7751 89.7105 64.6701 89.7596 64.5625M129.275 68.3354C128.563 68.814 127.799 69.2395 126.987 69.6169C126.886 69.6537 126.786 69.69 126.686 69.7257M129.275 68.3354C131.568 68.8864 134.565 69.7105 137.866 70.7953M137.866 70.7953C140.394 71.6264 143.101 72.6106 145.806 73.7424M137.866 70.7953C131.572 77.1103 124.943 93.0273 120.861 104.68M145.806 73.7424C151.654 76.1894 157.493 79.3262 161.499 83.0968C167.051 88.3217 173.028 95.7639 177.793 104.68L186.696 121.373M145.806 73.7424C141.535 81.0697 135.422 95.2922 132.063 105.13M186.696 121.373C185.981 121.222 184.698 121.302 183.232 121.495M186.696 121.373C187.052 121.974 187.022 123.106 184.941 125.133M184.82 125.25C184.861 125.21 184.901 125.172 184.941 125.133M139.429 108.443C139.287 110.598 139.791 116.471 141.642 121.798C142.611 125.172 145.176 132.83 147.839 137.054M147.839 137.054C147.903 137.156 147.967 137.256 148.032 137.354C148.542 138.129 149.357 139.025 151.988 139.405L154.319 146.037M147.839 137.054C148.196 136.411 148.957 135.462 150.22 134.358M183.232 121.495C180.818 121.813 177.91 122.439 176.229 122.849C167.114 124.912 161.099 127.842 155.872 130.589C153.377 131.9 151.529 133.213 150.22 134.358M183.232 121.495C183.757 122.489 184.337 123.71 184.941 125.133M150.203 134.31L150.22 134.358M154.334 146.079L154.319 146.037M145.101 150.705C145.712 150.34 146.405 149.928 147.169 149.493M145.101 150.705L145.101 150.705M145.101 150.705C145.091 150.689 145.082 150.673 145.073 150.657M168.227 144.252C163.333 143.382 158.486 144.439 154.319 146.037M148.615 179.412C148.626 179.413 148.636 179.414 148.647 179.416M132.063 105.13C131.588 106.521 131.168 107.825 130.816 109.009C130.814 109.015 130.813 109.017 130.812 109.024C130.754 109.227 129.003 115.278 123.485 113.508C118.015 111.753 120.372 106.093 120.372 106.093C120.53 105.629 120.694 105.158 120.861 104.68M132.063 105.13C133.589 105.417 136.196 107.608 135.79 114.183C135.227 123.299 136.202 134.59 141.042 141.593C142.042 143.191 144.668 147.009 147.169 149.493M163.112 179.243C170.24 178.519 178.092 176.733 183.807 172.967C193.186 167.202 191.748 153.747 190.86 145.845C189.379 137.258 187.013 130.011 184.941 125.133M163.112 179.243C166.344 188.354 171.565 213.28 162.319 229.863C162.209 230.06 162.149 230.281 162.149 230.507V256.447L162.637 270.052H111.744C107.926 257.417 103.519 235.086 101.36 222.235M163.112 179.243C157.308 179.833 151.944 179.737 148.647 179.416M75.918 200.139C81.2807 204.027 90.8563 210.952 96.4755 214.967M101.36 222.235C101.092 220.638 100.858 219.188 100.665 217.921C100.075 217.528 98.5432 216.445 96.4755 214.967M101.36 222.235C98.0936 237.065 91.3811 267.391 90.6609 270.052H41.1679M41.1679 270.052C42.3368 252.37 44.7275 223.89 47.3845 200.727M41.1679 270.052C42.3922 251.531 44.9569 221.166 47.764 197.47M53.1723 165.001C45.6528 160.826 40.379 154.378 36.7492 147.67M53.1723 165.001C53.2614 164.557 53.4446 163.887 53.7414 163.013M53.1723 165.001C51.478 169.789 49.5977 182.058 47.8126 197.061M53.1723 165.001C51.4627 169.832 49.5635 182.281 47.764 197.47M93.2493 168.44C92.3365 180.332 91.3986 203.103 96.4755 214.967M133.139 152.822C134.379 152.132 138.924 150.725 141.042 150.109C142.871 149.601 144.032 149.461 144.535 149.836C144.594 149.88 144.638 149.939 144.677 150.001C144.751 150.119 144.89 150.344 145.073 150.657M133.139 152.822C134.11 154.377 136.112 158.197 136.352 161.038M133.139 152.822C129.295 150.432 121.835 146.035 116.47 145.121M81.1199 166.727C85.5048 167.177 95.6502 168.15 101.152 168.44M78.0938 102.066L120.861 104.68M78.0938 102.066C79.4443 89.324 82.7455 74.031 85.0714 64.8839M78.0938 102.066C77.3013 109.544 74.6676 110.054 72.2917 109.932C67.8401 109.701 68.1005 105.742 68.3153 103.029C68.3511 102.576 68.3925 102.109 68.439 101.628M116.47 145.121C115.747 144.998 114.477 144.791 113.907 144.844C112.438 144.815 110.346 144.99 108.067 145.498M116.47 145.121C117.683 143.944 117.971 141.03 118.321 138.955L120.861 118.735L73.167 115.121L71.804 138.142C71.3414 141.881 73.0295 148.521 80.007 149.783C81.7989 150.042 85.7655 150.559 87.2966 150.559M99.364 149.321C100.656 148.332 102.098 147.541 103.578 146.916M99.364 149.321L99.3191 149.355M99.364 149.321C99.3492 149.332 99.3342 149.344 99.3191 149.355M92.3255 150.559H97.8568M92.3255 150.559C91.889 150.96 91.6362 151.221 91.6362 151.221M92.3255 150.559C92.3619 150.525 92.3995 150.491 92.4384 150.456M98.8889 157.611C97.6484 156.931 96.8465 155.802 96.6005 155.323C95.1733 152.528 97.6996 150.595 99.3191 149.355M98.8889 157.611C98.0427 159.383 97.4759 162.888 102.028 164.901M98.8889 157.611C100.273 156.082 104.293 152.737 109.305 151.597M102.028 164.901C102.028 164.901 100.603 167.065 101.39 168.99C102.067 170.648 105.241 171.479 105.241 171.479M102.028 164.901C103.236 163.443 106.054 160.988 112.706 159.287M105.241 171.479C104.599 172.563 104.291 175.25 108.192 177.331C109.338 177.942 110.804 178.443 111.457 178.653M105.241 171.479C106.237 170.441 109.758 168.123 115.87 167.152M111.507 178.669C110.942 183.329 109.794 190.065 108.605 193.924M111.507 178.669C111.491 178.664 111.475 178.659 111.457 178.653M111.507 178.669L111.457 178.653M109.73 176.381C110.098 175.907 110.952 175.6 111.99 175.401M115.345 175.072C115.771 175.056 116.18 175.048 116.551 175.045C117.116 175.039 117.663 175.227 118.13 175.546C125.495 180.586 131.269 178.729 133.426 177.356C134.507 177.406 141.713 179.607 145.106 180.695C145.912 181.007 147.394 181.495 148.009 180.695C148.244 180.285 148.456 179.858 148.647 179.416M115.345 175.072C115.141 179.13 114.437 185.234 112.756 192.411C111.076 199.589 107.867 209.455 109.468 218.696C109.949 221.472 109.993 223.96 114.057 228.8C114.595 229.587 115.149 229.888 114.057 231.363C112.776 233.094 111.581 232.084 111.143 231.363C108.38 227.862 108.264 227.037 107.242 224.936C102.6 215.392 106.328 201.315 108.605 193.924M115.345 175.072C114.247 175.111 113.027 175.202 111.99 175.401M108.605 193.924C109.774 190.131 110.889 183.377 111.457 178.653M88.3709 46.6085C86.8542 45.8833 83.5588 44.6547 80.6734 44.6547M80.6734 44.6547C80.7793 44.8601 80.8784 45.0736 80.9699 45.2955M80.6734 44.6547C78.4509 40.3472 73.1807 39.6485 70.1159 40.0161M77.2685 65.6779C80.261 65.0935 82.6561 64.9267 85.0714 64.8839M77.2685 65.6779C77.6937 66.6575 77.4947 68.4938 73.5672 70.7298M77.2685 65.6779C76.8434 64.6984 75.1928 63.092 71.9916 64.5025C70.5494 66.2709 67.3149 70.6197 65.9144 73.8684M77.2685 65.6779C77.6623 66.5852 77.5206 68.2274 74.377 70.2414M147.169 149.493C149.139 148.369 151.583 147.086 154.319 146.037M85.0714 64.8839C85.8945 64.8694 86.72 64.8692 87.5723 64.8719M74.377 70.2414C72.4124 77.2545 69.3655 92.0658 68.439 101.628M74.377 70.2414C74.1266 70.4019 73.857 70.5648 73.5672 70.7298M68.439 101.628C67.0098 102.112 62.8911 104.347 61.0876 113.358C60.909 114.25 60.7347 115.092 60.5676 115.894M59.5445 121.413C59.5376 121.35 59.5307 121.287 59.5238 121.223M73.5672 70.7298C69.3281 73.1431 66.7647 73.6308 65.9144 73.8684M65.9144 73.8684C59.2188 88.1433 58.0846 107.88 59.5238 121.223M37.0539 68.9416C39.3464 64.2858 44.9218 54.9715 51.7843 51.6603C53.9458 50.6174 55.7463 50.8154 57.2014 51.6979M37.0539 68.9416C35.3437 66.5823 31.2817 62.375 27.026 62.5643C26.4119 62.5917 25.8437 62.8664 25.3495 63.2319L23.9867 64.2399M37.0539 68.9416C33.0525 77.2155 26.4626 95.0886 28.2882 113.358C28.7634 119.46 29.351 123.386 29.9263 127.188M23.9867 64.2399C23.3823 63.7898 22.4861 62.0016 24.4868 60.8762L36.3536 54.1112C37.7667 53.2609 38.4669 52.3207 42.2933 48.5842C44.5983 46.3334 50.4188 41.5892 55.2605 40.6188C56.2937 40.5126 57.6875 40.5712 59.212 40.8056M23.9867 64.2399C19.2391 67.9954 11.2738 75.7441 5.83008 85.5852C0.690721 94.876 -5.26395 113.94 10.1817 123.074C13.2953 124.749 21.3232 127.188 29.9263 127.188M66.5771 56.7497C65.5668 61.9616 61.997 60.9387 61.7504 59.6257C61.7349 59.5431 61.7185 59.4598 61.7012 59.3756M66.5771 56.7497C66.5771 54.1362 66.1353 52.9566 65.9144 52.2606C63.8136 45.6207 57.4738 44.6578 55.073 44.8954M66.5771 56.7497C67.3965 58.6866 69.4628 61.5531 71.6738 59.0868C72.1903 58.5106 72.4115 57.7372 72.4467 56.9641C72.4549 56.7828 72.4612 56.6029 72.4657 56.4246M29.9263 127.188C30.5156 131.081 31.7418 136.251 33.9207 141.643M59.212 40.8056C59.653 40.8735 60.1051 40.9561 60.5625 41.0536C66.0895 42.2326 69.285 43.2028 70.8287 46.9836C71.4679 48.2937 72.5797 51.8446 72.4657 56.4246M59.212 40.8056C61.166 40.0452 65.5673 38.668 70.1159 40.0161M77.4937 54.8138C77.1936 46.3822 74.5431 42.7707 73.1142 41.584C71.8416 40.5271 71.1395 40.3192 70.1159 40.0161M77.4937 54.8138V54.8155M77.4937 54.8138C77.4937 54.8144 77.4937 54.8149 77.4937 54.8155M72.4657 56.4246C73.0871 57.104 74.5043 57.7636 75.9084 56.9123C76.3311 56.656 76.641 56.4097 76.8684 56.1802M70.1159 40.0161C73.3268 39.631 78.9583 40.4162 80.9699 45.2955M70.1159 40.0161C70.1364 40.0222 70.0957 40.0101 70.1159 40.0161ZM80.9699 45.2955C81.1632 45.7265 81.3732 46.6538 81.465 47.959M77.3387 55.5368C78.1516 55.7596 79.6862 55.6027 80.6734 53.8361M77.3387 55.5368C77.2469 55.7286 77.1008 55.9456 76.8684 56.1802M77.3387 55.5368C77.4937 55.2125 77.4937 54.9601 77.4937 54.8155M81.465 47.959C83.6984 48.3341 89.0263 49.8422 92.4705 52.8733M81.465 47.959C81.5332 48.9293 81.5361 50.1084 81.4183 51.4478M92.4705 52.8733C92.3443 53.9009 92.1859 55.0238 91.9936 56.1745M81.4183 51.4478C81.411 51.5305 81.4032 51.6139 81.395 51.6979C81.2319 52.589 80.9789 53.2896 80.6734 53.8361M81.4183 51.4478C84.1455 52.0188 90.0786 53.7636 91.9936 56.1745M91.9936 56.1745C91.8697 56.915 91.7319 57.6671 91.5794 58.4128M80.6734 53.8361C83.5354 54.3947 89.7234 56.092 91.5794 58.4128M91.5794 58.4128C91.3218 59.6732 91.0227 60.9153 90.6799 62.0522M76.8684 56.1802C80.3739 56.4649 86.7593 57.7622 90.6799 62.0522M90.6707 62.0829C90.6638 62.0752 90.6695 62.0714 90.6753 62.0675M89.7596 64.5625C84.1571 59.1308 76.7799 58.4728 72.1407 59.6857C71.5205 60.6561 70.1826 60.5969 69.6658 60.476C62.6132 62.2309 48.433 73.8684 46.5449 107.193C46.5449 127.87 52.1335 142.739 59.3675 151.335M89.7596 64.5625C90.0939 63.8296 90.3988 62.9828 90.6753 62.0675M58.9757 128.18C59.0543 132.602 59.9387 138.116 62.1974 147.112M58.9757 128.18C58.9673 127.707 58.9681 127.246 58.9774 126.795M58.9757 128.18C58.435 127.114 57.9626 125.782 57.5577 124.244M57.2014 51.6979C37.7906 60.4116 32.1806 91.2917 31.802 105.642C31.802 105.642 30.3141 129.439 39.6549 146.357C44.0827 154.377 48.8676 159.467 53.7414 163.013M57.2014 51.6979C58.3563 52.3982 59.2937 53.5296 60.0213 54.8138M60.0213 54.8138C52.1321 57.4705 36.1892 70.7953 35.2157 106.093C34.9178 116.895 36.3381 136.797 48.738 153.527M60.0213 54.8138C60.4015 55.4848 60.7245 56.1975 60.9913 56.9123M33.9207 141.643C33.5521 145.882 32.2022 154.648 29.126 163.013C26.312 170.666 22.111 185.759 28.926 194.425C31.8935 198.198 37.6046 202.777 47.3845 200.727M33.9207 141.643C34.7275 143.64 35.665 145.667 36.7492 147.67M36.7492 147.67C35.8588 151.672 33.5026 161.328 31.2018 167.94C28.3257 176.206 27.4129 186.884 31.8145 192.499C34.1552 195.485 38.2899 199.553 47.8126 197.061M60.9913 56.9123C49.7134 62.0641 42.3183 79.5705 40.08 106.093C38.7616 121.714 41.3813 142.653 56.2788 157.023M60.9913 56.9123C61.3048 57.752 61.5408 58.5946 61.7012 59.3756M61.7012 59.3756C58.8618 62.6768 46.9643 67.2535 43.7063 106.568C42.5791 120.17 46.3263 142.741 57.637 154.389M87.5723 64.8719C80.9949 60.9262 65.9144 58.8075 57.2014 77.0321C53.4172 84.9474 47.7828 102.021 50.7339 120.648C51.9119 128.083 55.1258 140.821 61.0294 148.763M108.067 145.498C108.067 145.498 104.804 142.318 99.7767 142.643C94.1136 143.01 88.6666 149.047 88.4305 149.312C88.423 149.32 88.4186 149.325 88.4107 149.333C88.0313 149.726 87.6603 150.135 87.2966 150.559M108.067 145.498C106.609 145.824 105.074 146.285 103.578 146.916M103.578 146.916C103.578 146.916 101.571 146.337 100.252 146.332C97.3504 146.322 93.9548 149.077 92.4384 150.456M91.6362 151.221C88.7477 154.531 83.2457 162.05 80.007 168.44C69.1906 187.71 59.7872 195.888 53.1723 198.889C51.1013 199.754 49.1747 200.352 47.3845 200.727M91.6362 151.221C91.6362 151.221 91.9329 150.915 92.4384 150.456M87.2966 150.559C83.6861 154.767 80.5973 160.287 77.6436 165.314C73.7422 171.954 72.9545 174.005 69.3782 178.669C60.4874 189.473 57.6989 193.392 51.9718 195.675C50.4814 196.269 49.0979 196.725 47.8126 197.061M54.7516 160.467C52.505 158.242 50.5095 155.917 48.738 153.527M56.258 157.065C56.2328 157.041 56.3039 157.047 56.2788 157.023M59.3933 151.365C59.3847 151.355 59.3761 151.345 59.3675 151.335M61.0294 148.763L62.1974 147.112M61.0294 148.763L60.307 149.783M57.637 154.389C57.137 155.316 56.6853 156.195 56.2788 157.023M57.637 154.389C58.1597 153.421 58.7352 152.401 59.3675 151.335M60.307 149.783L62.1974 147.112M60.307 149.783C59.9808 150.311 59.6678 150.828 59.3675 151.335M53.7414 163.013C53.9871 162.29 54.3107 161.428 54.7231 160.439M62.1974 147.112C61.6507 145.448 60.4691 141.824 59.9071 140.004M62.1974 147.112C59.6969 137.153 58.8808 131.462 58.9774 126.795M154.319 146.037L150.22 134.358M89.0853 43.9694C89.0853 43.9694 89.4362 41.4185 90.6763 40.8093C91.5825 40.3642 93.2616 40.8093 93.2616 40.8093M148.647 179.416C151.606 172.559 149.483 162.098 148.009 157.212C147.182 154.47 145.821 151.942 145.101 150.705M47.8126 197.061C47.7964 197.197 47.7802 197.334 47.764 197.47M47.3845 200.727C47.5104 199.629 47.637 198.543 47.764 197.47M59.9071 140.004L55.9858 129.439C55.6432 128.06 55.3507 126.663 55.1047 125.253M59.9071 140.004C59.8764 139.904 59.8475 139.81 59.8207 139.722C59.852 139.823 59.8825 139.922 59.9122 140.017L59.9071 140.004ZM57.5577 86.4691C58.1378 83.8403 58.8526 81.5686 59.6996 79.8456C58.9592 81.7868 58.2316 84.0167 57.5577 86.4691ZM57.5577 86.4691C54.6534 97.0376 52.7459 111.737 55.1047 125.253M57.5577 86.4691C55.1273 97.4834 55.0628 114.768 57.5577 124.244M58.9774 126.795C59.018 124.838 59.2191 123.06 59.5238 121.223M60.4965 116.235C60.52 116.122 60.5437 116.008 60.5676 115.894M60.4965 116.235C60.1203 118.041 59.7842 119.654 59.5238 121.223M60.4965 116.235L60.5676 115.894M145.073 150.657C145.082 150.673 145.091 150.689 145.101 150.705M111.457 178.653C111.607 177.413 111.718 176.312 111.783 175.442C111.851 175.428 111.92 175.414 111.99 175.401M55.1047 125.253L57.5577 124.244M54.7231 160.439C52.4881 158.223 50.502 155.907 48.738 153.527M54.7231 160.439C55.1448 159.428 55.6595 158.285 56.2788 157.023M56.2788 157.023C57.1102 155.329 58.1303 153.422 59.3675 151.335M90.6799 62.0522C90.6784 62.0573 90.6769 62.0624 90.6753 62.0675M90.6799 62.0522C90.6869 62.0598 90.6811 62.0637 90.6753 62.0675M117.421 51.2227C119.617 51.7729 124.676 52.5432 127.587 51.2227C128.387 50.8597 129.625 51.4103 129.275 55.0241C129.08 56.5185 127.905 59.3432 124.773 59.6556C124.197 59.713 123.668 59.4139 123.176 59.1087C122.167 58.483 121.397 58.8891 120.693 59.3719C120.405 59.5694 120.082 59.7115 119.736 59.7598C114.574 60.4818 113.032 57.4125 112.919 55.8994C112.569 51.1977 115.224 50.6725 117.421 51.2227ZM126.174 104.68C124.626 104.256 123.044 105.164 122.597 106.705C122.173 108.17 122.864 109.65 124.273 110.232C125.649 110.799 127.12 110.295 127.887 109.019C128.825 107.457 127.931 105.16 126.174 104.68ZM72.7669 100.628C71.315 100.635 70.2064 101.604 69.9284 103.029C69.5891 104.768 70.9953 106.57 72.7669 106.568C74.3519 106.566 75.5979 105.313 75.6679 103.729C75.7412 102.072 74.4252 100.62 72.7669 100.628Z" stroke="black" strokeWidth="0.370611" stroke-linecap="round"/>
<path d="M123.457 39.4985C123.457 39.4985 127.391 41.2135 127.933 43.2373C128.476 45.2611 126.525 46.9937 126.525 46.9937M120.143 46.7761C120.118 46.4718 120.281 45.8008 121.131 45.5507" stroke="black" strokeWidth="0.555916" stroke-linecap="round"/>
<path d="M106.87 32.6295C106.87 32.6295 110.763 30.6959 113.447 30.6337C115.682 30.5818 119.056 31.7828 119.056 31.7828M125.104 32.0247C125.104 32.0247 127.175 30.5552 129.852 30.6337C131.081 30.6697 131.999 31.3443 131.999 31.3443" stroke="black" strokeWidth="2.03836" stroke-linecap="round"/>
<path d="M129.659 35.4342C128.582 35.4703 127.764 36.4629 127.871 37.535C127.981 38.6361 129.07 39.4768 130.147 39.2231C130.987 39.0253 131.494 38.3943 131.572 37.535C131.673 36.4299 130.768 35.397 129.659 35.4342Z" fill="black"/>
<path d="M113.878 35.4342C112.931 35.6532 112.415 36.5704 112.54 37.535C112.674 38.5637 113.571 39.4096 114.591 39.2231C115.44 39.0679 115.936 38.3941 116.017 37.535C116.125 36.3694 115.019 35.1706 113.878 35.4342Z" fill="black"/>
<path d="M129.659 35.4342C128.582 35.4703 127.764 36.4629 127.871 37.535C127.981 38.6361 129.07 39.4768 130.147 39.2231C130.987 39.0253 131.494 38.3943 131.572 37.535C131.673 36.4299 130.768 35.397 129.659 35.4342Z" stroke="black"/>
<path d="M113.878 35.4342C112.931 35.6532 112.415 36.5704 112.54 37.535C112.674 38.5637 113.571 39.4096 114.591 39.2231C115.44 39.0679 115.936 38.3941 116.017 37.535C116.125 36.3694 115.019 35.1706 113.878 35.4342Z" stroke="black"/>
<path d="M115.669 53.374C115.669 53.374 118.786 55.987 121.196 56.15C123.582 56.3115 126.998 54.1868 126.998 54.1868" stroke="black" strokeWidth="0.555916" stroke-linecap="round"/>
</svg>
