<svg width="1418" height="1928" viewBox="0 0 1418 1928" fill="none" xmlns="http://www.w3.org/2000/svg">
<path d="M986.578 316.159C993.616 287 993.616 277.951 991.605 252.814C987.546 202.081 933.812 145.888 899.893 116.068C772.409 78.8645 701.573 89.8261 643.707 116.068C557.235 155.281 527.071 200.308 496.906 249.797C432.555 355.373 433.56 406.653 433.56 445.072C459.521 444.001 484.563 472.007 488.365 476.448C488.61 476.734 489.053 476.662 489.225 476.327C513.215 429.385 540.084 380.555 551.133 348.537C551.178 348.405 551.272 348.301 551.397 348.241C636.642 307.055 720.852 221.889 758.13 138.641C758.244 138.386 758.522 138.263 758.782 138.366C812.585 159.615 924.621 215.296 958.424 260.858C981.55 292.028 986.578 316.159 986.578 316.159Z" fill="black"/>
<path d="M293.767 442.876C293.767 442.876 201.309 456.96 169.086 529.347C143.127 587.666 147.593 656.065 183.163 705.308C218.742 754.562 261.16 775.692 321.92 775.692C384.245 775.692 429.163 732.734 433.234 728.71C423.264 723.759 416.26 716.286 412.445 710.31C388.313 672.504 402.39 637.985 412.445 625.452C391.164 608.43 371.763 589.672 368.204 543.399C365.944 514.029 375.915 482.41 396.213 462.96C383.764 426.763 362.171 347.329 396.213 261.863C433.56 170.364 518.021 83.8919 630.636 52.7219C659.959 44.6056 715.544 39.0389 786.486 54.1001C812.629 59.6502 861.443 83.9588 884.77 100.851C877.639 93.9559 869.169 87.4056 859.886 81.1985C853.204 76.7302 846.1 72.4397 838.771 68.3266C830.258 63.5488 821.441 59.0103 812.629 54.7102C788.328 42.8531 764.057 32.8092 746.266 24.5618C640.891 -17.2664 553.213 9.10059 503.944 24.5618C434.767 46.2803 368.245 118.633 348.853 144.215C300.836 207.56 283.419 250.796 277.71 318.164C272.682 377.488 293.767 442.876 293.767 442.876Z" fill="black"/>
<path d="M396.213 462.96C404.836 454.698 415.323 448.632 427.527 445.867C429.538 445.412 431.552 445.155 433.56 445.072C433.56 406.653 432.555 355.373 496.906 249.797C527.071 200.308 557.235 155.281 643.707 116.068C701.573 89.8261 772.409 78.8645 899.893 116.068C897.878 114.296 895.933 112.618 894.073 111.04C891.321 107.564 888.201 104.167 884.77 100.851C861.443 83.9588 812.629 59.6502 786.486 54.1001C715.544 39.0389 659.959 44.6056 630.636 52.7219C518.021 83.8919 433.56 170.364 396.213 261.863C362.171 347.329 383.764 426.763 396.213 462.96Z" fill="#AFD1FA"/>
<path fill-rule="evenodd" clip-rule="evenodd" d="M721.326 1010.95C721.185 1012 721.043 1013.05 720.9 1014.09C720.754 1015.15 720.607 1016.2 720.459 1017.25C716.07 1048.35 710.856 1073.72 706.084 1086.36C650.782 1188.92 556.266 1308.57 499.959 1375.94L483.304 1398.06C470.965 1395.41 459.094 1393.54 447.674 1392.37C442.292 1391.81 437.01 1391.41 431.827 1391.16C429.606 1391.05 427.404 1390.97 425.219 1390.91C315.958 1388.11 251.491 1450.6 214.401 1494.59C206.483 1503.98 196.563 1521.26 206.062 1535.14C206.064 1535.14 206.066 1535.14 206.067 1535.15C206.454 1535.71 206.873 1536.27 207.325 1536.82C169.518 1555.32 131.281 1616.25 117.874 1643.4C29.3914 1511.68 4.58822 1342.76 2.23218 1258.3C-1.71015 1116.97 55.531 1057.24 98.6231 1012.28C99.3723 1011.5 100.117 1010.72 100.858 1009.94" fill="black"/>
<path d="M432.328 857.687C327.788 888.912 171.13 936.544 100.858 1009.94C100.117 1010.72 99.3723 1011.5 98.6231 1012.28C55.531 1057.24 -1.71015 1116.97 2.23218 1258.3C4.58822 1342.76 29.3914 1511.68 117.874 1643.4C131.281 1616.25 169.518 1555.32 207.325 1536.82C206.873 1536.27 206.454 1535.71 206.067 1535.15L206.062 1535.14C196.563 1521.26 206.483 1503.98 214.401 1494.59C251.491 1450.6 315.958 1388.11 425.219 1390.91C427.404 1390.97 429.606 1391.05 431.827 1391.16C437.01 1391.41 442.292 1391.81 447.674 1392.37C459.094 1393.54 470.965 1395.41 483.304 1398.06L499.959 1375.94C556.266 1308.57 650.782 1188.92 706.084 1086.36C710.856 1073.72 716.07 1048.35 720.459 1017.25C720.607 1016.2 720.754 1015.15 720.9 1014.09C721.043 1013.05 721.185 1012 721.326 1010.95C633.848 1029.05 566.398 993.584 532.211 973.747C449.034 925.484 432.328 857.687 432.328 857.687Z" fill="#1E3A8A"/>
<path d="M207.325 1536.82C169.518 1555.32 131.281 1616.25 117.874 1643.4C124.355 1656.36 133.218 1672.23 144.298 1689.65C180.783 1747.02 241.309 1821.18 319.977 1863.6C319.977 1863.6 383.457 1907.07 450.69 1902.82C530.124 1897.79 584.42 1849.53 584.42 1849.53C617.105 1821.08 646.147 1788.62 676.151 1742.94C695.989 1712.74 716.248 1676.76 738.259 1632.34C749.576 1607.48 761.852 1578.59 774.426 1547.88C824.416 1425.8 876.114 1282.06 894.11 1242.21C898.368 1232.28 905.298 1220.34 908.689 1214.87C909.022 1214.33 909.431 1213.87 909.928 1213.48C925.743 1201.03 961.426 1170.6 983.598 1143.67C1006.12 1116.33 1043.26 1053.18 1059.01 1025.03C1082.14 984.808 1059.01 943.583 1039.68 943.583C1049.16 914.337 1019.78 888.365 1003.88 880.237C1016.83 849.715 986.352 824.864 968.516 815.886C1004.68 775.667 1034.88 713.326 1039.91 693.217C1039.91 693.217 1048.95 668.08 1031.86 656.014C1009.79 640.433 986.614 668.08 986.614 668.08L900.143 773.081L830.467 857.687L806.444 886.858C808.455 842.472 802.303 809.566 792.203 790.749C781.837 771.435 768.568 760.653 757.364 756.562C706.687 738.061 697.034 767.623 704.073 778.683C714.128 804.826 729.121 827.952 730.215 857.687C731.967 905.309 727.64 963.895 721.326 1010.95C721.185 1012 721.043 1013.05 720.9 1014.09C720.754 1015.15 720.607 1016.2 720.459 1017.25C716.07 1048.35 710.856 1073.72 706.084 1086.36C650.782 1188.92 556.266 1308.57 499.959 1375.94L483.304 1398.06L444.657 1449.39L396.246 1513.69L303.889 1636.36C264.675 1648.43 254.521 1611.23 259.648 1604.19C212.993 1601.77 221.461 1567.99 229.483 1557.93C231.957 1554.83 234.437 1551.82 236.921 1548.89C226.456 1551.89 215.739 1543.86 211.384 1540.84C209.805 1539.55 208.46 1538.21 207.326 1536.82L207.325 1536.82Z" fill="#B5602A"/>
<path d="M450.69 1902.82C383.457 1907.07 319.977 1863.6 319.977 1863.6C241.309 1821.18 180.783 1747.02 144.298 1689.65C131.515 1764.12 110.986 1901.81 105.864 1927.67C105.832 1927.84 105.962 1927.95 106.127 1927.95H1158.23C1158.4 1927.95 1158.52 1927.8 1158.49 1927.64L1152.52 1898.98C1146.9 1898.39 1141.26 1897.74 1135.61 1897.03C949.481 1873.54 750.547 1783.79 676.151 1742.94C646.147 1788.62 617.105 1821.08 584.42 1849.53C584.42 1849.53 530.124 1897.79 450.69 1902.82Z" fill="#1E3A8A"/>
<path d="M451.659 594.679C447.044 599.55 445.626 608.43 445.626 608.43C457.022 612.451 469.82 625.452 472.774 670.091C472.774 695.228 448.442 703.875 435.571 690.2C422.701 676.526 428.047 648.975 432.328 636.909C426.399 634.876 419.75 631.294 412.445 625.452C402.39 637.985 388.313 672.504 412.445 710.31C416.26 716.286 423.264 723.759 433.234 728.71C441.66 732.895 452.204 735.278 464.73 733.436C466.93 733.067 469.696 732.373 472.774 731.235C474.066 730.757 475.413 730.202 476.796 729.559C487.077 724.782 499.348 715.206 505.849 697.239C522.377 651.557 500.049 601.056 477.91 588.522C474.686 586.697 470.868 586.502 467.262 587.349C462.354 588.502 455.391 590.74 451.659 594.679Z" fill="#FEBC23"/>
<path d="M774.426 1547.88C761.852 1578.59 749.576 1607.48 738.259 1632.34C716.248 1676.76 695.989 1712.74 676.151 1742.94C750.547 1783.79 949.481 1873.54 1135.61 1897.03C1141.26 1897.74 1146.9 1898.39 1152.52 1898.98C1159.25 1899.68 1165.95 1900.29 1172.63 1900.81C1192.74 1902.7 1240 1900.38 1261.11 1898.98C1401.74 1878.85 1409.22 1785.69 1413.83 1728.25L1413.95 1726.86C1421.22 1636.46 1412.66 1552.77 1399.07 1480.51C1399.07 1480.51 1363.67 1463.32 1283.23 1466.44C1209.83 1469.28 1158.22 1493.58 1158.22 1493.58C1156.07 1526.49 1150.12 1557.58 1137.84 1584.4C1136.89 1584.31 1135.95 1584.22 1134.99 1584.14C1114.54 1582.3 1091.34 1580.64 1065.04 1579.05C985.408 1574.22 838.117 1556.26 774.426 1547.88Z" fill="#B5602A"/>
<path d="M894.11 1242.21C876.114 1282.06 824.416 1425.8 774.426 1547.88C838.117 1556.26 985.408 1574.22 1065.04 1579.05C1091.34 1580.64 1114.54 1582.3 1134.99 1584.14C1135.95 1584.22 1136.89 1584.31 1137.84 1584.4C1150.12 1557.58 1156.07 1526.49 1158.22 1493.58C1158.22 1493.58 1209.83 1469.28 1283.23 1466.44C1363.67 1463.32 1399.07 1480.51 1399.07 1480.51C1386.37 1412.92 1369.27 1355.33 1356.63 1311.59C1332.5 1206.01 1283.08 1096.03 1253.92 1055.81C1180.52 940.177 1061.39 899.096 1013.13 886.024C1028.83 897.503 1047.51 919.426 1039.68 943.583C1059.01 943.583 1082.14 984.808 1059.01 1025.03C1043.26 1053.18 1006.12 1116.33 983.598 1143.67C961.426 1170.6 925.743 1201.03 909.928 1213.48C909.431 1213.87 909.022 1214.33 908.689 1214.87C905.298 1220.34 898.368 1232.28 894.11 1242.21Z" fill="#1E3A8A"/>
<path d="M444.657 1449.39L483.304 1398.06C470.965 1395.41 459.094 1393.54 447.674 1392.37C442.292 1391.81 437.01 1391.41 431.827 1391.16C429.606 1391.05 427.404 1390.97 425.219 1390.91C315.958 1388.11 251.491 1450.6 214.401 1494.59C206.483 1503.98 196.563 1521.26 206.062 1535.14L206.067 1535.15C206.454 1535.71 206.873 1536.27 207.325 1536.82L207.326 1536.82C208.46 1538.21 209.805 1539.55 211.384 1540.84C215.739 1543.86 226.456 1551.89 236.921 1548.89C310.15 1462.51 387.28 1449.39 444.657 1449.39Z" fill="#B5602A"/>
<path d="M259.648 1604.19C280.763 1575.2 339.081 1517.72 396.246 1513.69L444.657 1449.39C387.28 1449.39 310.15 1462.51 236.921 1548.89C234.437 1551.82 231.957 1554.83 229.483 1557.93C221.461 1567.99 212.993 1601.77 259.648 1604.19Z" fill="#B5602A"/>
<path d="M396.246 1513.69C339.081 1517.72 280.763 1575.2 259.648 1604.19C254.521 1611.23 264.675 1648.43 303.889 1636.36L396.246 1513.69Z" fill="#B5602A"/>
<path d="M758.782 138.366C758.522 138.263 758.244 138.386 758.13 138.641C720.852 221.889 636.642 307.055 551.397 348.241C551.272 348.301 551.178 348.405 551.133 348.537C540.084 380.555 513.215 429.385 489.225 476.327C489.053 476.662 488.61 476.734 488.365 476.448C484.563 472.007 459.521 444.001 433.56 445.072C431.552 445.155 429.538 445.412 427.527 445.867C415.323 448.632 404.836 454.698 396.213 462.96C375.915 482.41 365.944 514.029 368.204 543.399C371.763 589.672 391.164 608.43 412.445 625.452C419.75 631.294 426.399 634.876 432.328 636.909C453.33 644.112 465.677 631.443 465.677 631.443C460.22 616.808 452.656 610.911 445.626 608.43C445.626 608.43 447.044 599.55 451.659 594.679C455.391 590.74 462.354 588.502 467.262 587.349C470.868 586.502 474.686 586.697 477.91 588.522C500.049 601.056 522.377 651.557 505.849 697.239C499.348 715.206 487.077 724.782 476.796 729.559L464.815 847.192C464.761 847.718 464.396 848.16 463.889 848.31C454.135 851.207 443.55 854.336 432.328 857.687C432.328 857.687 449.034 925.484 532.211 973.747C566.398 993.584 633.848 1029.05 721.326 1010.95C727.64 963.895 731.967 905.309 730.215 857.687C729.121 827.952 714.128 804.826 704.073 778.683C697.034 767.623 706.687 738.061 757.364 756.562C768.568 760.653 781.837 771.435 792.203 790.749C802.699 790.596 818.322 789.854 834.786 788.174C859.514 785.652 886.139 781.014 900.143 773.081L986.614 668.08C986.614 668.08 992.543 661.007 1001.26 656.032C1031.83 564.533 1018.75 476.032 1009.7 422.741L986.578 316.159C986.578 316.159 981.55 292.028 958.424 260.858C924.621 215.296 812.585 159.615 758.782 138.366Z" fill="#B5602A"/>
<path d="M792.203 790.749C802.303 809.566 808.455 842.472 806.444 886.858L830.467 857.687L834.786 788.174C818.322 789.854 802.699 790.596 792.203 790.749Z" fill="#B5602A"/>
<path d="M433.536 728.409C433.536 728.409 433.434 728.512 433.234 728.71M894.073 111.04C885.6 100.337 873.635 90.3914 859.886 81.1985M894.073 111.04C895.933 112.618 897.878 114.296 899.893 116.068M894.073 111.04C891.321 107.564 888.201 104.167 884.77 100.851M986.578 316.159C993.616 287 993.616 277.951 991.605 252.814C987.546 202.081 933.812 145.888 899.893 116.068M986.578 316.159C986.578 316.159 981.55 292.028 958.424 260.858C924.621 215.296 812.585 159.615 758.782 138.366C758.522 138.263 758.244 138.386 758.13 138.641C720.852 221.889 636.642 307.055 551.397 348.241C551.272 348.301 551.178 348.405 551.133 348.537C540.084 380.555 513.215 429.385 489.225 476.327C489.053 476.662 488.61 476.734 488.365 476.448C484.563 472.007 459.521 444.001 433.56 445.072M986.578 316.159L1009.7 422.741C1018.75 476.032 1031.83 564.533 1001.26 656.032C992.543 661.007 986.614 668.08 986.614 668.08M396.213 462.96C404.836 454.698 415.323 448.632 427.527 445.867C429.538 445.412 431.552 445.155 433.56 445.072M396.213 462.96C375.915 482.41 365.944 514.029 368.204 543.399C371.763 589.672 391.164 608.43 412.445 625.452M396.213 462.96C383.764 426.763 362.171 347.329 396.213 261.863C433.56 170.364 518.021 83.8919 630.636 52.7219C659.959 44.6056 715.544 39.0389 786.486 54.1001C812.629 59.6502 861.443 83.9588 884.77 100.851M433.56 445.072C433.56 406.653 432.555 355.373 496.906 249.797C527.071 200.308 557.235 155.281 643.707 116.068C701.573 89.8261 772.409 78.8645 899.893 116.068M859.886 81.1985C853.204 76.7302 846.1 72.4397 838.771 68.3266C830.258 63.5488 821.441 59.0103 812.629 54.7102C788.328 42.8531 764.057 32.8092 746.266 24.5618C640.891 -17.2664 553.213 9.10059 503.944 24.5618C434.767 46.2803 368.245 118.633 348.853 144.215C300.836 207.56 283.419 250.796 277.71 318.164C272.682 377.488 293.767 442.876 293.767 442.876C293.767 442.876 201.309 456.96 169.086 529.347C143.127 587.666 147.593 656.065 183.163 705.308C218.742 754.562 261.16 775.692 321.92 775.692C384.245 775.692 429.163 732.734 433.234 728.71M859.886 81.1985C869.169 87.4056 877.639 93.9559 884.77 100.851M445.626 608.43C445.626 608.43 447.044 599.55 451.659 594.679C455.391 590.74 462.354 588.502 467.262 587.349C470.868 586.502 474.686 586.697 477.91 588.522C500.049 601.056 522.377 651.557 505.849 697.239C499.348 715.206 487.077 724.782 476.796 729.559M445.626 608.43C457.022 612.451 469.82 625.452 472.774 670.091C472.774 695.228 448.442 703.875 435.571 690.2C422.701 676.526 428.047 648.975 432.328 636.909M445.626 608.43C452.656 610.911 460.22 616.808 465.677 631.443C465.677 631.443 453.33 644.112 432.328 636.909M412.445 625.452C402.39 637.985 388.313 672.504 412.445 710.31C416.26 716.286 423.264 723.759 433.234 728.71M412.445 625.452C419.75 631.294 426.399 634.876 432.328 636.909M476.796 729.559C475.413 730.202 474.066 730.757 472.774 731.235C469.696 732.373 466.93 733.067 464.73 733.436C452.204 735.278 441.66 732.895 433.234 728.71M476.796 729.559L464.815 847.192C464.761 847.718 464.396 848.16 463.889 848.31C454.135 851.207 443.55 854.336 432.328 857.687M432.328 857.687C327.788 888.912 171.13 936.544 100.858 1009.94C100.117 1010.72 99.3723 1011.5 98.6231 1012.28C55.531 1057.24 -1.71015 1116.97 2.23218 1258.3C4.58822 1342.76 29.3914 1511.68 117.874 1643.4M432.328 857.687C432.328 857.687 449.034 925.484 532.211 973.747C566.398 993.584 633.848 1029.05 721.326 1010.95M721.326 1010.95C721.185 1012 721.043 1013.05 720.9 1014.09M721.326 1010.95C727.64 963.895 731.967 905.309 730.215 857.687M117.874 1643.4C131.281 1616.25 169.518 1555.32 207.325 1536.82M117.874 1643.4C124.355 1656.36 133.218 1672.23 144.298 1689.65M207.325 1536.82C206.873 1536.27 206.454 1535.71 206.067 1535.15M207.325 1536.82L207.326 1536.82M774.426 1547.88C761.852 1578.59 749.576 1607.48 738.259 1632.34C716.248 1676.76 695.989 1712.74 676.151 1742.94M774.426 1547.88C824.416 1425.8 876.114 1282.06 894.11 1242.21C898.368 1232.28 905.298 1220.34 908.689 1214.87C909.022 1214.33 909.431 1213.87 909.928 1213.48C925.743 1201.03 961.426 1170.6 983.598 1143.67C1006.12 1116.33 1043.26 1053.18 1059.01 1025.03C1082.14 984.808 1059.01 943.583 1039.68 943.583M774.426 1547.88C838.117 1556.26 985.408 1574.22 1065.04 1579.05C1091.34 1580.64 1114.54 1582.3 1134.99 1584.14M1244.02 1604.19C1221.62 1594.79 1187.26 1588.84 1134.99 1584.14M368.24 1194.95L447.674 1392.37M447.674 1392.37C459.094 1393.54 470.965 1395.41 483.304 1398.06M447.674 1392.37C442.292 1391.81 437.01 1391.41 431.827 1391.16M144.298 1689.65C180.783 1747.02 241.309 1821.18 319.977 1863.6C319.977 1863.6 383.457 1907.07 450.69 1902.82C530.124 1897.79 584.42 1849.53 584.42 1849.53C617.105 1821.08 646.147 1788.62 676.151 1742.94M144.298 1689.65C131.515 1764.12 110.986 1901.81 105.864 1927.67C105.832 1927.84 105.962 1927.95 106.127 1927.95H1158.23C1158.4 1927.95 1158.52 1927.8 1158.49 1927.64L1152.52 1898.98M1152.52 1898.98C1146.9 1898.39 1141.26 1897.74 1135.61 1897.03M1152.52 1898.98C1159.25 1899.68 1165.95 1900.29 1172.63 1900.81M1099.23 1178.87C1119.67 1233.9 1165.93 1375.61 1158.22 1493.58M676.151 1742.94C750.547 1783.79 949.481 1873.54 1135.61 1897.03M1172.63 1900.81C1192.74 1902.7 1240 1900.38 1261.11 1898.98C1401.74 1878.85 1409.22 1785.69 1413.83 1728.25M1172.63 1900.81C1160.37 1899.86 1148.02 1898.59 1135.61 1897.03M1413.95 1726.86C1421.22 1636.46 1412.66 1552.77 1399.07 1480.51M1413.95 1726.86L1413.83 1728.25M1413.95 1726.86C1413.91 1727.32 1413.87 1727.78 1413.83 1728.25M1158.22 1493.58C1156.07 1526.49 1150.12 1557.58 1137.84 1584.4C1136.89 1584.31 1135.95 1584.22 1134.99 1584.14M1158.22 1493.58C1158.22 1493.58 1209.83 1469.28 1283.23 1466.44C1363.67 1463.32 1399.07 1480.51 1399.07 1480.51M1399.07 1480.51C1386.37 1412.92 1369.27 1355.33 1356.63 1311.59C1332.5 1206.01 1283.08 1096.03 1253.92 1055.81C1180.52 940.177 1061.39 899.096 1013.13 886.024C1028.83 897.503 1047.51 919.426 1039.68 943.583M483.304 1398.06L499.959 1375.94M483.304 1398.06C465.151 1394.17 448.01 1391.95 431.827 1391.16M483.304 1398.06L444.657 1449.39M236.937 1548.89C236.931 1548.89 236.926 1548.89 236.921 1548.89M444.657 1449.39L396.246 1513.69M444.657 1449.39C387.28 1449.39 310.15 1462.51 236.921 1548.89M259.648 1604.19C280.763 1575.2 339.081 1517.72 396.246 1513.69M259.648 1604.19C254.521 1611.23 264.675 1648.43 303.889 1636.36M259.648 1604.19C212.993 1601.77 221.461 1567.99 229.483 1557.93C231.957 1554.83 234.437 1551.82 236.921 1548.89M396.246 1513.69L303.889 1636.36M303.889 1636.36L499.959 1375.94M499.959 1375.94C556.266 1308.57 650.782 1188.92 706.084 1086.36C710.856 1073.72 716.07 1048.35 720.459 1017.25C720.607 1016.2 720.754 1015.15 720.9 1014.09M730.215 857.687C729.121 827.952 714.128 804.826 704.073 778.683C697.034 767.623 706.687 738.061 757.364 756.562C768.568 760.653 781.837 771.434 792.203 790.749M730.215 857.687C732.006 906.372 727.444 966.517 720.9 1014.09M789.539 907.385L830.467 857.687M986.614 668.08C986.614 668.08 1009.79 640.433 1031.86 656.014C1048.95 668.08 1039.91 693.217 1039.91 693.217C1034.88 713.326 1004.68 775.667 968.516 815.886M986.614 668.08L900.143 773.081M968.516 815.886L917.236 884.259M968.516 815.886C986.352 824.864 1016.83 849.715 1003.88 880.237M792.203 790.749C802.303 809.566 808.455 842.472 806.444 886.858L830.467 857.687M792.203 790.749C802.699 790.596 818.322 789.854 834.786 788.174M900.143 773.081C886.139 781.014 859.514 785.652 834.786 788.174M900.143 773.081L830.467 857.687M968.516 938.555L1001.29 885.408C1002.3 883.668 1003.16 881.944 1003.88 880.237M1003.88 880.237C1019.78 888.365 1049.16 914.337 1039.68 943.583M1010.75 984.808L1034.88 953.638C1037.03 950.258 1038.6 946.899 1039.68 943.583M834.786 788.174L830.467 857.687M431.827 1391.16C429.606 1391.05 427.404 1390.97 425.219 1390.91C315.958 1388.11 251.491 1450.6 214.401 1494.59C206.483 1503.98 196.563 1521.26 206.062 1535.14M206.062 1535.14C206.064 1535.14 206.066 1535.14 206.067 1535.15M206.062 1535.14L206.067 1535.15M206.067 1535.15C206.454 1535.71 206.873 1536.27 207.326 1536.82M236.921 1548.89C226.456 1551.89 215.739 1543.86 211.384 1540.84C209.805 1539.55 208.46 1538.21 207.326 1536.82" stroke="black" stroke-width="2.60893" stroke-linecap="round"/>
<path d="M621.625 376.477C621.625 376.477 629.104 365.054 640.729 357.385C668.883 338.811 665.739 350.346 727.201 329.219C735.62 326.325 744.294 314.137 744.294 314.137M865.958 297.044C865.958 297.044 913.836 288.54 938.353 300.071C953.23 307.068 964.496 324.191 964.496 324.191" stroke="black" stroke-width="7.82679" stroke-linecap="round"/>
<path d="M917.237 375.506C904.725 376.148 899.21 390.16 900.144 402.654C900.981 413.853 906.023 425.175 917.237 425.78C928.935 426.412 935.438 414.333 936.342 402.654C937.342 389.729 930.184 374.841 917.237 375.506Z" fill="black"/>
<path d="M708.096 406.676C694.241 407.546 687.472 424.42 691.003 437.846C693.906 448.885 701.768 458.11 713.124 456.95C725.258 455.711 730.987 442.981 730.217 430.808C729.409 418.049 720.855 405.874 708.096 406.676Z" fill="black"/>
<path d="M917.237 375.506C904.725 376.148 899.21 390.16 900.144 402.654C900.981 413.853 906.023 425.175 917.237 425.78C928.935 426.412 935.438 414.333 936.342 402.654C937.342 389.729 930.184 374.841 917.237 375.506Z" stroke="black" stroke-width="0.782679" stroke-linecap="round"/>
<path d="M708.096 406.676C694.241 407.546 687.472 424.42 691.003 437.846C693.906 448.885 701.768 458.11 713.124 456.95C725.258 455.711 730.987 442.981 730.217 430.808C729.409 418.049 720.855 405.874 708.096 406.676Z" stroke="black" stroke-width="0.782679" stroke-linecap="round"/>
<path d="M768.422 668.048C768.422 668.048 792.554 636.928 833.778 628.868C875.001 620.808 902.152 636.876 902.152 636.876" stroke="black" stroke-width="2.86982" stroke-linecap="round"/>
<path d="M837.805 399.617C844.173 414.364 864.702 437.041 885.063 459.946C909.194 487.095 933.326 556.473 837.805 556.473" stroke="black" stroke-width="2.86982" stroke-linecap="round"/>
</svg>
