<svg width="156" height="41" viewBox="0 0 156 41" fill="none" xmlns="http://www.w3.org/2000/svg">
<path d="M6.59405 26.199C7.4275 26.9767 8.61815 27.3656 10.1501 27.3656C11.4122 27.3656 12.4441 27.1116 13.2458 26.6117C14.0475 26.1117 14.4126 25.3102 14.3491 24.2072C14.3253 23.6834 13.9681 23.1359 13.2696 22.5724C12.5711 22.009 11.3884 21.6519 9.71355 21.4932C6.82424 21.2154 4.75251 20.3901 3.49836 19.0014C2.23627 17.6126 1.6092 15.97 1.6092 14.0733C1.6092 12.8116 1.91083 11.6371 2.49821 10.534C3.09354 9.43096 4.00637 8.54217 5.22877 7.85177C6.45117 7.16136 7.95933 6.82013 9.7453 6.82013C11.6265 6.82013 13.2299 7.20104 14.5555 7.9708C15.8811 8.74056 16.8892 9.72458 17.5639 10.9387C18.2386 12.1529 18.5958 13.4226 18.6434 14.7479H14.4206C14.3253 13.74 13.8967 12.8433 13.1347 12.0497C12.3647 11.2562 11.4122 10.8673 10.2692 10.8673C9.12616 10.8673 8.1022 11.1689 7.27669 11.7799C6.45117 12.391 6.03841 13.1131 6.03841 13.9622C6.03841 14.8986 6.43529 15.6367 7.237 16.1604C8.0387 16.6842 9.15791 17.0095 10.6026 17.1206C13.6744 17.3984 15.8494 18.1443 17.1511 19.3664C18.445 20.5885 19.0959 22.1122 19.0959 23.9136C19.0959 25.1991 18.7784 26.4053 18.1354 27.5401C17.4925 28.6749 16.5002 29.5876 15.1429 30.2859C13.7935 30.9842 12.1107 31.3334 10.0946 31.3334C8.21333 31.3334 6.60198 30.9525 5.25258 30.1827C3.90318 29.413 2.86335 28.4289 2.14102 27.2148C1.4187 26.0006 1.02181 24.7071 0.958313 23.3342H5.14939C5.28433 24.4532 5.77647 25.4055 6.60992 26.1831L6.59405 26.199Z" fill="#1E3A8A"/>
<path d="M20.4532 14.7319H23.3426L23.6521 16.4857C25.1682 14.8589 26.851 14.0494 28.7005 14.0494C30.4626 14.0732 31.9787 14.5732 33.2567 15.5413C34.5346 16.5095 35.1617 18.0411 35.1617 20.1282V31.0159H31.0421L31.0738 21.3661C31.0738 20.4297 30.804 19.652 30.2642 19.033C29.7244 18.4141 29.0021 18.1046 28.0813 18.1046C27.1606 18.1046 26.3509 18.422 25.708 19.0489C25.065 19.6758 24.7475 20.4535 24.7475 21.3661L24.7158 31.0556H20.5961L20.4612 14.7398L20.4532 14.7319Z" fill="#1E3A8A"/>
<path d="M40.7894 30.2706C39.4638 29.5008 38.416 28.4533 37.6461 27.1281C36.8761 25.8028 36.4951 24.3585 36.4951 22.8031C36.4951 21.2477 36.8761 19.7717 37.6461 18.4385C38.416 17.1133 39.4638 16.0658 40.7894 15.296C42.115 14.5262 43.5755 14.1453 45.1551 14.1453C46.187 14.1453 47.1633 14.3199 48.092 14.6611C49.0207 15.0024 49.8621 15.4865 50.6162 16.1054V14.7643H54.2596V27.1598C54.2596 27.5487 54.2913 27.8105 54.3469 27.9534C54.4025 28.0883 54.5057 28.1676 54.6565 28.1915C54.8073 28.2153 55.1089 28.2232 55.5693 28.2232V30.834C55.3153 30.9451 54.6644 31.0086 53.6087 31.0086C52.9658 31.0086 52.4181 30.8499 51.9577 30.5245C51.4973 30.1992 51.148 29.7786 50.894 29.2548C50.0923 29.9452 49.2033 30.4769 48.2349 30.8499C47.2586 31.2308 46.2346 31.4133 45.163 31.4133C43.5834 31.4133 42.1309 31.0324 40.7973 30.2627L40.7894 30.2706ZM47.2665 27.1439C47.965 26.8106 48.5524 26.2869 49.0366 25.5647C49.5208 24.8426 49.7589 23.9221 49.7589 22.8031C49.7589 21.6842 49.5208 20.7557 49.0366 20.0177C48.5524 19.2876 47.9571 18.7559 47.2506 18.4226C46.5442 18.0893 45.8457 17.9227 45.1551 17.9227C44.4645 17.9227 43.7343 18.0893 43.0278 18.4226C42.3214 18.7559 41.726 19.2876 41.2418 20.0177C40.7576 20.7478 40.5195 21.6763 40.5195 22.8031C40.5195 23.93 40.7576 24.8426 41.2418 25.5647C41.726 26.2869 42.3214 26.8106 43.0278 27.1439C43.7343 27.4772 44.4486 27.6439 45.1551 27.6439C45.8615 27.6439 46.568 27.4772 47.2665 27.1439Z" fill="#1E3A8A"/>
<path d="M69.7541 15.3988C71.0797 16.1447 72.1275 17.1684 72.8974 18.4699C73.6674 19.7713 74.0484 21.2077 74.0484 22.7631C74.0484 24.3185 73.6674 25.7945 72.8974 27.1277C72.1275 28.4529 71.0797 29.5005 69.7541 30.2702C68.4285 31.04 66.968 31.4209 65.3884 31.4209C63.5072 31.4209 61.8403 30.8813 60.3718 29.8099V40.047H56.6252V14.4544H60.3718V15.9305C61.88 14.8274 63.5548 14.2798 65.3884 14.2798C66.968 14.2798 68.4206 14.6528 69.7541 15.3988ZM63.277 18.4223C62.5785 18.7556 61.9911 19.2793 61.5069 20.0015C61.0227 20.7236 60.7846 21.6441 60.7846 22.7631C60.7846 23.882 61.0227 24.8105 61.5069 25.5485C61.9911 26.2786 62.5864 26.8103 63.2929 27.1436C63.9993 27.4769 64.6978 27.6435 65.3884 27.6435C66.079 27.6435 66.8092 27.4769 67.5157 27.1436C68.2221 26.8103 68.8175 26.2786 69.3017 25.5485C69.7859 24.8184 70.024 23.8899 70.024 22.7631C70.024 21.6362 69.7859 20.7157 69.3017 20.0015C68.8175 19.2793 68.2221 18.7556 67.5157 18.4223C66.8092 18.089 66.0949 17.9223 65.3884 17.9223C64.682 17.9223 63.9755 18.089 63.277 18.4223Z" fill="#1E3A8A"/>
<path d="M79.8903 14.732L79.922 24.4214C79.922 25.342 80.2395 26.1117 80.8825 26.7387C81.5254 27.3656 82.3113 27.683 83.2558 27.683C84.2004 27.683 84.9862 27.3656 85.6292 26.7387C86.2721 26.1117 86.5897 25.334 86.5897 24.4214L86.5579 14.7717H86.6293V14.7399H90.749L90.7807 24.4294C90.7807 25.3499 91.0982 26.1197 91.7412 26.7466C92.3841 27.3735 93.17 27.6909 94.1146 27.6909C95.0591 27.6909 95.845 27.3735 96.4879 26.7466C97.1309 26.1197 97.4484 25.342 97.4484 24.4294L97.4166 14.7796H101.536V25.6673C101.536 27.0878 101.179 28.2464 100.457 29.1511C99.7344 30.0558 98.8216 30.7065 97.7103 31.1112C96.599 31.508 95.4481 31.7143 94.2574 31.7143C93.2493 31.7143 92.273 31.5635 91.3205 31.2699C90.368 30.9763 89.5425 30.5398 88.8281 29.9605C88.1375 30.5557 87.312 31.0001 86.3515 31.2858C85.3911 31.5715 84.4068 31.7143 83.3987 31.7143C82.1128 31.7143 80.8904 31.4683 79.7236 30.9763C78.5567 30.4843 77.6122 29.7939 76.8898 28.8972C76.1675 28.0084 75.8103 26.9767 75.8103 25.8022L75.7786 14.7399H79.8982L79.8903 14.732Z" fill="#1E3A8A"/>
<path d="M107.204 30.5168C105.878 29.747 104.831 28.6995 104.061 27.3742C103.291 26.049 102.91 24.6047 102.91 23.0493C102.91 21.4939 103.291 20.0179 104.061 18.6847C104.831 17.3594 105.878 16.3119 107.204 15.5422C108.53 14.7724 109.99 14.3915 111.57 14.3915C113.149 14.3915 114.57 14.7724 115.896 15.5422C117.221 16.3119 118.269 17.3594 119.039 18.6847C119.809 20.0099 120.19 21.4701 120.19 23.0493C120.19 24.6285 119.809 26.049 119.039 27.3742C118.269 28.6995 117.221 29.747 115.896 30.5168C114.57 31.2865 113.125 31.6674 111.57 31.6674C110.014 31.6674 108.538 31.2865 107.204 30.5168ZM113.681 27.3901C114.38 27.0568 114.967 26.533 115.451 25.8109C115.935 25.0888 116.174 24.1682 116.174 23.0493C116.174 21.9304 115.935 21.0019 115.451 20.2639C114.967 19.5338 114.372 19.0021 113.665 18.6688C112.959 18.3355 112.26 18.1689 111.57 18.1689C110.879 18.1689 110.149 18.3355 109.442 18.6688C108.736 19.0021 108.141 19.5338 107.656 20.2639C107.172 20.994 106.934 21.9224 106.934 23.0493C106.934 24.1762 107.172 25.0967 107.656 25.8109C108.141 26.533 108.736 27.0568 109.442 27.3901C110.149 27.7234 110.863 27.89 111.57 27.89C112.276 27.89 112.983 27.7234 113.681 27.3901Z" fill="#1E3A8A"/>
<path d="M126.5 19.0246C125.802 19.6436 125.453 20.4927 125.453 21.564L125.381 31.0471L121.293 31.0154L121.325 14.7711L124.659 14.7393L124.762 16.3899C126.437 14.8345 128.334 14.0886 130.469 14.16V18.0088C128.524 18.0802 127.199 18.4215 126.5 19.0404V19.0246Z" fill="#1E3A8A"/>
<path d="M131.771 7.48553H135.581V19.0637H138.224L143.447 14.6991L148.496 14.6276L140.939 21.2222L148.67 31.0148H144.201L137.637 23.0791H135.573V31.0148H131.763V7.48553H131.771Z" fill="#1E3A8A"/>
<path d="M150.374 1.79441C149.87 1.28762 149.014 1.46049 148.745 2.11662L146.055 8.39833C145.813 8.91248 146.045 9.51618 146.562 9.73717C147.079 9.95815 147.679 9.69876 147.88 9.17596L150.577 2.90136C150.745 2.52704 150.662 2.08692 150.374 1.79441Z" fill="#FEBC23"/>
<path d="M155.415 6.16064C155.022 5.77475 154.392 5.78052 154.005 6.17224L149.26 10.8205C148.826 11.2033 148.803 11.8569 149.209 12.2706C149.614 12.6843 150.272 12.6662 150.66 12.2404L155.405 7.58533C155.813 7.20134 155.814 6.56045 155.421 6.16776L155.415 6.16064Z" fill="#FEBC23"/>
<path d="M142.494 0.717642C141.866 0.0757185 140.779 0.517764 140.787 1.41136L140.708 8.02194C140.683 8.57995 141.127 9.04995 141.688 9.05472C142.256 9.0598 142.707 8.6096 142.698 8.04326L142.783 1.43298C142.796 1.16078 142.691 0.903782 142.494 0.717642Z" fill="#FEBC23"/>
</svg>
