<svg width="246" height="49" viewBox="0 0 246 49" fill="none" xmlns="http://www.w3.org/2000/svg">
<path d="M62.0643 31.8438C63.0821 32.7935 64.5362 33.2684 66.4071 33.2684C67.9484 33.2684 69.2086 32.9583 70.1877 32.3477C71.1668 31.7372 71.6127 30.7583 71.5351 29.4112C71.506 28.7716 71.0698 28.1029 70.2168 27.4148C69.3637 26.7267 67.9193 26.2906 65.8739 26.0968C62.3454 25.7576 59.8153 24.7497 58.2837 23.0537C56.7423 21.3577 55.9765 19.3516 55.9765 17.0353C55.9765 15.4944 56.3449 14.06 57.0622 12.7129C57.7893 11.3658 58.9041 10.2804 60.3969 9.43725C61.8898 8.5941 63.7316 8.17737 65.9127 8.17737C68.2101 8.17737 70.1683 8.64255 71.7872 9.58262C73.406 10.5227 74.6372 11.7244 75.4611 13.2072C76.2851 14.69 76.7213 16.2406 76.7795 17.8591H71.6224C71.5061 16.6283 70.9826 15.5331 70.052 14.564C69.1117 13.5949 67.9484 13.12 66.5525 13.12C65.1566 13.12 63.9061 13.4883 62.8979 14.2345C61.8898 14.9807 61.3857 15.8626 61.3857 16.8996C61.3857 18.0432 61.8704 18.9445 62.8495 19.5841C63.8285 20.2238 65.1954 20.6211 66.9596 20.7568C70.7112 21.096 73.3673 22.007 74.9571 23.4995C76.5371 24.9919 77.332 26.8527 77.332 29.0526C77.332 30.6227 76.9443 32.0957 76.1591 33.4816C75.3739 34.8675 74.1622 35.982 72.5045 36.8348C70.8566 37.6877 68.8015 38.1141 66.3392 38.1141C64.0418 38.1141 62.074 37.6489 60.426 36.7088C58.778 35.7688 57.5082 34.5671 56.626 33.0843C55.7439 31.6015 55.2592 30.0218 55.1816 28.3452H60.3C60.4648 29.7117 61.0658 30.8746 62.0836 31.8244L62.0643 31.8438Z" fill="white"/>
<path d="M78.9893 17.839H82.5178L82.8959 19.9808C84.7474 17.994 86.8025 17.0055 89.0611 17.0055C91.2132 17.0346 93.0647 17.6451 94.6254 18.8275C96.1861 20.0098 96.9519 21.8803 96.9519 24.4291V37.7257H91.9208L91.9596 25.941C91.9596 24.7974 91.63 23.8476 90.9708 23.0917C90.3117 22.3358 89.4295 21.9578 88.305 21.9578C87.1805 21.9578 86.1918 22.3455 85.4066 23.1111C84.6214 23.8767 84.2336 24.8265 84.2336 25.941L84.1948 37.7742H79.1637L78.999 17.8486L78.9893 17.839Z" fill="white"/>
<path d="M103.825 36.8171C102.207 35.877 100.927 34.5977 99.9867 32.9793C99.0464 31.3608 98.5811 29.597 98.5811 27.6975C98.5811 25.7979 99.0464 23.9953 99.9867 22.3672C100.927 20.7487 102.207 19.4695 103.825 18.5294C105.444 17.5893 107.228 17.1241 109.157 17.1241C110.417 17.1241 111.61 17.3374 112.744 17.7541C113.878 18.1708 114.905 18.762 115.826 19.5179V17.8801H120.276V33.018C120.276 33.4929 120.315 33.8127 120.382 33.9872C120.45 34.1519 120.576 34.2488 120.761 34.2779C120.945 34.307 121.313 34.3167 121.875 34.3167V37.5052C121.565 37.6408 120.77 37.7184 119.481 37.7184C118.696 37.7184 118.027 37.5245 117.465 37.1272C116.902 36.7298 116.476 36.2162 116.166 35.5766C115.187 36.4197 114.101 37.069 112.918 37.5245C111.726 37.9897 110.475 38.2126 109.167 38.2126C107.238 38.2126 105.464 37.7474 103.835 36.8074L103.825 36.8171ZM111.736 32.9987C112.589 32.5916 113.306 31.952 113.897 31.0701C114.489 30.1882 114.779 29.0639 114.779 27.6975C114.779 26.331 114.489 25.1971 113.897 24.2958C113.306 23.4042 112.579 22.7548 111.716 22.3478C110.853 21.9408 110 21.7373 109.157 21.7373C108.314 21.7373 107.422 21.9408 106.559 22.3478C105.696 22.7548 104.969 23.4042 104.378 24.2958C103.787 25.1874 103.496 26.3213 103.496 27.6975C103.496 29.0736 103.787 30.1882 104.378 31.0701C104.969 31.952 105.696 32.5916 106.559 32.9987C107.422 33.4057 108.294 33.6092 109.157 33.6092C110.02 33.6092 110.883 33.4057 111.736 32.9987Z" fill="white"/>
<path d="M139.199 18.6547C140.818 19.5657 142.097 20.8159 143.037 22.4053C143.978 23.9947 144.443 25.7488 144.443 27.6483C144.443 29.5478 143.978 31.3504 143.037 32.9786C142.097 34.597 140.818 35.8763 139.199 36.8164C137.58 37.7564 135.796 38.2216 133.867 38.2216C131.57 38.2216 129.534 37.5626 127.741 36.2543V48.7562H123.165V17.5014H127.741V19.304C129.582 17.9569 131.628 17.2882 133.867 17.2882C135.796 17.2882 137.57 17.7437 139.199 18.6547ZM131.288 22.3471C130.435 22.7542 129.718 23.3938 129.127 24.2757C128.535 25.1576 128.245 26.2818 128.245 27.6483C128.245 29.0148 128.535 30.1487 129.127 31.05C129.718 31.9416 130.445 32.5909 131.308 32.998C132.171 33.405 133.024 33.6085 133.867 33.6085C134.71 33.6085 135.602 33.405 136.465 32.998C137.328 32.5909 138.055 31.9416 138.646 31.05C139.237 30.1584 139.528 29.0245 139.528 27.6483C139.528 26.2721 139.237 25.1479 138.646 24.2757C138.055 23.3938 137.328 22.7542 136.465 22.3471C135.602 21.9401 134.73 21.7366 133.867 21.7366C133.004 21.7366 132.142 21.9401 131.288 22.3471Z" fill="white"/>
<path d="M151.577 17.8397L151.616 29.6729C151.616 30.7971 152.004 31.7372 152.789 32.5028C153.574 33.2684 154.534 33.6561 155.687 33.6561C156.841 33.6561 157.801 33.2684 158.586 32.5028C159.371 31.7372 159.759 30.7874 159.759 29.6729L159.72 17.8882H159.807V17.8494H164.838L164.877 29.6826C164.877 30.8068 165.265 31.7469 166.05 32.5125C166.835 33.2781 167.795 33.6658 168.948 33.6658C170.102 33.6658 171.062 33.2781 171.847 32.5125C172.632 31.7469 173.02 30.7971 173.02 29.6826L172.981 17.8979H178.012V31.1945C178.012 32.9292 177.576 34.3442 176.694 35.449C175.812 36.5538 174.697 37.3485 173.34 37.8428C171.983 38.3273 170.577 38.5793 169.123 38.5793C167.892 38.5793 166.699 38.3952 165.536 38.0366C164.373 37.678 163.365 37.145 162.492 36.4375C161.649 37.1644 160.641 37.7071 159.468 38.056C158.295 38.4049 157.093 38.5793 155.862 38.5793C154.291 38.5793 152.798 38.2789 151.373 37.678C149.949 37.0772 148.795 36.234 147.913 35.1389C147.031 34.0534 146.594 32.7936 146.594 31.3592L146.556 17.8494H151.587L151.577 17.8397Z" fill="white"/>
<path d="M184.934 37.1172C183.315 36.1772 182.035 34.8979 181.095 33.2794C180.155 31.661 179.689 29.8972 179.689 27.9976C179.689 26.0981 180.155 24.2955 181.095 22.6674C182.035 21.0489 183.315 19.7696 184.934 18.8296C186.553 17.8895 188.336 17.4243 190.265 17.4243C192.194 17.4243 193.93 17.8895 195.549 18.8296C197.167 19.7696 198.447 21.0489 199.387 22.6674C200.328 24.2858 200.793 26.069 200.793 27.9976C200.793 29.9262 200.328 31.661 199.387 33.2794C198.447 34.8979 197.167 36.1772 195.549 37.1172C193.93 38.0573 192.165 38.5225 190.265 38.5225C188.365 38.5225 186.562 38.0573 184.934 37.1172ZM192.844 33.2988C193.697 32.8918 194.414 32.2522 195.006 31.3702C195.597 30.4883 195.888 29.3641 195.888 27.9976C195.888 26.6311 195.597 25.4973 195.006 24.596C194.414 23.7043 193.687 23.055 192.825 22.648C191.962 22.2409 191.109 22.0374 190.265 22.0374C189.422 22.0374 188.53 22.2409 187.667 22.648C186.805 23.055 186.078 23.7043 185.486 24.596C184.895 25.4876 184.604 26.6215 184.604 27.9976C184.604 29.3738 184.895 30.498 185.486 31.3702C186.078 32.2522 186.805 32.8918 187.667 33.2988C188.53 33.7059 189.403 33.9094 190.265 33.9094C191.128 33.9094 191.991 33.7059 192.844 33.2988Z" fill="white"/>
<path d="M208.499 23.0812C207.646 23.8371 207.219 24.8741 207.219 26.1824L207.132 37.7637L202.14 37.7249L202.178 17.8866L206.25 17.8478L206.376 19.8636C208.421 17.9641 210.738 17.0531 213.346 17.1404V21.8407C210.971 21.9279 209.352 22.3446 208.499 23.1006V23.0812Z" fill="white"/>
<path d="M214.936 8.99072H219.589V23.1305H222.818L229.196 17.8002L235.361 17.713L226.133 25.7665L235.575 37.7257H230.117L222.1 28.0343H219.58V37.7257H214.927V8.99072H214.936Z" fill="white"/>
<path d="M237.655 2.04317C237.039 1.42425 235.994 1.63537 235.665 2.43667L232.38 10.1082C232.084 10.7361 232.368 11.4733 232.999 11.7432C233.631 12.0131 234.363 11.6963 234.609 11.0579L237.903 3.39503C238.107 2.9379 238.006 2.4004 237.655 2.04317Z" fill="#FEBC23"/>
<path d="M245.292 7.96653C244.812 7.49526 244.043 7.50231 243.571 7.98069L237.776 13.6574C237.246 14.1248 237.218 14.923 237.713 15.4283C238.209 15.9335 239.012 15.9114 239.486 15.3914L245.281 9.70642C245.778 9.23748 245.78 8.4548 245.3 7.97522L245.292 7.96653Z" fill="#FEBC23"/>
<path d="M228.032 0.727913C227.265 -0.0560329 225.937 0.483814 225.947 1.57511L225.851 9.64826C225.82 10.3297 226.362 10.9037 227.047 10.9095C227.74 10.9157 228.291 10.3659 228.281 9.6743L228.385 1.60152C228.4 1.2691 228.272 0.955237 228.032 0.727913Z" fill="#FEBC23"/>
<circle cx="23.563" cy="24.5259" r="23.564" fill="#FEBC23"/>
<mask id="mask0_1583_1266" style="mask-type:alpha" maskUnits="userSpaceOnUse" x="-1" y="0" width="49" height="49">
<circle cx="23.5621" cy="24.5215" r="23.564" fill="#FEBC23"/>
</mask>
<g mask="url(#mask0_1583_1266)">
<path d="M24.3142 15.3292C24.4489 15.2378 24.5837 15.1941 24.7087 15.2422C24.728 15.2615 24.8146 15.3916 24.8386 15.8819C24.8579 16.2955 24.8333 16.8151 24.8044 17.3633C24.7612 18.2048 24.7182 19.0707 24.824 19.7872C25.0165 21.124 26.0072 23.0523 26.8054 24.6006C27.0699 25.1152 27.32 25.6009 27.5076 26.0001C28.2241 27.5388 29.7292 29.5873 31.2488 31.5733C32.4558 33.1507 33.0476 36.8446 33.3025 38.4219L33.322 38.5469C33.5339 39.8598 35.058 41.9464 36.1736 43.4659L36.1687 43.4854C36.4043 43.8076 36.6156 44.0916 36.7791 44.3272C36.7069 44.5581 36.534 45.0197 36.1687 45.5821C35.2984 46.9187 34.0385 47.7651 33.1296 48.2413C31.485 49.1069 30.1184 49.295 29.2625 49.2999H29.2293C28.5849 49.2999 28.1323 49.1984 27.9207 49.1407C26.8339 47.0586 26.1946 45.8319 25.4011 44.9327C25.8628 45.0529 26.3152 45.1395 26.7625 45.1876C27.0893 45.2212 27.4112 45.2403 27.738 45.2403C28.4305 45.2403 29.1379 45.1537 29.9314 44.9854C30.7247 44.817 31.2969 44.3266 31.6287 43.5333C31.893 42.8986 31.9655 42.1776 32.0232 41.6006C32.0472 41.3554 32.0716 41.1195 32.1052 40.9463C32.1436 40.7301 32.0089 40.523 31.7927 40.4795C31.5765 40.4411 31.3694 40.5759 31.3259 40.792C31.2875 40.9988 31.263 41.2542 31.2341 41.5235C31.1043 42.8507 30.9022 43.9667 29.7673 44.212C28.0651 44.5726 26.0787 44.7021 23.0974 43.1778C21.3617 42.2931 20.9673 41.9659 20.5105 41.5909C20.1883 41.3264 19.8275 41.0283 18.9861 40.5235C17.9618 39.9079 16.6485 39.0993 15.5857 38.3106C13.956 37.1039 13.73 36.5412 13.7107 36.3536C13.6339 35.69 14.3594 34.214 14.9412 33.0264C15.3163 32.2618 15.6682 31.5395 15.8894 30.9288C16.1827 30.1163 16.4756 29.3419 16.865 28.8467C17.24 28.3659 17.6201 28.2411 18.1394 28.4141C18.9666 28.693 19.996 29.5252 20.8328 30.2081L20.8757 30.2413C21.5009 30.751 21.9917 31.1509 22.3572 31.3096C22.7132 31.4639 23.5454 32.425 24.1511 33.1221C24.8672 33.9487 25.3094 34.4488 25.6267 34.627C25.6171 34.7087 25.5455 34.8723 25.3679 35.0069C25.2236 35.1175 24.9682 35.2426 24.5691 35.2042C24.55 35.1994 24.5355 35.1993 24.5164 35.1993C24.3 35.1704 24.045 35.0935 23.7468 34.9444C22.7181 34.43 22.2418 33.9688 21.8572 33.5938C21.5061 33.2572 21.2025 32.9588 20.6687 32.8194C20.0438 32.656 19.5055 32.5934 19.1834 32.5694C18.967 32.3338 18.5961 31.8666 18.5095 31.4434C18.4661 31.2274 18.2598 31.0927 18.0437 31.1358C17.8273 31.1791 17.6928 31.3862 17.7361 31.6026C17.8083 31.9584 18.0006 32.3481 18.3084 32.752C17.9862 32.8818 17.5237 33.0545 17.115 33.1651C16.9035 33.2229 16.779 33.4399 16.8367 33.6514C16.8945 33.8628 17.1106 33.9874 17.322 33.9297C17.9659 33.7568 18.7012 33.4498 18.947 33.3438C19.1105 33.3486 19.5196 33.3767 20.0339 33.4776C19.4953 34.4826 17.7793 36.0126 17.2214 36.3926C17.0388 36.5128 16.9901 36.7578 17.115 36.9405C17.1919 37.051 17.3172 37.1133 17.4421 37.1133C17.5191 37.1133 17.5965 37.094 17.6638 37.0459C18.0246 36.8053 18.7651 36.1759 19.4285 35.4981C20.1015 34.8058 20.558 34.214 20.7937 33.7188C20.9572 33.8246 21.1024 33.9639 21.2996 34.1563C21.6987 34.5506 22.2471 35.0793 23.3865 35.6514C23.7855 35.8485 24.1364 35.9498 24.4441 35.9834C26.199 36.3104 27.4446 36.94 28.1804 37.4161C28.9696 37.9217 29.3643 38.3676 29.3777 38.3829C29.4546 38.4742 29.5659 38.5225 29.6765 38.5225C29.7678 38.5225 29.8594 38.4893 29.9363 38.4268C30.1046 38.2825 30.1235 38.0365 29.9793 37.8682C29.9188 37.7978 28.6582 36.3624 25.9539 35.5362C26.2616 35.2525 26.4445 34.8629 26.4109 34.5167C26.3868 34.2474 26.2374 34.0307 26.0066 33.9297C25.8184 33.8373 25.1696 33.0926 24.7419 32.5977C24.2371 32.0208 23.8184 31.5444 23.4627 31.1934C23.6021 31.2463 23.7328 31.2948 23.8337 31.3477C23.8721 31.3669 23.9158 31.3911 23.9685 31.4151C24.4255 31.646 25.2768 32.0788 26.1902 32.3672C26.8104 32.5643 27.3587 32.6602 27.8347 32.6602C28.277 32.6602 28.6521 32.5785 28.9646 32.4102C29.7388 31.9966 30.1623 31.3955 30.1287 30.7608C30.0998 30.2222 29.7384 29.7505 29.1902 29.5293C28.3871 29.2071 27.2714 28.6539 25.4636 27.6876C24.9203 27.399 24.2706 26.9762 23.5974 26.5098C23.5349 25.6779 23.0972 24.8023 22.6355 23.879C22.3134 23.2395 21.982 22.5759 21.7849 21.9317C21.5109 21.0278 21.6934 20.0421 21.9578 19.2247C21.9769 19.1768 21.9913 19.133 22.0056 19.0899V19.0801C22.1463 18.6699 22.3071 18.3108 22.4343 18.0381L23.4841 16.4161C23.5176 16.3847 23.5477 16.3485 23.5691 16.3047C23.723 15.997 23.9925 15.5641 24.2761 15.3526C24.2903 15.3478 24.3047 15.3386 24.3142 15.3292ZM22.8377 12.6983C23.0973 12.7608 23.3382 12.9867 23.5017 13.3184C23.6412 13.6021 23.7807 14.0883 23.6941 14.8096C23.6557 14.848 23.6172 14.8817 23.574 14.9249C23.2614 15.2375 23.0314 15.6327 22.9011 15.8799L21.8894 17.3985C21.8527 17.4323 21.8218 17.4736 21.7996 17.5215C21.6457 17.8534 21.4049 18.359 21.2078 18.9649C21.0586 19.3255 20.6542 19.8354 20.2888 20.292C19.9909 20.6669 19.707 21.0224 19.5339 21.3252C19.13 22.037 18.9086 22.7976 18.9519 23.3506C18.9663 23.5428 19.0003 23.7541 19.0339 23.9415C18.2214 23.8982 17.3658 24.1198 16.9041 24.711C16.404 25.3505 16.2161 25.7643 15.7498 26.8653C15.6681 27.0671 15.759 27.2981 15.9607 27.3848C16.1625 27.4665 16.3935 27.3755 16.4802 27.1739C16.937 26.0968 17.0916 25.7647 17.5291 25.1973C17.8705 24.7597 18.7791 24.6005 19.6013 24.836C20.0293 24.961 21.1596 25.755 22.155 26.4571C23.1841 27.1784 24.2423 27.9289 25.0935 28.3809C26.9303 29.357 28.0653 29.9193 28.8972 30.2559C29.1569 30.3617 29.3252 30.569 29.3396 30.795C29.3538 31.1074 29.0846 31.4388 28.5896 31.7032C28.1424 31.9436 27.3969 31.9103 26.4304 31.6026C25.5745 31.3285 24.7665 30.9195 24.3289 30.6983C24.276 30.6694 24.2277 30.6453 24.1892 30.626C23.843 30.453 23.3381 30.2993 22.8044 30.1358C22.2418 29.9627 21.5394 29.7512 21.323 29.5733C20.4333 28.8519 19.3415 27.9668 18.3845 27.6446C17.5431 27.3562 16.8169 27.5917 16.2351 28.337C15.7735 28.9285 15.4558 29.7655 15.1384 30.6407C14.9317 31.208 14.5907 31.9101 14.2253 32.6553C14.0763 32.963 13.9273 33.2664 13.7878 33.5596C13.8023 33.4058 13.8308 33.2324 13.8933 33.0401V33.0215C13.9029 32.9927 14.0759 32.2373 14.0759 30.9727C14.0711 30.3909 14.2778 29.7126 14.5134 28.9288C14.7442 28.169 14.9989 27.3033 15.1335 26.3272C15.1961 25.8752 15.2397 25.4134 15.283 24.9229C15.3455 24.2161 15.4128 23.4995 15.533 22.8311C15.5426 22.8167 15.5427 22.8016 15.5427 22.7872C15.7014 21.941 15.9561 21.1809 16.4128 20.628C16.5234 20.4982 16.6395 20.359 16.7693 20.2051C17.3944 19.455 18.2312 18.4497 18.991 17.5264V17.5167C19.7361 16.5937 20.3946 15.7571 20.6736 15.3243C20.7024 15.2762 20.7366 15.2277 20.7703 15.1749C21.078 14.6988 21.5015 14.0396 21.9294 13.5059C22.5644 12.7231 22.82 12.6986 22.8377 12.6983ZM20.8718 20.8418C20.8622 21.2794 20.91 21.7225 21.0398 22.1553C21.2562 22.8621 21.6026 23.5592 21.9392 24.2276C22.2277 24.795 22.5013 25.3437 22.6648 25.8438L22.6169 25.8096C21.2706 24.8623 20.4046 24.2659 19.8709 24.0928C19.8324 23.9004 19.7651 23.5641 19.7459 23.295C19.7218 22.9872 19.8331 22.4103 20.2273 21.7227L20.2322 21.7178C20.3668 21.4822 20.6074 21.1737 20.8718 20.8418ZM18.0818 12.3233C18.2837 12.3906 18.5437 12.6356 18.6111 13.1114C18.7409 13.9915 18.5239 15.988 18.3171 17.1084C17.5863 18.0076 16.7784 18.9792 16.1677 19.71L16.1726 19.7051C16.0429 19.8589 15.9229 20.0031 15.8171 20.1329C15.7402 20.2242 15.6677 20.321 15.6003 20.4219C15.6244 20.1865 15.6578 19.9696 15.7058 19.7774C15.9895 18.5944 16.1819 17.2182 16.2156 16.0977C16.2448 15.054 17.3799 12.7422 17.7214 12.4053C17.8224 12.3043 17.9423 12.2752 18.0818 12.3233ZM30.1814 11.8409C30.4026 11.8264 30.5898 11.9898 30.6043 12.211C30.6186 12.4321 30.4505 12.6194 30.2341 12.6338L27.0505 12.8458H27.0271C26.8204 12.8457 26.6472 12.687 26.6326 12.4756H26.6277C26.6133 12.2544 26.7814 12.0663 26.9978 12.0518L30.1814 11.8409ZM26.6853 7.17583C26.7862 6.98365 27.0262 6.91118 27.2185 7.01177C27.4108 7.11275 27.4835 7.35361 27.3826 7.54595L25.9158 10.2969C25.8436 10.4315 25.7036 10.5079 25.5642 10.5079C25.5018 10.5078 25.4343 10.4936 25.3767 10.46H25.3816C25.1896 10.359 25.1178 10.119 25.2185 9.92681L26.6853 7.17583ZM21.6599 7.00298C21.8571 6.90693 22.0931 6.98946 22.1892 7.18658L23.4148 9.69634C23.511 9.8935 23.4293 10.1295 23.2322 10.2256C23.1746 10.2496 23.1169 10.2637 23.0593 10.2637C22.9152 10.2637 22.7713 10.1822 22.7039 10.043L21.4773 7.53228C21.3812 7.33514 21.4628 7.09916 21.6599 7.00298Z" fill="#1E3A8A"/>
</g>
</svg>
