<svg width="460" height="460" viewBox="0 0 460 460" fill="none" xmlns="http://www.w3.org/2000/svg">
<circle cx="229.992" cy="229.992" r="229.992" fill="#1E3A8A"/>
<mask id="mask0_1191_664" style="mask-type:alpha" maskUnits="userSpaceOnUse" x="0" y="0" width="460" height="460">
<circle cx="229.992" cy="229.992" r="229.992" fill="#1E3A8A"/>
</mask>
<g mask="url(#mask0_1191_664)">
<path d="M237.355 140.33C238.669 139.438 239.983 139.016 241.203 139.485C241.391 139.673 242.236 140.941 242.471 145.728C242.659 149.765 242.424 154.834 242.143 160.184C241.72 168.398 241.298 176.847 242.33 183.84C244.208 196.889 253.877 215.711 261.668 230.825C264.25 235.847 266.69 240.587 268.521 244.483C275.514 259.503 290.206 279.499 305.038 298.883C316.82 314.279 322.593 350.327 325.08 365.722L325.268 366.943C327.333 379.757 342.213 400.128 353.102 414.96L353.055 415.147C355.355 418.292 357.42 421.061 359.016 423.361C358.312 425.614 356.622 430.12 353.055 435.612C344.559 448.66 332.262 456.921 323.391 461.568C307.339 470.017 294.008 471.847 285.654 471.894H285.325C279.035 471.894 274.623 470.909 272.558 470.345C261.95 450.022 255.708 438.052 247.963 429.275C252.469 430.448 256.881 431.294 261.246 431.763C264.438 432.092 267.582 432.279 270.774 432.279C277.533 432.279 284.433 431.434 292.178 429.792C299.922 428.149 305.508 423.361 308.746 415.617C311.328 409.421 312.032 402.38 312.595 396.748C312.83 394.354 313.064 392.054 313.393 390.364C313.768 388.252 312.454 386.234 310.342 385.811C308.23 385.436 306.212 386.75 305.789 388.862C305.414 390.88 305.179 393.368 304.898 395.997C303.63 408.951 301.658 419.841 290.581 422.235C273.966 425.755 254.581 427.022 225.48 412.143C208.536 403.507 204.687 400.315 200.228 396.654C197.083 394.073 193.563 391.162 185.349 386.234C175.351 380.226 162.537 372.341 152.164 364.643C136.254 352.863 134.047 347.371 133.859 345.54C133.108 339.062 140.195 324.652 145.874 313.059C149.535 305.596 152.962 298.555 155.121 292.594C157.985 284.662 160.848 277.105 164.65 272.27C168.311 267.577 172.018 266.356 177.087 268.046C185.16 270.768 195.205 278.888 203.372 285.553L203.795 285.882C209.897 290.858 214.684 294.753 218.251 296.302C221.725 297.804 229.845 307.192 235.759 313.998C242.753 322.071 247.071 326.952 250.169 328.689C250.075 329.487 249.371 331.083 247.634 332.397C246.226 333.477 243.738 334.696 239.843 334.321C239.655 334.274 239.514 334.274 239.326 334.274C237.214 333.992 234.727 333.242 231.817 331.787C221.772 326.765 217.125 322.258 213.37 318.597C209.944 315.312 206.987 312.402 201.777 311.041C195.675 309.445 190.418 308.834 187.273 308.599C185.161 306.299 181.546 301.747 180.701 297.617C180.279 295.505 178.261 294.191 176.149 294.613C174.037 295.035 172.723 297.054 173.145 299.166C173.849 302.639 175.727 306.441 178.731 310.383C175.586 311.651 171.08 313.34 167.09 314.42C165.025 314.983 163.804 317.096 164.367 319.161C164.931 321.226 167.044 322.447 169.109 321.883C175.398 320.194 182.579 317.19 184.973 316.157C186.569 316.204 190.558 316.486 195.58 317.471C190.323 327.281 173.567 342.207 168.122 345.915C166.339 347.088 165.87 349.482 167.09 351.265C167.841 352.345 169.061 352.956 170.282 352.956C171.032 352.956 171.784 352.768 172.441 352.298C175.961 349.952 183.189 343.802 189.666 337.184C196.237 330.425 200.697 324.653 202.997 319.818C204.593 320.851 206.001 322.211 207.925 324.089C211.821 327.937 217.172 333.101 228.296 338.686C232.192 340.611 235.618 341.597 238.622 341.925C255.754 345.117 267.911 351.266 275.092 355.913C282.881 360.903 286.731 365.291 286.78 365.346C287.531 366.238 288.61 366.708 289.69 366.708C290.582 366.708 291.474 366.379 292.225 365.769C293.867 364.361 294.055 361.968 292.647 360.325C292.081 359.665 279.784 345.633 253.361 337.56C256.365 334.791 258.148 330.988 257.82 327.609C257.585 324.981 256.13 322.869 253.877 321.883C252.047 320.991 245.71 313.716 241.533 308.882C236.604 303.249 232.52 298.602 229.047 295.175C230.408 295.692 231.676 296.161 232.661 296.677C233.037 296.865 233.46 297.1 233.976 297.335C238.435 299.588 246.743 303.812 255.66 306.629C261.715 308.553 267.066 309.492 271.713 309.492C276.031 309.492 279.693 308.693 282.743 307.05C290.3 303.014 294.43 297.147 294.102 290.952C293.82 285.695 290.3 281.094 284.95 278.935C277.111 275.79 266.221 270.393 248.573 260.959C243.269 258.142 236.933 254.011 230.362 249.459C229.751 241.339 225.48 232.796 220.974 223.784C217.829 217.542 214.591 211.064 212.666 204.775C209.991 195.951 211.774 186.328 214.356 178.349C214.543 177.88 214.685 177.457 214.826 177.035V176.941C216.207 172.912 217.778 169.386 219.023 166.72L229.16 151.055C229.533 150.732 229.849 150.331 230.079 149.858C231.581 146.854 234.211 142.63 236.98 140.565C237.121 140.518 237.261 140.424 237.355 140.33ZM222.946 114.655C225.48 115.265 227.826 117.472 229.422 120.711C230.783 123.48 232.145 128.22 231.3 135.26C230.925 135.636 230.549 135.965 230.126 136.387C227.124 139.39 224.9 143.171 223.618 145.59L213.615 160.595C213.286 160.913 213.01 161.295 212.807 161.733C212.77 161.814 212.731 161.895 212.693 161.978L212.68 161.999L212.682 162.001C211.177 165.24 208.906 170.061 207.034 175.814C205.578 179.334 201.636 184.31 198.069 188.769C195.159 192.43 192.389 195.904 190.7 198.861C186.757 205.807 184.598 213.223 185.02 218.621C185.161 220.498 185.489 222.564 185.818 224.394C177.886 223.972 169.531 226.131 165.025 231.904C160.143 238.147 158.313 242.184 153.76 252.932C152.962 254.904 153.854 257.157 155.825 258.002C157.797 258.799 160.049 257.907 160.894 255.936C165.353 245.423 166.855 242.184 171.126 236.645C174.459 232.374 183.331 230.825 191.357 233.125C195.534 234.345 206.565 242.09 216.281 248.943C226.325 255.983 236.651 263.305 244.958 267.717C262.888 277.246 273.966 282.738 282.086 286.023C284.621 287.056 286.264 289.074 286.405 291.28C286.545 294.331 283.917 297.57 279.082 300.151C274.717 302.498 267.442 302.17 258.007 299.166C249.652 296.49 241.767 292.501 237.495 290.341C236.979 290.06 236.51 289.825 236.135 289.637C232.756 287.948 227.826 286.445 222.617 284.849C217.125 283.16 210.273 281.095 208.16 279.358C199.477 272.318 188.822 263.681 179.482 260.536C171.268 257.72 164.18 260.02 158.5 267.295C153.994 273.068 150.897 281.236 147.799 289.778C145.781 295.317 142.448 302.17 138.881 309.445C137.426 312.449 135.971 315.406 134.61 318.269C134.75 316.767 135.032 315.077 135.642 313.2V313.011C135.738 312.72 137.426 305.352 137.426 293.016C137.379 287.337 139.397 280.719 141.697 273.068C143.95 265.652 146.438 257.203 147.752 247.675C148.362 243.263 148.785 238.757 149.207 233.969C149.817 227.07 150.474 220.076 151.648 213.552C151.741 213.412 151.742 213.27 151.742 213.13C153.29 204.869 155.779 197.452 160.238 192.054C161.317 190.787 162.443 189.426 163.71 187.924C169.812 180.602 177.98 170.792 185.396 161.78V161.686C192.671 152.674 199.101 144.507 201.824 140.283C202.105 139.814 202.434 139.344 202.762 138.828C205.766 134.181 209.897 127.751 214.075 122.541C220.317 114.844 222.805 114.655 222.946 114.655ZM203.749 194.123C203.655 198.394 204.125 202.712 205.392 206.936C207.504 213.836 210.884 220.642 214.169 227.167C216.985 232.705 219.661 238.056 221.257 242.937L220.787 242.609C207.645 233.363 199.197 227.542 193.987 225.852C193.611 223.975 192.954 220.689 192.766 218.06C192.531 215.056 193.611 209.424 197.459 202.713L197.506 202.666C198.82 200.366 201.168 197.361 203.749 194.123ZM173.008 111.79C173.994 110.805 175.167 110.523 176.528 110.992C178.499 111.649 181.034 114.044 181.691 118.69C182.958 127.28 180.847 146.759 178.828 157.695C171.694 166.472 163.808 175.953 157.847 183.088L157.894 183.041C156.627 184.543 155.453 185.951 154.42 187.218C153.67 188.11 152.966 189.049 152.309 190.034C152.544 187.734 152.872 185.622 153.341 183.745C156.11 172.198 157.988 158.774 158.317 147.838C158.599 137.652 169.676 115.075 173.008 111.79ZM294.62 106.275C296.779 106.134 298.61 107.73 298.751 109.889C298.892 112.048 297.249 113.879 295.137 114.02L264.065 116.086H263.83C261.812 116.086 260.122 114.536 259.981 112.471H259.934C259.793 110.312 261.436 108.481 263.548 108.34L294.62 106.275ZM260.499 60.7341C261.485 58.8569 263.832 58.1528 265.709 59.1383C267.587 60.1241 268.29 62.4709 267.305 64.3483L252.99 91.196C252.286 92.5102 250.924 93.2614 249.563 93.2614C248.953 93.2614 248.295 93.1212 247.732 92.7926H247.779C245.901 91.8069 245.197 89.4591 246.183 87.5817L260.499 60.7341ZM211.448 59.0583C213.372 58.12 215.672 58.9184 216.611 60.8425L228.579 85.3434C229.518 87.2678 228.72 89.5677 226.795 90.5065C226.232 90.7411 225.669 90.8825 225.106 90.8825C223.698 90.8824 222.289 90.0844 221.632 88.7233L209.663 64.2214C208.725 62.2971 209.523 59.9969 211.448 59.0583Z" fill="#FEBC23"/>
</g>
</svg>
